<?xml version="1.0" standalone="no"?>
<!DOCTYPE svg PUBLIC "-//W3C//DTD SVG 1.1//EN" "http://www.w3.org/Graphics/SVG/1.1/DTD/svg11.dtd" >
<!--
2017-3-17: Created with FontForge (http://fontforge.org)
-->
<svg xmlns="http://www.w3.org/2000/svg" xmlns:xlink="http://www.w3.org/1999/xlink" version="1.1">
<metadata>
Created by FontForge 20161003 at Wed Apr 12 23:14:42 2017
 By Thor Arisland
Copyright (c) 2017, Thor Arisland
</metadata>
<defs>
<font id="Borgen" horiz-adv-x="1088" >
  <font-face 
    font-family="Borgen"
    font-weight="400"
    font-stretch="normal"
    units-per-em="2048"
    panose-1="2 0 5 9 0 0 0 0 0 0"
    ascent="1626"
    descent="-422"
    x-height="815"
    cap-height="1227"
    bbox="22 -408 1066 1993"
    underline-thickness="98"
    underline-position="-50"
    unicode-range="U+0020-2122"
  />
    <missing-glyph />
    <glyph glyph-name="N" unicode="N" 
d="M238 1022v-1020h-102v1225h102l612 -1020v1020h102v-1225h-102z" />
    <glyph glyph-name="A" unicode="A" 
d="M952 2h-102l-150 510h-312l-150 -510h-102l358 1225h100zM416 614h256l-128 439z" />
    <glyph glyph-name="B" unicode="B" 
d="M136 1227h400c145 0 264 -121 264 -266v-132c0 -63 -21 -122 -60 -167c121 -25 212 -132 212 -261v-133c0 -145 -121 -266 -266 -266h-550v1225zM238 104h428c100 0 184 85 184 185v92c0 100 -84 182 -184 182h-428v-459zM238 666h274c100 0 184 84 184 184v90
c0 100 -84 184 -184 184h-274v-458z" />
    <glyph glyph-name="C" unicode="C" 
d="M948 360c-25 -201 -195 -360 -404 -360c-225 0 -408 187 -408 412v407c0 225 183 408 408 408s408 -183 408 -408h-102c0 170 -136 305 -306 305s-306 -135 -306 -305v-407c0 -170 136 -308 306 -308c152 0 277 111 302 256h102z" />
    <glyph glyph-name="D" unicode="D" 
d="M136 1227h408c225 0 408 -183 408 -408v-407c0 -225 -183 -410 -408 -410h-408v1225zM238 104h306c170 0 306 138 306 308v407c0 170 -136 305 -306 305h-306v-1020z" />
    <glyph glyph-name="E" unicode="E" 
d="M136 2v1225h816v-103h-714v-407h510v-103h-510v-510h714v-102h-816z" />
    <glyph glyph-name="F" unicode="F" 
d="M136 2v1225h816v-103h-714v-407h510v-103h-510v-612h-102z" />
    <glyph glyph-name="G" unicode="G" 
d="M952 614v-202c0 -225 -183 -410 -408 -410s-408 185 -408 410v407c0 225 183 408 408 408s408 -183 408 -408h-102c0 170 -136 305 -306 305s-306 -135 -306 -305v-407c0 -170 136 -308 306 -308s306 138 306 308v100h-306v102h408z" />
    <glyph glyph-name="H" unicode="H" 
d="M850 2v510h-612v-510h-102v1225h102v-613h612v613h102v-1225h-102z" />
    <glyph glyph-name="I" unicode="I" 
d="M136 104h358v1020h-358v103h816v-103h-358v-1020h358v-102h-816v102z" />
    <glyph glyph-name="J" unicode="J" 
d="M952 1227v-815c0 -225 -183 -410 -408 -410s-408 185 -408 410h102c0 -170 136 -308 306 -308s306 138 306 308v815h102z" />
    <glyph glyph-name="K" unicode="K" 
d="M136 2v1225h102v-613h230c82 0 280 172 280 383v230h102v-230c0 -172 -109 -323 -220 -409c188 -66 322 -248 322 -459v-127h-102v127c0 211 -171 383 -382 383h-230v-510h-102z" />
    <glyph glyph-name="L" unicode="L" 
d="M136 1227h102v-1123h714v-102h-816v1225z" />
    <glyph glyph-name="O" unicode="O" 
d="M952 819v-407c0 -225 -183 -410 -408 -410s-408 185 -408 410v407c0 225 183 408 408 408s408 -183 408 -408zM850 819c0 170 -136 305 -306 305s-306 -135 -306 -305v-407c0 -170 136 -308 306 -308s306 138 306 308v407z" />
    <glyph glyph-name="P" unicode="P" 
d="M622 1227c182 0 330 -150 330 -332c0 -156 -154 -332 -330 -332h-384v-561h-102v1225h486zM622 666c127 0 228 102 228 229s-101 229 -228 229h-384v-458h384z" />
    <glyph glyph-name="Q" unicode="Q" 
d="M752 59c-61 -37 -132 -57 -208 -57c-225 0 -408 185 -408 410v407c0 225 183 408 408 408s408 -183 408 -408v-407c0 -106 -42 -205 -110 -279l110 -131h-152zM776 213c45 53 74 123 74 199v407c0 170 -136 305 -306 305s-306 -135 -306 -305v-407
c0 -170 136 -308 306 -308c51 0 97 12 140 35l-140 170h152z" />
    <glyph glyph-name="R" unicode="R" 
d="M238 2h-102v1225h486c182 0 330 -150 330 -332c0 -123 -93 -254 -220 -307c133 -86 220 -238 220 -408v-178h-102v178c0 211 -171 383 -382 383h-230v-561zM622 1124h-384v-458h384c127 0 228 102 228 229s-101 229 -228 229z" />
    <glyph glyph-name="S" unicode="S" 
d="M136 870c0 281 183 357 408 357s408 -105 408 -357h-102c0 188 -136 254 -306 254c-168 0 -306 -40 -306 -245v-9c2 -141 134 -147 306 -153s406 -60 408 -357v-8c0 -291 -185 -350 -408 -350c-225 0 -408 74 -408 410h102c0 -240 136 -308 306 -308
c160 0 306 37 306 252c0 162 -95 256 -306 258c-262 4 -408 20 -408 256z" />
    <glyph glyph-name="T" unicode="T" 
d="M494 2v1122h-359v103h817v-103h-358v-1122h-100z" />
    <glyph glyph-name="U" unicode="U" 
d="M952 1227v-815c0 -225 -183 -410 -408 -410s-408 185 -408 410v815h102v-815c0 -170 136 -308 306 -308s306 138 306 308v815h102z" />
    <glyph glyph-name="V" unicode="V" 
d="M136 1227h102l306 -1049l306 1049h102l-358 -1225h-100z" />
    <glyph glyph-name="W" unicode="W" 
d="M694 291l156 936h102l-204 -1225h-102l-102 545l-102 -545h-102l-204 1225h102l156 -936l100 528h100z" />
    <glyph glyph-name="X" unicode="X" 
d="M494 614l-358 613h102l306 -525l306 525h102l-358 -613l358 -612h-102l-306 524l-306 -524h-102z" />
    <glyph glyph-name="Y" unicode="Y" 
d="M494 614l-358 613h102l306 -525l306 525h102l-358 -613v-612h-100v612z" />
    <glyph glyph-name="Z" unicode="Z" 
d="M136 2v102l714 1020h-714v103h816v-103l-714 -1020h714v-102h-816z" />
    <glyph glyph-name="M" unicode="M" 
d="M136 1227h102l306 -561l306 561h102v-1225h-102v1020l-256 -459h-100l-256 459v-1020h-102v1225z" />
    <glyph glyph-name="a" unicode="a" 
d="M604 715h-120c-135 0 -246 -111 -246 -246v-123c0 -135 111 -244 246 -244h120c102 0 209 64 246 154v305c-37 90 -144 154 -246 154zM628 0h-166c-180 0 -326 148 -326 328v161c0 180 146 326 326 326h166c86 0 163 -31 222 -84v84h102v-815h-102v86
c-59 -53 -136 -86 -222 -86z" />
    <glyph glyph-name="b" unicode="b" 
d="M484 717c-102 0 -209 -64 -246 -154v-305c37 -90 144 -154 246 -154h120c135 0 246 109 246 244v123c0 135 -111 246 -246 246h-120zM462 2c-86 0 -165 33 -224 86v-86h-102v1225h102v-494c59 53 138 84 224 84h166c180 0 324 -145 324 -325v-162
c0 -180 -144 -328 -324 -328h-166z" />
    <glyph glyph-name="c" unicode="c" 
d="M628 0h-166c-180 0 -326 148 -326 328v161c0 180 146 326 326 326h166c156 0 291 -109 324 -254h-102c-37 90 -144 154 -246 154h-120c-135 0 -246 -111 -246 -246v-123c0 -135 111 -244 246 -244h120c102 0 209 64 246 154h102c-33 -145 -168 -256 -324 -256z" />
    <glyph glyph-name="d" unicode="d" 
d="M604 717h-120c-135 0 -246 -111 -246 -246v-123c0 -135 111 -244 246 -244h120c102 0 209 64 246 154v305c-37 90 -144 154 -246 154zM628 2h-166c-180 0 -326 148 -326 328v162c0 180 146 325 326 325h166c86 0 163 -31 222 -84v494h102v-1225h-102v86
c-59 -53 -136 -86 -222 -86z" />
    <glyph glyph-name="e" unicode="e" 
d="M850 561c-37 90 -144 154 -246 154h-120c-135 0 -246 -111 -246 -246v-8h612v100zM628 815c156 0 291 -109 324 -254v-203h-714v-12c0 -135 111 -244 246 -244h120c102 0 209 64 246 154h102c-33 -145 -168 -256 -324 -256h-166c-180 0 -326 148 -326 328v161
c0 180 146 326 326 326h166z" />
    <glyph glyph-name="f" unicode="f" 
d="M238 717v182c0 180 146 328 326 328h64c156 0 291 -111 324 -256h-102c-37 90 -144 153 -246 153h-18c-135 0 -246 -108 -246 -243v-164h460v-103h-460v-612h-102v612h-102v103h102z" />
    <glyph glyph-name="g" unicode="g" 
d="M604 715h-120c-135 0 -246 -111 -246 -246v-123c0 -135 111 -244 246 -244h120c102 0 209 64 246 154v305c-37 90 -144 154 -246 154zM850 86c-59 -53 -136 -86 -222 -86h-166c-180 0 -326 148 -326 328v161c0 180 146 326 326 326h166c86 0 163 -31 222 -84v84h102v-897
c0 -180 -144 -326 -324 -326h-166c-156 0 -293 111 -326 256h102c37 -90 144 -153 246 -153h120c135 0 246 111 246 246v145z" />
    <glyph glyph-name="h" unicode="h" 
d="M952 2h-102v469c0 135 -111 246 -246 246h-120c-102 0 -209 -64 -246 -154v-561h-102v1225h102v-494c59 53 138 84 224 84h166c180 0 324 -145 324 -325v-490z" />
    <glyph glyph-name="i" unicode="i" 
d="M575 1323c55 0 103 -48 103 -103s-48 -102 -103 -102s-102 47 -102 102s47 103 102 103zM952 0h-132c-180 0 -326 148 -326 328v387h-358v100h232h126c78 0 100 -20 100 -100v-369c0 -135 111 -244 246 -244h112v-102z" />
    <glyph glyph-name="j" unicode="j" 
d="M731 1317c55 0 103 -48 103 -103s-48 -102 -103 -102s-102 47 -102 102s47 103 102 103zM952 717h-306v-797c0 -180 -146 -326 -326 -326h-52c-45 0 -89 11 -132 27v113c45 -23 101 -37 154 -37h10c135 0 244 111 244 246v874h408v-100z" />
    <glyph glyph-name="k" unicode="k" 
d="M136 2v1225h102v-715h230c82 0 280 151 280 305h102c0 -164 -109 -268 -220 -354c188 -66 322 -250 322 -461h-102c0 211 -171 410 -382 410h-230v-410h-102z" />
    <glyph glyph-name="l" unicode="l" 
d="M136 1223h306v-815c0 -170 136 -306 306 -306h204v-102h-204c-225 0 -408 183 -408 408v712h-204v103z" />
    <glyph glyph-name="m" unicode="m" 
d="M594 0h-100v512c0 121 -28 203 -102 203h-2c-74 0 -152 -68 -152 -154v-561h-102v815h102v-84c12 18 46 84 150 84h4c74 0 123 -14 152 -100c70 100 102 100 186 100c139 0 222 -148 222 -326v-489h-102v469c0 135 -52 246 -120 246h-2c-88 0 -134 -111 -134 -203v-512z
" />
    <glyph glyph-name="n" unicode="n" 
d="M952 0h-102v469c0 135 -111 246 -246 246h-120c-102 0 -209 -64 -246 -154v-561h-102v815h102v-84c59 53 138 84 224 84h166c180 0 324 -146 324 -326v-489z" />
    <glyph glyph-name="o" unicode="o" 
d="M604 715h-120c-135 0 -246 -111 -246 -246v-123c0 -135 111 -244 246 -244h120c135 0 246 109 246 244v123c0 135 -111 246 -246 246zM628 815c180 0 324 -146 324 -326v-161c0 -180 -144 -328 -324 -328h-166c-180 0 -326 148 -326 328v161c0 180 146 326 326 326h166z
" />
    <glyph glyph-name="p" unicode="p" 
d="M484 102h120c135 0 246 109 246 244v123c0 135 -111 246 -246 246h-120c-102 0 -209 -64 -246 -154v-305c37 -90 144 -154 246 -154zM462 815h166c180 0 324 -146 324 -326v-161c0 -180 -144 -328 -324 -328h-166c-86 0 -165 33 -224 86v-494h-102v1223h102v-84
c59 53 138 84 224 84z" />
    <glyph glyph-name="q" unicode="q" 
d="M604 102c102 0 209 64 246 154v305c-37 90 -144 154 -246 154h-120c-135 0 -246 -111 -246 -246v-123c0 -135 111 -244 246 -244h120zM952 815v-1223h-102v494c-59 -53 -136 -86 -222 -86h-166c-180 0 -326 148 -326 328v161c0 180 146 326 326 326h166
c86 0 163 -31 222 -84v84h102z" />
    <glyph glyph-name="r" unicode="r" 
d="M240 0h-102v815h102v-84c59 53 138 84 224 84h164c172 0 312 -133 322 -303h-104c-18 117 -121 203 -242 203h-120c-102 0 -207 -64 -244 -154v-561z" />
    <glyph glyph-name="s" unicode="s" 
d="M136 561c0 209 166 254 326 254h166c160 0 322 -47 324 -254h-114c-10 152 -128 154 -232 154h-126c-100 0 -227 -1 -227 -144v-6c2 -102 187 -104 291 -104c78 0 224 -2 318 -51c53 -31 90 -78 90 -154c0 -209 -164 -256 -324 -256h-166c-160 0 -324 49 -326 256h114
c10 -152 128 -154 232 -154h124c102 0 230 5 230 146v4c-2 102 -188 106 -292 106c-78 0 -224 1 -318 52c-53 29 -90 75 -90 151z" />
    <glyph glyph-name="t" unicode="t" 
d="M238 717h-102v100h102v410h102v-410h460v-100h-460v-369c0 -135 111 -244 246 -244h18c102 0 209 64 246 154h102c-33 -145 -168 -256 -324 -256h-64c-180 0 -326 148 -326 328v387z" />
    <glyph glyph-name="u" unicode="u" 
d="M136 815h102v-469c0 -135 111 -244 246 -244h120c102 0 209 64 246 154v559h102v-815h-102v86c-59 -53 -136 -86 -222 -86h-166c-180 0 -326 148 -326 328v487z" />
    <glyph glyph-name="v" unicode="v" 
d="M136 815h102l306 -661l306 661h102l-358 -815h-100z" />
    <glyph glyph-name="w" unicode="w" 
d="M136 815h102l132 -633l174 279l170 -279l136 633h102l-152 -815h-104l-152 254l-152 -254h-102z" />
    <glyph glyph-name="x" unicode="x" 
d="M442 410l-306 405h154l254 -354l256 354h152l-306 -405l306 -410h-152l-256 358l-254 -358h-154z" />
    <glyph glyph-name="y" unicode="y" 
d="M136 815h102v-469c0 -135 111 -244 246 -244h120c102 0 209 64 246 154v559h102v-897c0 -180 -144 -326 -324 -326h-166c-156 0 -293 111 -326 256h102c37 -90 144 -153 246 -153h120c135 0 246 111 246 246v145c-59 -53 -136 -86 -222 -86h-166
c-180 0 -326 148 -326 328v487z" />
    <glyph glyph-name="z" unicode="z" 
d="M136 102l664 613h-664v100h816v-100l-662 -613h662v-102h-816v102z" />
    <glyph glyph-name="zero" unicode="0" 
d="M952 817v-405c0 -225 -183 -410 -408 -410s-408 185 -408 410v405c0 225 183 410 408 410s408 -185 408 -410zM850 817c0 170 -136 307 -306 307s-306 -137 -306 -307v-405c0 -170 136 -308 306 -308s306 138 306 308v405zM800 768v-102l-510 -203v100z" />
    <glyph glyph-name="one" unicode="1" 
d="M136 104h458v969l-458 -135v100l560 189v-1123h256v-102h-816v102z" />
    <glyph glyph-name="two" unicode="2" 
d="M136 2v307c0 297 236 351 408 357s304 61 306 202v11c0 203 -118 245 -306 245c-170 0 -306 -80 -306 -307h-102c0 317 183 410 408 410c207 0 408 -78 408 -359c0 -236 -146 -301 -408 -305c-209 -2 -306 -94 -306 -254v-205h714v-102h-816z" />
    <glyph glyph-name="three" unicode="3" 
d="M442 563v103h102c254 0 304 61 306 202v11c0 203 -118 245 -306 245c-170 0 -306 -80 -306 -307h-102c0 317 183 410 408 410c207 0 408 -78 408 -359c0 -201 -99 -225 -152 -254c53 -29 152 -59 152 -254c0 -281 -201 -358 -408 -358c-225 0 -408 93 -408 410h102
c0 -227 136 -308 306 -308c188 0 306 43 306 246v10c-2 139 -50 203 -296 203h-112z" />
    <glyph glyph-name="four" unicode="4" 
d="M136 512l256 715h102l-220 -613h576v613h102v-1225h-102v510h-714z" />
    <glyph glyph-name="five" unicode="5" 
d="M186 717v510h716v-103h-612v-307s20 2 96 2c39 0 88 -2 158 -2c332 0 408 -176 408 -457s-201 -358 -408 -358c-225 0 -408 93 -408 410h102c0 -227 136 -308 306 -308c188 0 306 43 306 246v10c-4 240 -83 353 -306 357c-41 0 -79 2 -120 2z" />
    <glyph glyph-name="six" unicode="6" 
d="M628 2h-166c-180 0 -326 148 -326 328v487c0 225 183 410 408 410c209 0 383 -158 408 -359h-106c-25 145 -150 256 -302 256c-170 0 -306 -137 -306 -307v-139c57 55 138 90 224 90h166c180 0 324 -148 324 -328v-110c0 -180 -144 -328 -324 -328zM604 666h-120
c-135 0 -246 -109 -246 -244v-72c0 -135 111 -246 246 -246h120c135 0 246 111 246 246v72c0 135 -111 244 -246 244z" />
    <glyph glyph-name="seven" unicode="7" 
d="M238 1124v-153h-102v256h816v-103l-208 -510h106v-102h-148l-208 -510h-102l208 510h-106v102h148l208 510h-612z" />
    <glyph glyph-name="eight" unicode="8" 
d="M294 633c-66 53 -108 135 -108 225v74c0 164 134 295 298 295h120c164 0 298 -131 298 -295v-74c0 -90 -40 -172 -106 -225c94 -49 156 -149 156 -262v-72c0 -164 -132 -297 -296 -297h-224c-164 0 -296 133 -296 297v72c0 113 64 213 158 262zM646 563h-204
c-113 0 -204 -92 -204 -205v-49c0 -113 91 -205 204 -205h204c113 0 204 92 204 205v49c0 113 -91 205 -204 205zM594 1124h-100c-113 0 -204 -91 -204 -204v-50c0 -113 91 -204 204 -204h100c113 0 206 91 206 204v50c0 113 -93 204 -206 204z" />
    <glyph glyph-name="nine" unicode="9" 
d="M462 1227h166c180 0 324 -148 324 -328v-487c0 -225 -183 -410 -408 -410c-209 0 -383 157 -408 358h106c25 -145 150 -256 302 -256c170 0 306 138 306 308v202c-57 -55 -136 -102 -222 -102h-166c-227 0 -326 137 -326 317v111c0 135 146 287 326 287zM484 614h120
c135 0 246 101 246 236v70c0 98 -111 204 -246 204h-120c-135 0 -246 -104 -246 -204v-70c0 -135 66 -236 246 -236z" />
    <glyph glyph-name="colon" unicode=":" 
d="M544 207c55 0 103 -48 103 -103s-48 -102 -103 -102s-102 47 -102 102s47 103 102 103zM544 717c55 0 103 -48 103 -103s-48 -102 -103 -102s-102 47 -102 102s47 103 102 103z" />
    <glyph glyph-name="semicolon" unicode=";" 
d="M521 4c-45 10 -78 53 -78 100c0 55 45 103 100 103s103 -48 103 -103v-51c0 -141 -203 -151 -203 -151s-2 4 0 51c29 0 58 24 78 51zM543 717c55 0 103 -48 103 -103s-48 -102 -103 -102s-100 47 -100 102s45 103 100 103z" />
    <glyph glyph-name="less" unicode="&#x3c;" 
d="M136 459l816 356v-100l-700 -305l700 -308v-102l-816 358v101z" />
    <glyph glyph-name="equal" unicode="=" 
d="M952 307v-102h-816v102h816zM952 815v-100h-816v100h816z" />
    <glyph glyph-name="greater" unicode="&#x3e;" 
d="M952 459v-101l-816 -358v102l700 308l-700 305v100z" />
    <glyph glyph-name="question" unicode="?" 
d="M594 156v-154h-100v154h100zM238 868h-102c0 246 183 359 408 359c207 0 408 -107 408 -359c0 -106 -44 -254 -204 -254c-111 0 -154 -132 -154 -202v-154h-100v154c0 162 96 305 254 305c92 0 102 96 102 157c0 145 -118 250 -306 250c-170 0 -306 -104 -306 -256z" />
    <glyph glyph-name="period" unicode="." 
d="M544 207c55 0 103 -48 103 -103s-48 -102 -103 -102s-102 47 -102 102s47 103 102 103z" />
    <glyph glyph-name="comma" unicode="," 
d="M521 4c-45 10 -78 53 -78 100c0 55 45 103 100 103s103 -48 103 -103v-51c0 -141 -203 -151 -203 -151s-2 4 0 51c29 0 58 24 78 51z" />
    <glyph glyph-name="hyphen" unicode="-" 
d="M136 414v102h816v-102h-816z" />
    <glyph glyph-name="asterisk" unicode="*" 
d="M494 1307v319h100v-319l278 159l52 -88l-279 -159l279 -160l-52 -88l-278 159v-319h-100v319l-279 -159l-51 88l278 160l-278 159l51 88z" />
    <glyph glyph-name="parenright" unicode=")" 
d="M186 1227h108c336 0 608 -273 608 -609v-6c0 -336 -272 -608 -608 -608h-108v102h106c281 0 508 225 508 506v6c0 281 -227 506 -508 506h-106v103z" />
    <glyph glyph-name="parenleft" unicode="(" 
d="M902 1227v-103h-104c-281 0 -508 -225 -508 -506v-6c0 -281 227 -506 508 -506h104v-102h-106c-336 0 -610 272 -610 608v6c0 336 274 609 610 609h106z" />
    <glyph glyph-name="quotesingle" unicode="'" 
d="M494 1219v407h100v-407h-100z" />
    <glyph glyph-name="exclam" unicode="!" 
d="M594 104v-102h-100v102h100zM594 1227v-918h-100v918h100z" />
    <glyph glyph-name="quotedbl" unicode="&#x22;" 
d="M696 1626v-407h-102v407h102zM494 1626v-407h-102v407h102z" />
    <glyph glyph-name="numbersign" unicode="#" 
d="M392 922l50 305h102l-50 -305h202l52 305h102l-50 -305h152l-26 -103h-144l-66 -407h186l-28 -103h-178l-50 -307h-102l50 307h-202l-52 -307h-102l52 307h-154l26 103h144l68 407h-188l28 103h178zM476 819l-68 -407h204l68 407h-204z" />
    <glyph glyph-name="dollar" unicode="$" 
d="M340 666h428c100 0 184 -83 184 -183v-143c0 -100 -84 -182 -184 -182h-174v-154h-100v154h-174c-100 0 -184 82 -184 182v72h102v-52c0 -55 47 -102 102 -102h408c55 0 102 47 102 102v103c0 55 -47 100 -102 100h-428c-100 0 -184 85 -184 185v143
c0 100 84 182 184 182h174v154h100v-154h174c100 0 184 -82 184 -182v-72h-102v51c0 55 -47 103 -102 103h-408c-55 0 -102 -48 -102 -103v-102c0 -55 47 -102 102 -102z" />
    <glyph glyph-name="percent" unicode="%" 
d="M186 4h-50v51l766 1172h50v-51zM722 463c127 0 230 -103 230 -230s-103 -229 -230 -229s-228 102 -228 229s101 230 228 230zM722 371c-76 0 -136 -62 -136 -138s60 -137 136 -137s138 61 138 137s-62 138 -138 138zM368 1227c127 0 226 -103 226 -230
s-99 -229 -226 -229s-232 102 -232 229s105 230 232 230zM368 1135c-76 0 -140 -62 -140 -138s64 -137 140 -137s134 61 134 137s-58 138 -134 138z" />
    <glyph glyph-name="ampersand" unicode="&#x26;" 
d="M378 639c-98 111 -138 234 -140 332v10c0 98 50 244 306 246h4c229 0 302 -123 302 -252c0 -229 -342 -346 -342 -346s210 -299 292 -422c45 53 50 139 50 180v25l102 -2v-4c0 -33 -4 -201 -84 -283c41 -49 84 -121 84 -121h-102s-28 49 -44 78
c-61 -29 -141 -78 -262 -78c-346 0 -408 151 -408 307c0 74 34 139 102 217c76 86 140 113 140 113zM238 309c0 -70 3 -205 306 -205c74 0 129 9 174 48c-84 104 -278 411 -286 411c-139 0 -194 -236 -194 -254zM544 1141c-160 0 -198 -70 -204 -170v-15
c0 -76 36 -180 114 -266c0 0 294 95 294 281c0 143 -95 170 -204 170z" />
    <glyph glyph-name="bracketleft" unicode="[" 
d="M902 1124h-612v-1018h612v-102h-716v1223h716v-103z" />
    <glyph glyph-name="bracketright" unicode="]" 
d="M186 1124v103h716v-1223h-716v102h614v1018h-614z" />
    <glyph glyph-name="asciicircum" unicode="^" 
d="M544 1626l358 -356h-102l-256 256l-254 -256h-104z" />
    <glyph glyph-name="underscore" unicode="_" 
d="M136 -104v102h816v-102h-816z" />
    <glyph glyph-name="grave" unicode="`" 
d="M544 1219l-102 407h102l101 -407h-101z" />
    <glyph glyph-name="braceleft" unicode="{" 
d="M902 1124h-56c-41 0 -352 -8 -352 -305c0 -186 -117 -205 -148 -205c31 0 148 -16 148 -202c0 -297 309 -306 350 -306h58v-102h-52c-346 0 -458 265 -458 408s-154 151 -154 151h-52v103h52s154 10 154 153s112 408 458 408h52v-103z" />
    <glyph glyph-name="bar" unicode="|" 
d="M494 4v1223h100v-1223h-100z" />
    <glyph glyph-name="braceright" unicode="}" 
d="M186 1124v103h52c346 0 458 -265 458 -408s154 -153 154 -153h52v-103h-52s-154 -8 -154 -151s-112 -408 -458 -408h-52v102h58c41 0 350 9 350 306c0 186 117 202 148 202c-31 0 -148 19 -148 205c0 297 -311 305 -352 305h-56z" />
    <glyph glyph-name="asciitilde" unicode="~" 
d="M494 588c0 70 -56 127 -126 127s-130 -57 -130 -127h-102c0 127 105 227 232 227s226 -100 226 -227c0 -70 58 -129 128 -129s128 59 128 129h102c0 -127 -103 -232 -230 -232s-228 105 -228 232z" />
    <glyph glyph-name="at" unicode="@" 
d="M785 106c-61 -66 -147 -106 -241 -106c-182 0 -332 150 -332 332s150 332 332 332c96 0 182 -46 241 -109v33v6v4h7h6h63h6h6v-4v-6v-350v-156c8 -6 23 0 27 4c47 70 78 154 78 246c0 240 -194 434 -434 434s-434 -194 -434 -434s194 -434 434 -434c20 0 41 2 61 4l6 2h9
v-6v-7v-65v-4v-6h-7l-6 -2c-20 -2 -40 -4 -63 -4c-289 0 -522 233 -522 522s233 522 522 522s522 -233 522 -522c0 -123 -45 -238 -117 -326v-2h-2v-2s-24 -14 -59 -14c-25 0 -53 7 -82 32c-20 18 -21 57 -21 86zM544 575c-133 0 -244 -110 -244 -243s111 -244 244 -244
s241 111 241 244s-108 243 -241 243z" />
    <glyph glyph-name="space" unicode=" " 
 />
    <glyph glyph-name="plus" unicode="+" 
d="M136 569h358v357h100v-357h358v-100h-358v-358h-100v358h-358v100z" />
    <glyph glyph-name="slash" unicode="/" 
d="M138 6l710 1221h102l-710 -1221h-102z" />
    <glyph glyph-name="backslash" unicode="\" 
d="M950 6h-102l-710 1221h102z" />
    <glyph glyph-name="exclamdown" unicode="&#xa1;" 
d="M594 1124h-100v103h100v-103zM594 2h-100v918h100v-918z" />
    <glyph glyph-name="cent" unicode="&#xa2;" 
d="M688 768c98 -25 178 -101 207 -197h-119c-35 61 -100 103 -176 103h-100c-113 0 -205 -92 -205 -205v-100c0 -113 92 -205 205 -205h100c76 0 141 41 176 102h119c-35 -119 -145 -205 -274 -205h-109l-12 -51h-103l15 60c-125 31 -219 141 -219 276v143
c0 158 128 285 286 285h109l12 51h102z" />
    <glyph glyph-name="sterling" unicode="&#xa3;" 
d="M542 1178c190 0 367 -132 412 -306h-2h-106c-43 119 -169 201 -302 201h-2c-78 0 -143 -20 -192 -55c-74 -51 -107 -127 -107 -207c0 -74 26 -152 71 -215l128 2v-109h-86c25 -49 35 -98 35 -141c0 -94 -43 -170 -61 -201c106 -8 208 -30 294 -30c84 0 157 20 206 100h20
c35 0 106 -2 106 -2c0 -53 -76 -137 -158 -176c-51 -25 -115 -39 -174 -39c-121 0 -201 47 -310 47c-51 0 -110 -12 -180 -43v96c78 47 146 139 146 248c0 39 -10 80 -28 123l-6 16h-112l-2 107h76l-20 33c-39 63 -56 127 -56 190c0 190 162 361 408 361h2z" />
    <glyph glyph-name="currency" unicode="&#xa4;" 
d="M310 725c45 33 105 49 164 49h142c59 0 117 -16 162 -49l104 100l70 -71l-102 -101c33 -45 52 -105 52 -164v-143c0 -59 -19 -117 -52 -162l102 -100l-70 -74l-104 103c-45 -33 -105 -52 -164 -52h-140c-59 0 -121 19 -164 52l-102 -103l-72 74l102 100
c-33 45 -52 103 -52 162v143c0 59 19 119 52 164l-102 101l72 71zM594 674h-100c-113 0 -204 -92 -204 -205v-100c0 -113 91 -205 204 -205h100h2c113 0 204 92 204 205v100c0 113 -93 205 -206 205z" />
    <glyph glyph-name="yen" unicode="&#xa5;" 
d="M494 614l-358 613h102l306 -525l306 525h102l-358 -613h256l-50 -102h-206v-100h256l-50 -103h-206v-307h-100v307h-256l52 103h204v100h-256l52 102h204z" />
    <glyph glyph-name="brokenbar" unicode="&#xa6;" 
d="M594 463v-461h-100v461h100zM594 717h-100v510h100v-510z" />
    <glyph glyph-name="section" unicode="&#xa7;" 
d="M324 862c-43 33 -66 78 -66 121c0 35 13 69 42 100l66 70c43 47 114 74 186 74c45 0 89 -11 128 -31l134 -72l-72 -77l-112 61c-23 10 -47 16 -72 16c-41 0 -77 -14 -102 -41l-38 -39c-16 -16 -23 -39 -23 -57c0 -31 20 -60 55 -78l406 -217c51 -29 97 -82 97 -143
c0 -33 -12 -63 -41 -96l-68 -70c-29 -31 -65 -52 -108 -64c12 -23 21 -46 21 -71c0 -35 -12 -70 -41 -101l-66 -69c-43 -47 -114 -74 -186 -74c-45 0 -91 11 -130 31l-132 71l71 78l113 -59c23 -10 47 -19 72 -19c41 0 79 14 104 41l34 39c16 16 26 38 26 56
c0 31 -19 59 -54 77l-336 179c-63 33 -96 88 -96 141c0 35 11 67 40 98l68 72c23 25 49 41 80 53zM762 627l-256 135c-23 12 -47 16 -72 16c-39 0 -79 -12 -104 -39l-34 -41c-16 -16 -23 -37 -23 -55c0 -31 18 -60 53 -78l256 -137c23 -10 47 -16 72 -16c41 0 79 14 104 41
l36 39c16 16 22 39 22 57c0 31 -19 60 -54 78z" />
    <glyph glyph-name="dieresis" unicode="&#xa8;" 
d="M367 1626c43 0 75 -33 75 -76s-32 -75 -75 -75s-78 32 -78 75s35 76 78 76zM721 1626c43 0 78 -33 78 -76s-35 -75 -78 -75s-76 32 -76 75s33 76 76 76z" />
    <glyph glyph-name="copyright" unicode="&#xa9;" 
d="M544 1626c225 0 409 -182 409 -407s-184 -408 -409 -408s-408 183 -408 408s183 407 408 407zM544 1575c-197 0 -357 -159 -357 -356s160 -357 357 -357s358 160 358 357s-161 356 -358 356zM724 1038c-45 -45 -110 -73 -180 -73c-141 0 -254 113 -254 254
s113 256 254 256c70 0 135 -31 180 -76l-36 -35c-37 37 -89 59 -144 59c-113 0 -203 -91 -203 -204s90 -203 203 -203c55 0 107 22 144 59z" />
    <glyph glyph-name="ordfeminine" unicode="&#xaa;" 
d="M573.925 1553.35h-59.8496c-67.3311 0 -122.691 -52.6826 -122.691 -116.756v-58.3789c0 -64.0732 55.3604 -115.807 122.691 -115.807h59.8496c50.8721 0 104.238 30.376 122.691 73.0918v144.759c-18.4531 42.7148 -71.8193 73.0908 -122.691 73.0908zM585.895 1214
h-82.792c-89.7744 0 -162.591 70.2432 -162.591 155.675v76.4141c0 85.4316 72.8164 154.726 162.591 154.726h82.792c42.8926 0 81.2959 -14.7129 110.722 -39.8682v39.8682h50.873v-386.814h-50.873v40.8174c-29.4258 -25.1553 -67.8291 -40.8174 -110.722 -40.8174z" />
    <glyph glyph-name="guillemotleft" unicode="&#xab;" 
d="M176 455l428 186v-72c-113 -49 -221 -96 -334 -145c113 -49 221 -99 334 -148v-71l-428 186v6v58zM484 455l428 186v-66v-6c-113 -49 -223 -96 -336 -145c113 -49 223 -99 336 -148v-71l-428 186v64z" />
    <glyph glyph-name="uni00AD" unicode="&#xad;" 
d="M136 414v102h816v-102h-816z" />
    <glyph glyph-name="registered" unicode="&#xae;" 
d="M544 1626c225 0 409 -182 409 -407s-184 -408 -409 -408s-408 183 -408 408s183 407 408 407zM544 1575c-197 0 -357 -159 -357 -356s160 -357 357 -357s358 160 358 357s-161 356 -358 356zM443 965h-51v510h254c55 0 102 -48 102 -103v-51c0 -55 -47 -102 -102 -102
h-46l148 -254h-60l-144 254h-101v-254zM443 1270h193c35 0 60 26 60 61v31c0 35 -25 61 -60 61h-193v-153z" />
    <glyph glyph-name="degree" unicode="&#xb0;" 
d="M543 1636c119 0 215 -96 215 -215s-96 -213 -215 -213s-213 94 -213 213s94 215 213 215zM543 1565c-80 0 -142 -64 -142 -144s62 -141 142 -141s143 61 143 141s-63 144 -143 144z" />
    <glyph glyph-name="macron" unicode="&#xaf;" 
d="M136 1524v102h816v-102h-816z" />
    <glyph glyph-name="plusminus" unicode="&#xb1;" 
d="M952 256v-102h-816v102h816zM594 766h358v-102h-358v-359h-100v359h-358v102h358v354h100v-354z" />
    <glyph glyph-name="uni00B2" unicode="&#xb2;" 
d="M420.271 1210.61v94.207c0 91.1377 71.5684 107.709 123.729 109.55c52.1602 1.84082 92.1904 18.7188 92.7969 61.9863v3.375c0 62.293 -35.7852 75.1816 -92.7969 75.1816c-51.5537 0 -92.7969 -24.5488 -92.7969 -94.207h-30.9326
c0 97.2754 55.4961 125.813 123.729 125.813c62.7744 0 123.729 -23.9355 123.729 -110.163c0 -72.4199 -44.2754 -92.3652 -123.729 -93.5928c-63.3809 -0.614258 -92.7969 -28.8457 -92.7969 -77.9434v-62.9062h216.525v-31.3008h-247.458z" />
    <glyph glyph-name="uni00B3" unicode="&#xb3;" 
d="M508.978 1388.54v35.2246h35.0225c87.2129 0 104.381 20.8613 105.067 69.0811v3.76172c0 69.4238 -40.5166 83.7871 -105.067 83.7871c-58.3711 0 -105.068 -27.3594 -105.068 -104.99h-35.0225c0 108.41 62.835 140.215 140.091 140.215
c71.0752 0 140.09 -26.6748 140.09 -122.773c0 -68.7393 -33.9922 -76.9463 -52.1904 -86.8643c18.1982 -9.91797 52.1904 -20.1777 52.1904 -86.8643c0 -96.0986 -69.0146 -122.432 -140.09 -122.432c-77.2559 0 -140.091 31.8047 -140.091 140.215h35.0225
c0 -77.6309 46.6973 -105.332 105.068 -105.332c64.5508 0 105.067 14.7051 105.067 84.1289v3.41992c-0.686523 47.5361 -17.168 69.4229 -101.634 69.4229h-38.4561z" />
    <glyph glyph-name="acute" unicode="&#xb4;" 
d="M544 1219h-102l102 407h101z" />
    <glyph glyph-name="mu" unicode="&#xb5;" 
d="M238 815v-559c37 -90 144 -154 246 -154h120c135 0 246 109 246 244v469h102v-815h-102v90c-57 -55 -136 -90 -222 -90h-166c-86 0 -165 33 -224 86v-494h-102v1223h102z" />
    <glyph glyph-name="paragraph" unicode="&#xb6;" 
d="M850 1227c29 0 52 -22 52 -51s-23 -52 -52 -52h-50v-1120h-104v1120h-152v-1120h-102v815h-50c-113 0 -206 92 -206 205s93 203 206 203h458z" />
    <glyph glyph-name="periodcentered" unicode="&#xb7;" 
d="M544 207c55 0 101 -48 101 -103s-46 -102 -101 -102s-102 47 -102 102s47 103 102 103z" />
    <glyph glyph-name="cedilla" unicode="&#xb8;" 
d="M528 -70l24 64h62l-22 -64v-4c37 -10 63 -45 63 -86v-43c0 -49 -40 -90 -89 -90h-44c-49 0 -90 41 -90 90v37h66c0 -2 -2 -2 -2 -4v-20c0 -20 20 -39 40 -39h18c20 0 38 19 38 39v20c0 20 -18 37 -38 37h-18h-8v63z" />
    <glyph glyph-name="uni00B9" unicode="&#xb9;" 
d="M402.175 1228.61h159.205v322.46l-159.205 -44.9248v33.2783l194.662 62.8945v-373.708h88.9883v-33.9424h-283.65v33.9424z" />
    <glyph glyph-name="ordmasculine" unicode="&#xba;" 
d="M573.925 1578.49h-59.8496c-67.3311 0 -122.691 -53.6348 -122.691 -118.866v-59.4336c0 -65.2314 55.3604 -117.9 122.691 -117.9h59.8496c67.3311 0 122.691 52.6689 122.691 117.9v59.4336c0 65.2314 -55.3604 118.866 -122.691 118.866zM585.895 1626.81
c89.7744 0 161.595 -70.5469 161.595 -157.522v-77.7949c0 -86.9756 -71.8203 -158.489 -161.595 -158.489h-82.792c-89.7744 0 -162.591 71.5137 -162.591 158.489v77.7949c0 86.9756 72.8164 157.522 162.591 157.522h82.792z" />
    <glyph glyph-name="guillemotright" unicode="&#xbb;" 
d="M912 455v-64l-428 -186v71c113 49 221 99 334 148c-113 49 -221 96 -334 145v72zM604 455v-64l-428 -186v14v57c113 49 223 99 336 148c-113 49 -223 96 -336 145v72z" />
    <glyph glyph-name="onequarter" unicode="&#xbc;" 
d="M188 -2h-61c256 412 514 821 770 1233h64c-256 -412 -517 -821 -773 -1233zM956 -2h-55v223h-315l114 322h58c-33 -88 -63 -179 -96 -267h239v267h55v-545zM498 686h-369v55h201v412c-68 -20 -133 -39 -201 -59v55l256 84v-492h113v-55z" />
    <glyph glyph-name="onehalf" unicode="&#xbd;" 
d="M643 354h-55v6c0 141 84 183 184 183c90 0 184 -33 184 -160c0 -106 -67 -137 -184 -139c-88 0 -129 -39 -129 -107v-84h313v-55h-368v139c0 133 106 160 184 162c76 2 129 27 129 84v4c0 84 -47 102 -129 102c-72 0 -129 -33 -129 -129v-6zM188 -2h-61
c256 412 514 821 770 1233h64c-256 -412 -517 -821 -773 -1233zM385 741h113v-55h-369v55h201v412c-68 -20 -133 -39 -201 -59v55l256 84v-492z" />
    <glyph glyph-name="threequarters" unicode="&#xbe;" 
d="M190 -2h-63c256 412 514 821 770 1233h64c-256 -412 -515 -821 -771 -1233zM956 -2h-55v223h-313l114 322h56c-33 -88 -63 -179 -96 -267h239v267h55v-545zM313 741c82 0 129 17 129 101v6c0 57 -17 84 -123 84h-6h-49v53h49c111 0 129 25 129 84v6
c0 84 -47 103 -129 103c-72 0 -129 -33 -129 -129v-7h-53v7c0 141 82 182 182 182c90 0 185 -35 185 -162c0 -80 -35 -101 -60 -111c27 -12 60 -32 60 -110c0 -127 -95 -162 -185 -162c-100 0 -182 43 -182 184v4h53v-4c0 -96 57 -129 129 -129z" />
    <glyph glyph-name="questiondown" unicode="&#xbf;" 
d="M494 1073v154h100v-154h-100zM850 360h102c0 -246 -183 -358 -408 -358c-207 0 -408 106 -408 358c0 106 44 254 204 254c111 0 154 133 154 203v154h100v-154c0 -162 -96 -305 -254 -305c-90 0 -102 -93 -102 -152v-6c0 -143 118 -250 306 -250c170 0 306 104 306 256z
" />
    <glyph glyph-name="Agrave" unicode="&#xc0;" 
d="M544.5 1534l-102 407h102l101 -407h-101zM952 2h-102l-150 510h-312l-150 -510h-102l358 1225h100zM416 614h256l-128 439z" />
    <glyph glyph-name="germandbls" unicode="&#xdf;" 
d="M138 952c0 145 119 265 264 265h134c145 0 264 -120 264 -265v-131c0 -63 -23 -123 -62 -168c121 -25 212 -131 212 -258v-133c0 -145 -119 -262 -264 -262h-346v100h328c100 0 180 85 180 185v90c0 100 -82 182 -182 182h-326v102h174c100 0 182 83 182 183v92
c0 100 -82 182 -182 182h-92c-100 0 -182 -82 -182 -182v-1137h-102v1155z" />
    <glyph glyph-name="ae" unicode="&#xe6;" 
d="M412 0h-92c-100 0 -184 84 -184 184v449c0 100 84 182 184 182h92c51 0 99 -20 132 -55c33 35 81 55 132 55h92c100 0 184 -82 184 -182v-275h-358v-153c0 -55 47 -103 102 -103h52c55 0 102 48 102 103v51h102v-72c0 -100 -84 -184 -184 -184h-92c-29 0 -57 8 -82 20
v-20h-100v20c-25 -12 -53 -20 -82 -20zM392 715h-52c-55 0 -102 -48 -102 -103v-407c0 -55 47 -103 102 -103h52c55 0 102 48 102 103v407c0 55 -47 103 -102 103zM748 715h-52c-55 0 -102 -48 -102 -103v-151h256v151c0 55 -47 103 -102 103z" />
    <glyph glyph-name="oslash" unicode="&#xf8;" 
d="M222 106c-53 57 -86 136 -86 222v161c0 180 146 326 326 326h166c51 0 99 -10 142 -33l30 33h152l-86 -104c53 -57 86 -136 86 -222v-161c0 -180 -144 -328 -324 -328h-166c-51 0 -101 12 -144 35l-28 -35h-154zM796 625l-408 -502c29 -12 61 -21 96 -21h120
c135 0 246 109 246 244v123c0 57 -19 113 -54 156zM604 715h-120c-135 0 -246 -111 -246 -246v-123c0 -57 21 -108 56 -151l406 499c-29 12 -61 21 -96 21z" />
    <glyph glyph-name="divide" unicode="&#xf7;" 
d="M494 213h100v-102h-100v102zM952 569v-100h-816v100h816zM594 823h-100v103h100v-103z" />
    <glyph glyph-name="multiply" unicode="&#xd7;" 
d="M869 743l-253 -251l253 -252l-71 -72l-254 252l-252 -252l-72 72l252 252l-252 251l72 74l252 -254l254 254z" />
    <glyph glyph-name="Aacute" unicode="&#xc1;" 
d="M544.5 1534h-102l102 407h101zM952 2h-102l-150 510h-312l-150 -510h-102l358 1225h100zM416 614h256l-128 439z" />
    <glyph glyph-name="Acircumflex" unicode="&#xc2;" 
d="M544.5 1890l358 -356h-102l-256 256l-254 -256h-104zM952 2h-102l-150 510h-312l-150 -510h-102l358 1225h100zM416 614h256l-128 439z" />
    <glyph glyph-name="Atilde" unicode="&#xc3;" 
d="M494.25 1766c0 70 -56 127 -126 127s-130 -57 -130 -127h-102c0 127 105 227 232 227s226 -100 226 -227c0 -70 58 -129 128 -129s128 59 128 129h102c0 -127 -103 -232 -230 -232s-228 105 -228 232zM951.75 2h-102l-150 510h-312l-150 -510h-102l358 1225h100z
M415.75 614h256l-128 439z" />
    <glyph glyph-name="Adieresis" unicode="&#xc4;" 
d="M367.5 1685c43 0 75 -33 75 -76s-32 -75 -75 -75s-78 32 -78 75s35 76 78 76zM721.5 1685c43 0 78 -33 78 -76s-35 -75 -78 -75s-76 32 -76 75s33 76 76 76zM952 2h-102l-150 510h-312l-150 -510h-102l358 1225h100zM416 614h256l-128 439z" />
    <glyph glyph-name="Aring" unicode="&#xc5;" 
d="M543.5 1804c119 0 215 -96 215 -215s-96 -213 -215 -213s-213 94 -213 213s94 215 213 215zM543.5 1733c-80 0 -142 -64 -142 -144s62 -141 142 -141s143 61 143 141s-63 144 -143 144zM952 2h-102l-150 510h-312l-150 -510h-102l358 1225h100zM416 614h256l-128 439z
" />
    <glyph glyph-name="Ccedilla" unicode="&#xc7;" 
d="M489.5 -71l24 64h62l-22 -64v-4c37 -10 63 -45 63 -86v-43c0 -49 -40 -90 -89 -90h-44c-49 0 -90 41 -90 90v37h66c0 -2 -2 -2 -2 -4v-20c0 -20 20 -39 40 -39h18c20 0 38 19 38 39v20c0 20 -18 37 -38 37h-18h-8v63zM948 360c-25 -201 -195 -360 -404 -360
c-225 0 -408 187 -408 412v407c0 225 183 408 408 408s408 -183 408 -408h-102c0 170 -136 305 -306 305s-306 -135 -306 -305v-407c0 -170 136 -308 306 -308c152 0 277 111 302 256h102z" />
    <glyph glyph-name="Egrave" unicode="&#xc8;" 
d="M544.5 1534l-102 407h102l101 -407h-101zM136 2v1225h816v-103h-714v-407h510v-103h-510v-510h714v-102h-816z" />
    <glyph glyph-name="Eacute" unicode="&#xc9;" 
d="M544.5 1534h-102l102 407h101zM136 2v1225h816v-103h-714v-407h510v-103h-510v-510h714v-102h-816z" />
    <glyph glyph-name="Ecircumflex" unicode="&#xca;" 
d="M544.5 1890l358 -356h-102l-256 256l-254 -256h-104zM136 2v1225h816v-103h-714v-407h510v-103h-510v-510h714v-102h-816z" />
    <glyph glyph-name="Edieresis" unicode="&#xcb;" 
d="M367.5 1685c43 0 75 -33 75 -76s-32 -75 -75 -75s-78 32 -78 75s35 76 78 76zM721.5 1685c43 0 78 -33 78 -76s-35 -75 -78 -75s-76 32 -76 75s33 76 76 76zM136 2v1225h816v-103h-714v-407h510v-103h-510v-510h714v-102h-816z" />
    <glyph glyph-name="Igrave" unicode="&#xcc;" 
d="M544.5 1534l-102 407h102l101 -407h-101zM136 104h358v1020h-358v103h816v-103h-358v-1020h358v-102h-816v102z" />
    <glyph glyph-name="Iacute" unicode="&#xcd;" 
d="M544.5 1534h-102l102 407h101zM136 104h358v1020h-358v103h816v-103h-358v-1020h358v-102h-816v102z" />
    <glyph glyph-name="Icircumflex" unicode="&#xce;" 
d="M544.5 1890l358 -356h-102l-256 256l-254 -256h-104zM136 104h358v1020h-358v103h816v-103h-358v-1020h358v-102h-816v102z" />
    <glyph glyph-name="Idieresis" unicode="&#xcf;" 
d="M367.5 1685c43 0 75 -33 75 -76s-32 -75 -75 -75s-78 32 -78 75s35 76 78 76zM721.5 1685c43 0 78 -33 78 -76s-35 -75 -78 -75s-76 32 -76 75s33 76 76 76zM136 104h358v1020h-358v103h816v-103h-358v-1020h358v-102h-816v102z" />
    <glyph glyph-name="Ntilde" unicode="&#xd1;" 
d="M494.25 1766c0 70 -56 127 -126 127s-130 -57 -130 -127h-102c0 127 105 227 232 227s226 -100 226 -227c0 -70 58 -129 128 -129s128 59 128 129h102c0 -127 -103 -232 -230 -232s-228 105 -228 232zM237.75 1022v-1020h-102v1225h102l612 -1020v1020h102v-1225h-102z
" />
    <glyph glyph-name="Ograve" unicode="&#xd2;" 
d="M544.5 1534l-102 407h102l101 -407h-101zM952 819v-407c0 -225 -183 -410 -408 -410s-408 185 -408 410v407c0 225 183 408 408 408s408 -183 408 -408zM850 819c0 170 -136 305 -306 305s-306 -135 -306 -305v-407c0 -170 136 -308 306 -308s306 138 306 308v407z" />
    <glyph glyph-name="Oacute" unicode="&#xd3;" 
d="M544.5 1534h-102l102 407h101zM952 819v-407c0 -225 -183 -410 -408 -410s-408 185 -408 410v407c0 225 183 408 408 408s408 -183 408 -408zM850 819c0 170 -136 305 -306 305s-306 -135 -306 -305v-407c0 -170 136 -308 306 -308s306 138 306 308v407z" />
    <glyph glyph-name="Ocircumflex" unicode="&#xd4;" 
d="M544.5 1890l358 -356h-102l-256 256l-254 -256h-104zM952 819v-407c0 -225 -183 -410 -408 -410s-408 185 -408 410v407c0 225 183 408 408 408s408 -183 408 -408zM850 819c0 170 -136 305 -306 305s-306 -135 -306 -305v-407c0 -170 136 -308 306 -308s306 138 306 308
v407z" />
    <glyph glyph-name="Otilde" unicode="&#xd5;" 
d="M494.25 1766c0 70 -56 127 -126 127s-130 -57 -130 -127h-102c0 127 105 227 232 227s226 -100 226 -227c0 -70 58 -129 128 -129s128 59 128 129h102c0 -127 -103 -232 -230 -232s-228 105 -228 232zM951.75 819v-407c0 -225 -183 -410 -408 -410s-408 185 -408 410v407
c0 225 183 408 408 408s408 -183 408 -408zM849.75 819c0 170 -136 305 -306 305s-306 -135 -306 -305v-407c0 -170 136 -308 306 -308s306 138 306 308v407z" />
    <glyph glyph-name="Odieresis" unicode="&#xd6;" 
d="M367.5 1685c43 0 75 -33 75 -76s-32 -75 -75 -75s-78 32 -78 75s35 76 78 76zM721.5 1685c43 0 78 -33 78 -76s-35 -75 -78 -75s-76 32 -76 75s33 76 76 76zM952 819v-407c0 -225 -183 -410 -408 -410s-408 185 -408 410v407c0 225 183 408 408 408s408 -183 408 -408z
M850 819c0 170 -136 305 -306 305s-306 -135 -306 -305v-407c0 -170 136 -308 306 -308s306 138 306 308v407z" />
    <glyph glyph-name="Ugrave" unicode="&#xd9;" 
d="M544.5 1534l-102 407h102l101 -407h-101zM952 1227v-815c0 -225 -183 -410 -408 -410s-408 185 -408 410v815h102v-815c0 -170 136 -308 306 -308s306 138 306 308v815h102z" />
    <glyph glyph-name="Uacute" unicode="&#xda;" 
d="M544.5 1534h-102l102 407h101zM952 1227v-815c0 -225 -183 -410 -408 -410s-408 185 -408 410v815h102v-815c0 -170 136 -308 306 -308s306 138 306 308v815h102z" />
    <glyph glyph-name="Ucircumflex" unicode="&#xdb;" 
d="M544.5 1890l358 -356h-102l-256 256l-254 -256h-104zM952 1227v-815c0 -225 -183 -410 -408 -410s-408 185 -408 410v815h102v-815c0 -170 136 -308 306 -308s306 138 306 308v815h102z" />
    <glyph glyph-name="Udieresis" unicode="&#xdc;" 
d="M367.5 1685c43 0 75 -33 75 -76s-32 -75 -75 -75s-78 32 -78 75s35 76 78 76zM721.5 1685c43 0 78 -33 78 -76s-35 -75 -78 -75s-76 32 -76 75s33 76 76 76zM952 1227v-815c0 -225 -183 -410 -408 -410s-408 185 -408 410v815h102v-815c0 -170 136 -308 306 -308
s306 138 306 308v815h102z" />
    <glyph glyph-name="Yacute" unicode="&#xdd;" 
d="M544.5 1534h-102l102 407h101zM494 614l-358 613h102l306 -525l306 525h102l-358 -613v-612h-100v612z" />
    <glyph glyph-name="agrave" unicode="&#xe0;" 
d="M544.5 1123l-102 407h102l101 -407h-101zM604 715h-120c-135 0 -246 -111 -246 -246v-123c0 -135 111 -244 246 -244h120c102 0 209 64 246 154v305c-37 90 -144 154 -246 154zM628 0h-166c-180 0 -326 148 -326 328v161c0 180 146 326 326 326h166c86 0 163 -31 222 -84
v84h102v-815h-102v86c-59 -53 -136 -86 -222 -86z" />
    <glyph glyph-name="aacute" unicode="&#xe1;" 
d="M544.5 1123h-102l102 407h101zM604 715h-120c-135 0 -246 -111 -246 -246v-123c0 -135 111 -244 246 -244h120c102 0 209 64 246 154v305c-37 90 -144 154 -246 154zM628 0h-166c-180 0 -326 148 -326 328v161c0 180 146 326 326 326h166c86 0 163 -31 222 -84v84h102
v-815h-102v86c-59 -53 -136 -86 -222 -86z" />
    <glyph glyph-name="acircumflex" unicode="&#xe2;" 
d="M544.5 1479l358 -356h-102l-256 256l-254 -256h-104zM604 715h-120c-135 0 -246 -111 -246 -246v-123c0 -135 111 -244 246 -244h120c102 0 209 64 246 154v305c-37 90 -144 154 -246 154zM628 0h-166c-180 0 -326 148 -326 328v161c0 180 146 326 326 326h166
c86 0 163 -31 222 -84v84h102v-815h-102v86c-59 -53 -136 -86 -222 -86z" />
    <glyph glyph-name="atilde" unicode="&#xe3;" 
d="M494.25 1354c0 70 -56 127 -126 127s-130 -57 -130 -127h-102c0 127 105 227 232 227s226 -100 226 -227c0 -70 58 -129 128 -129s128 59 128 129h102c0 -127 -103 -232 -230 -232s-228 105 -228 232zM603.75 715h-120c-135 0 -246 -111 -246 -246v-123
c0 -135 111 -244 246 -244h120c102 0 209 64 246 154v305c-37 90 -144 154 -246 154zM627.75 0h-166c-180 0 -326 148 -326 328v161c0 180 146 326 326 326h166c86 0 163 -31 222 -84v84h102v-815h-102v86c-59 -53 -136 -86 -222 -86z" />
    <glyph glyph-name="adieresis" unicode="&#xe4;" 
d="M367.5 1274c43 0 75 -33 75 -76s-32 -75 -75 -75s-78 32 -78 75s35 76 78 76zM721.5 1274c43 0 78 -33 78 -76s-35 -75 -78 -75s-76 32 -76 75s33 76 76 76zM604 715h-120c-135 0 -246 -111 -246 -246v-123c0 -135 111 -244 246 -244h120c102 0 209 64 246 154v305
c-37 90 -144 154 -246 154zM628 0h-166c-180 0 -326 148 -326 328v161c0 180 146 326 326 326h166c86 0 163 -31 222 -84v84h102v-815h-102v86c-59 -53 -136 -86 -222 -86z" />
    <glyph glyph-name="aring" unicode="&#xe5;" 
d="M543.5 1550c119 0 215 -96 215 -215s-96 -213 -215 -213s-213 94 -213 213s94 215 213 215zM543.5 1479c-80 0 -142 -64 -142 -144s62 -141 142 -141s143 61 143 141s-63 144 -143 144zM604 715h-120c-135 0 -246 -111 -246 -246v-123c0 -135 111 -244 246 -244h120
c102 0 209 64 246 154v305c-37 90 -144 154 -246 154zM628 0h-166c-180 0 -326 148 -326 328v161c0 180 146 326 326 326h166c86 0 163 -31 222 -84v84h102v-815h-102v86c-59 -53 -136 -86 -222 -86z" />
    <glyph glyph-name="ccedilla" unicode="&#xe7;" 
d="M501.5 -69l24 64h62l-22 -64v-4c37 -10 63 -45 63 -86v-43c0 -49 -40 -90 -89 -90h-44c-49 0 -90 41 -90 90v37h66c0 -2 -2 -2 -2 -4v-20c0 -20 20 -39 40 -39h18c20 0 38 19 38 39v20c0 20 -18 37 -38 37h-18h-8v63zM628 0h-166c-180 0 -326 148 -326 328v161
c0 180 146 326 326 326h166c156 0 291 -109 324 -254h-102c-37 90 -144 154 -246 154h-120c-135 0 -246 -111 -246 -246v-123c0 -135 111 -244 246 -244h120c102 0 209 64 246 154h102c-33 -145 -168 -256 -324 -256z" />
    <glyph glyph-name="egrave" unicode="&#xe8;" 
d="M544.5 1123l-102 407h102l101 -407h-101zM850 561c-37 90 -144 154 -246 154h-120c-135 0 -246 -111 -246 -246v-8h612v100zM628 815c156 0 291 -109 324 -254v-203h-714v-12c0 -135 111 -244 246 -244h120c102 0 209 64 246 154h102c-33 -145 -168 -256 -324 -256h-166
c-180 0 -326 148 -326 328v161c0 180 146 326 326 326h166z" />
    <glyph glyph-name="eacute" unicode="&#xe9;" 
d="M544.5 1123h-102l102 407h101zM850 561c-37 90 -144 154 -246 154h-120c-135 0 -246 -111 -246 -246v-8h612v100zM628 815c156 0 291 -109 324 -254v-203h-714v-12c0 -135 111 -244 246 -244h120c102 0 209 64 246 154h102c-33 -145 -168 -256 -324 -256h-166
c-180 0 -326 148 -326 328v161c0 180 146 326 326 326h166z" />
    <glyph glyph-name="ecircumflex" unicode="&#xea;" 
d="M544.5 1479l358 -356h-102l-256 256l-254 -256h-104zM850 561c-37 90 -144 154 -246 154h-120c-135 0 -246 -111 -246 -246v-8h612v100zM628 815c156 0 291 -109 324 -254v-203h-714v-12c0 -135 111 -244 246 -244h120c102 0 209 64 246 154h102
c-33 -145 -168 -256 -324 -256h-166c-180 0 -326 148 -326 328v161c0 180 146 326 326 326h166z" />
    <glyph glyph-name="edieresis" unicode="&#xeb;" 
d="M367.5 1274c43 0 75 -33 75 -76s-32 -75 -75 -75s-78 32 -78 75s35 76 78 76zM721.5 1274c43 0 78 -33 78 -76s-35 -75 -78 -75s-76 32 -76 75s33 76 76 76zM850 561c-37 90 -144 154 -246 154h-120c-135 0 -246 -111 -246 -246v-8h612v100zM628 815
c156 0 291 -109 324 -254v-203h-714v-12c0 -135 111 -244 246 -244h120c102 0 209 64 246 154h102c-33 -145 -168 -256 -324 -256h-166c-180 0 -326 148 -326 328v161c0 180 146 326 326 326h166z" />
    <glyph glyph-name="igrave" unicode="&#xec;" 
d="M545 1123l-102 407h102l101 -407h-101zM952 0h-132c-180 0 -326 148 -326 328v387h-358v100h232h126c78 0 100 -20 100 -100v-369c0 -135 111 -244 246 -244h112v-102z" />
    <glyph glyph-name="iacute" unicode="&#xed;" 
d="M545 1123h-102l102 407h101zM952 0h-132c-180 0 -326 148 -326 328v387h-358v100h232h126c78 0 100 -20 100 -100v-369c0 -135 111 -244 246 -244h112v-102z" />
    <glyph glyph-name="icircumflex" unicode="&#xee;" 
d="M545 1479l358 -356h-102l-256 256l-254 -256h-104zM952 0h-132c-180 0 -326 148 -326 328v387h-358v100h232h126c78 0 100 -20 100 -100v-369c0 -135 111 -244 246 -244h112v-102z" />
    <glyph glyph-name="idieresis" unicode="&#xef;" 
d="M368 1274c43 0 75 -33 75 -76s-32 -75 -75 -75s-78 32 -78 75s35 76 78 76zM722 1274c43 0 78 -33 78 -76s-35 -75 -78 -75s-76 32 -76 75s33 76 76 76zM952 0h-132c-180 0 -326 148 -326 328v387h-358v100h232h126c78 0 100 -20 100 -100v-369c0 -135 111 -244 246 -244
h112v-102z" />
    <glyph glyph-name="ntilde" unicode="&#xf1;" 
d="M494.25 1354c0 70 -56 127 -126 127s-130 -57 -130 -127h-102c0 127 105 227 232 227s226 -100 226 -227c0 -70 58 -129 128 -129s128 59 128 129h102c0 -127 -103 -232 -230 -232s-228 105 -228 232zM951.75 0h-102v469c0 135 -111 246 -246 246h-120
c-102 0 -209 -64 -246 -154v-561h-102v815h102v-84c59 53 138 84 224 84h166c180 0 324 -146 324 -326v-489z" />
    <glyph glyph-name="ograve" unicode="&#xf2;" 
d="M544.5 1123l-102 407h102l101 -407h-101zM604 715h-120c-135 0 -246 -111 -246 -246v-123c0 -135 111 -244 246 -244h120c135 0 246 109 246 244v123c0 135 -111 246 -246 246zM628 815c180 0 324 -146 324 -326v-161c0 -180 -144 -328 -324 -328h-166
c-180 0 -326 148 -326 328v161c0 180 146 326 326 326h166z" />
    <glyph glyph-name="oacute" unicode="&#xf3;" 
d="M544.5 1123h-102l102 407h101zM604 715h-120c-135 0 -246 -111 -246 -246v-123c0 -135 111 -244 246 -244h120c135 0 246 109 246 244v123c0 135 -111 246 -246 246zM628 815c180 0 324 -146 324 -326v-161c0 -180 -144 -328 -324 -328h-166c-180 0 -326 148 -326 328
v161c0 180 146 326 326 326h166z" />
    <glyph glyph-name="ocircumflex" unicode="&#xf4;" 
d="M544.5 1479l358 -356h-102l-256 256l-254 -256h-104zM604 715h-120c-135 0 -246 -111 -246 -246v-123c0 -135 111 -244 246 -244h120c135 0 246 109 246 244v123c0 135 -111 246 -246 246zM628 815c180 0 324 -146 324 -326v-161c0 -180 -144 -328 -324 -328h-166
c-180 0 -326 148 -326 328v161c0 180 146 326 326 326h166z" />
    <glyph glyph-name="otilde" unicode="&#xf5;" 
d="M494.25 1354c0 70 -56 127 -126 127s-130 -57 -130 -127h-102c0 127 105 227 232 227s226 -100 226 -227c0 -70 58 -129 128 -129s128 59 128 129h102c0 -127 -103 -232 -230 -232s-228 105 -228 232zM603.75 715h-120c-135 0 -246 -111 -246 -246v-123
c0 -135 111 -244 246 -244h120c135 0 246 109 246 244v123c0 135 -111 246 -246 246zM627.75 815c180 0 324 -146 324 -326v-161c0 -180 -144 -328 -324 -328h-166c-180 0 -326 148 -326 328v161c0 180 146 326 326 326h166z" />
    <glyph glyph-name="odieresis" unicode="&#xf6;" 
d="M367.5 1274c43 0 75 -33 75 -76s-32 -75 -75 -75s-78 32 -78 75s35 76 78 76zM721.5 1274c43 0 78 -33 78 -76s-35 -75 -78 -75s-76 32 -76 75s33 76 76 76zM604 715h-120c-135 0 -246 -111 -246 -246v-123c0 -135 111 -244 246 -244h120c135 0 246 109 246 244v123
c0 135 -111 246 -246 246zM628 815c180 0 324 -146 324 -326v-161c0 -180 -144 -328 -324 -328h-166c-180 0 -326 148 -326 328v161c0 180 146 326 326 326h166z" />
    <glyph glyph-name="ugrave" unicode="&#xf9;" 
d="M544.5 1123l-102 407h102l101 -407h-101zM136 815h102v-469c0 -135 111 -244 246 -244h120c102 0 209 64 246 154v559h102v-815h-102v86c-59 -53 -136 -86 -222 -86h-166c-180 0 -326 148 -326 328v487z" />
    <glyph glyph-name="uacute" unicode="&#xfa;" 
d="M544.5 1123h-102l102 407h101zM136 815h102v-469c0 -135 111 -244 246 -244h120c102 0 209 64 246 154v559h102v-815h-102v86c-59 -53 -136 -86 -222 -86h-166c-180 0 -326 148 -326 328v487z" />
    <glyph glyph-name="ucircumflex" unicode="&#xfb;" 
d="M544.5 1479l358 -356h-102l-256 256l-254 -256h-104zM136 815h102v-469c0 -135 111 -244 246 -244h120c102 0 209 64 246 154v559h102v-815h-102v86c-59 -53 -136 -86 -222 -86h-166c-180 0 -326 148 -326 328v487z" />
    <glyph glyph-name="udieresis" unicode="&#xfc;" 
d="M367.5 1274c43 0 75 -33 75 -76s-32 -75 -75 -75s-78 32 -78 75s35 76 78 76zM721.5 1274c43 0 78 -33 78 -76s-35 -75 -78 -75s-76 32 -76 75s33 76 76 76zM136 815h102v-469c0 -135 111 -244 246 -244h120c102 0 209 64 246 154v559h102v-815h-102v86
c-59 -53 -136 -86 -222 -86h-166c-180 0 -326 148 -326 328v487z" />
    <glyph glyph-name="yacute" unicode="&#xfd;" 
d="M544.5 1123h-102l102 407h101zM136 815h102v-469c0 -135 111 -244 246 -244h120c102 0 209 64 246 154v559h102v-897c0 -180 -144 -326 -324 -326h-166c-156 0 -293 111 -326 256h102c37 -90 144 -153 246 -153h120c135 0 246 111 246 246v145c-59 -53 -136 -86 -222 -86
h-166c-180 0 -326 148 -326 328v487z" />
    <glyph glyph-name="ydieresis" unicode="&#xff;" 
d="M367.5 1274c43 0 75 -33 75 -76s-32 -75 -75 -75s-78 32 -78 75s35 76 78 76zM721.5 1274c43 0 78 -33 78 -76s-35 -75 -78 -75s-76 32 -76 75s33 76 76 76zM136 815h102v-469c0 -135 111 -244 246 -244h120c102 0 209 64 246 154v559h102v-897
c0 -180 -144 -326 -324 -326h-166c-156 0 -293 111 -326 256h102c37 -90 144 -153 246 -153h120c135 0 246 111 246 246v145c-59 -53 -136 -86 -222 -86h-166c-180 0 -326 148 -326 328v487z" />
    <glyph glyph-name="Oslash" unicode="&#xd8;" 
d="M800 1137l50 90h102l-90 -154c55 -70 90 -158 90 -254v-407c0 -225 -183 -410 -408 -410c-96 0 -184 35 -254 90l-52 -90h-102l90 154c-55 70 -90 160 -90 256v407c0 225 183 408 408 408c96 0 186 -35 256 -90zM806 977l-464 -797c53 -47 124 -76 202 -76
c170 0 306 138 306 308v407c0 57 -15 113 -44 158zM746 1049c-53 47 -124 75 -202 75c-170 0 -306 -135 -306 -305v-407c0 -57 17 -113 46 -158z" />
    <glyph glyph-name="AE" unicode="&#xc6;" 
d="M952 1227v-103h-306v-510h204v-102h-204v-408h306v-102h-408v510h-156l-150 -510h-102l358 1225h458zM416 614h128v439z" />
    <glyph glyph-name="Eth" unicode="&#xd0;" 
d="M238 614v613h306c225 0 408 -183 408 -408v-407c0 -225 -183 -408 -408 -408h-306v508h-102v102h102zM544 1124h-204v-510h204v-102h-204v-406h204c170 0 306 136 306 306v407c0 170 -136 305 -306 305z" />
    <glyph glyph-name="Thorn" unicode="&#xde;" 
d="M136 1227h102v-408h306c225 0 408 -182 408 -407s-183 -408 -408 -408h-306v-407h-102v1630zM544 717h-306v-611h306c170 0 306 136 306 306s-136 305 -306 305z" />
    <glyph glyph-name="thorn" unicode="&#xfe;" 
d="M462 4c-86 0 -165 31 -224 84v-491h-102v1630h102v-494c59 53 138 86 224 86h166c180 0 324 -145 324 -325v-164c0 -180 -144 -326 -324 -326h-166zM484 717c-102 0 -209 -64 -246 -154v-305c37 -90 144 -152 246 -152h120c135 0 246 109 246 244v121
c0 135 -111 246 -246 246h-120z" />
    <glyph glyph-name="eth" unicode="&#xf0;" 
d="M582 1159l118 68l52 -88l-72 -41c164 -121 272 -316 272 -535v-305c-33 -145 -168 -254 -324 -254h-166c-180 0 -326 146 -326 326v164c0 180 146 325 326 325h166c70 0 133 -20 186 -57c-43 117 -126 214 -230 280l-142 -81l-50 88l80 47c-57 20 -119 28 -182 28
c-53 0 -105 -6 -154 -20v104c49 12 101 19 154 19c104 0 204 -25 292 -68zM850 563c-37 90 -144 154 -246 154h-120c-135 0 -246 -109 -246 -244v-123c0 -135 111 -244 246 -244h120c102 0 209 62 246 152v305z" />
    <glyph glyph-name="logicalnot" unicode="&#xac;" 
d="M952 627v-385h-102v282h-714v103h816z" />
    <glyph glyph-name="dotlessi" unicode="&#x131;" 
d="M952 0h-132c-180 0 -326 148 -326 328v387h-358v100h232h126c78 0 100 -20 100 -100v-369c0 -135 111 -244 246 -244h112v-102z" />
    <glyph glyph-name="dotlessj" unicode="&#x237;" 
d="M952 717h-306v-797c0 -180 -146 -326 -326 -326h-52c-45 0 -89 11 -132 27v113c45 -23 101 -37 154 -37h10c135 0 244 111 244 246v874h408v-100z" />
    <glyph glyph-name="euro" unicode="&#x20ac;" 
d="M290 764c16 256 228 459 488 459h174l-50 -103h-102c-209 0 -381 -155 -406 -356h456l-50 -100h-408v-103h458l-50 -102h-406c25 -201 197 -357 406 -357h152l-50 -102h-124c-260 0 -472 203 -488 459h-154l50 102h104v103h-154l50 100h104z" />
    <glyph glyph-name="trademark" unicode="&#x2122;" 
d="M645 1219h-51v407h51l127 -170l130 170h51v-407h-51v319l-102 -135h-52l-103 135v-319zM494 1577h-153v-358h-51v358h-154v49h358v-49z" />
    <glyph glyph-name="perthousand" unicode="&#x2030;" 
d="M186 0h-50v51l766 1174h50v-51zM544 356c98 0 178 -80 178 -178s-80 -178 -178 -178s-176 80 -176 178s78 178 176 178zM544 281c-55 0 -102 -48 -102 -103s47 -100 102 -100s102 45 102 100s-47 103 -102 103zM772 688c98 0 180 -80 180 -178s-82 -178 -180 -178
s-178 80 -178 178s80 178 178 178zM772 612c-55 0 -100 -47 -100 -102s45 -102 100 -102s102 47 102 102s-47 102 -102 102zM368 1225c127 0 226 -105 226 -232s-99 -227 -226 -227s-232 100 -232 227s105 232 232 232zM368 1133c-76 0 -140 -64 -140 -140s64 -137 140 -137
s134 61 134 137s-58 140 -134 140z" />
    <glyph glyph-name="oe" unicode="&#x153;" 
d="M594 358v-151c0 -55 47 -103 102 -103h52c55 0 102 48 102 103v49h102v-70c0 -100 -84 -184 -184 -184h-92c-51 0 -99 22 -132 57c-33 -35 -81 -57 -132 -57h-92c-100 0 -184 84 -184 184v449c0 100 84 182 184 182h92c51 0 99 -20 132 -55c33 35 81 55 132 55h92
c100 0 184 -82 184 -182v-277h-358zM392 717h-52c-55 0 -102 -48 -102 -103v-407c0 -55 47 -103 102 -103h52c55 0 102 48 102 103v407c0 55 -47 103 -102 103zM748 717h-52c-55 0 -102 -48 -102 -103v-153h256v153c0 55 -47 103 -102 103z" />
    <glyph glyph-name="OE" unicode="&#x152;" 
d="M952 1122h-358v-407h206v-103h-206v-510h358v-102h-358h-100v20c-25 -12 -53 -20 -82 -20h-92c-100 0 -184 84 -184 184v856c0 100 84 185 184 185h92c29 0 57 -9 82 -21v21h458v-103zM392 1122h-52c-55 0 -102 -47 -102 -102v-815c0 -55 47 -103 102 -103h52
c55 0 102 48 102 103v815c0 55 -47 102 -102 102z" />
  </font>
</defs>
</svg>
