<?xml version="1.0" standalone="no"?>
<!DOCTYPE svg PUBLIC "-//W3C//DTD SVG 1.1//EN" "http://www.w3.org/Graphics/SVG/1.1/DTD/svg11.dtd" >
<!--
2017-3-17: Created with FontForge (http://fontforge.org)
-->
<svg xmlns="http://www.w3.org/2000/svg" xmlns:xlink="http://www.w3.org/1999/xlink" version="1.1">
<metadata>
Created by FontForge 20161003 at Wed Apr 12 23:18:33 2017
 By Thor Arisland
Copyright (c) 2017, Thor Arisland
</metadata>
<defs>
<font id="BorgenOblique" horiz-adv-x="1087" >
  <font-face 
    font-family="Borgen"
    font-weight="400"
    font-style="oblique"
    font-stretch="normal"
    units-per-em="2048"
    panose-1="2 0 5 9 0 0 0 0 0 0"
    ascent="1626"
    descent="-422"
    x-height="774"
    cap-height="1227"
    bbox="8 -408 1330.64 1993"
    underline-thickness="98"
    underline-position="-50"
    unicode-range="U+0020-2122"
  />
    <missing-glyph />
    <glyph glyph-name="N" unicode="N" 
d="M354 1022l-235 -1020h-96l280 1225h96l334 -1020l238 1020h96l-285 -1225h-94z" />
    <glyph glyph-name="A" unicode="A" 
d="M924 2h-95l-22 510h-291l-256 -510h-96l616 1225h92zM565 614h238l-17 439z" />
    <glyph glyph-name="B" unicode="B" 
d="M395 1227h373c115 0 193 -86 193 -203c0 -20 -5 -40 -9 -63l-30 -132c-14 -63 -48 -122 -95 -167c88 -20 148 -99 148 -197c0 -20 -4 -41 -8 -64l-31 -133c-33 -145 -174 -266 -309 -266h-512zM231 104h400c92 0 190 85 213 185l22 92c2 14 4 29 4 43
c0 80 -55 139 -135 139h-397zM362 666h256c92 0 190 84 213 184l21 90c2 14 6 27 6 41c0 80 -55 143 -135 143h-254z" />
    <glyph glyph-name="C" unicode="C" 
d="M860 360c-70 -201 -264 -360 -459 -360c-178 0 -297 135 -297 313c0 33 5 64 13 99l94 407c51 225 264 408 473 408c178 0 299 -134 299 -312c0 -31 -4 -61 -12 -96h-97c6 27 11 49 11 74c0 133 -90 231 -223 231c-158 0 -316 -135 -355 -305l-94 -407
c-6 -27 -10 -49 -10 -74c0 -133 90 -234 223 -234c141 0 285 111 342 256h92z" />
    <glyph glyph-name="D" unicode="D" 
d="M346 1227h379c178 0 299 -134 299 -312c0 -31 -2 -61 -10 -96l-94 -407c-51 -225 -267 -410 -476 -410h-381zM184 104h285c158 0 315 138 354 308l95 407c6 27 8 49 8 74c0 133 -91 231 -224 231h-284z" />
    <glyph glyph-name="E" unicode="E" 
d="M23 2l280 1225h764l-25 -103h-665l-92 -407h473l-25 -103h-473l-119 -510h666l-25 -102h-759z" />
    <glyph glyph-name="F" unicode="F" 
d="M23 2l280 1225h764l-25 -103h-665l-92 -407h473l-25 -103h-473l-141 -612h-96z" />
    <glyph glyph-name="G" unicode="G" 
d="M926 614l-49 -202c-51 -225 -267 -410 -476 -410c-178 0 -297 133 -297 311c0 33 5 64 13 99l94 407c51 225 264 408 473 408c178 0 299 -134 299 -312c0 -31 -4 -61 -12 -96h-97c6 27 11 49 11 74c0 133 -90 231 -223 231c-158 0 -316 -135 -355 -305l-94 -407
c-6 -27 -10 -49 -10 -74c0 -133 90 -234 223 -234c158 0 315 138 354 308l25 100h-287l25 102h383z" />
    <glyph glyph-name="H" unicode="H" 
d="M688 2l117 510h-569l-117 -510h-96l280 1225h96l-139 -613h567l144 613h96l-285 -1225h-94z" />
    <glyph glyph-name="I" unicode="I" 
d="M45 104h336l235 1020h-333l20 103h764l-25 -103h-333l-238 -1020h336l-25 -102h-759z" />
    <glyph glyph-name="J" unicode="J" 
d="M1024 1227l-188 -815c-51 -225 -267 -410 -476 -410c-178 0 -297 133 -297 311c0 33 5 64 13 99h96c-6 -27 -10 -49 -10 -74c0 -133 90 -234 223 -234c158 0 315 138 354 308l189 815h96z" />
    <glyph glyph-name="K" unicode="K" 
d="M70 2l282 1225h97l-142 -613h213c76 0 301 172 350 383l54 230h94l-53 -230c-41 -172 -178 -323 -301 -409c129 -53 210 -182 210 -342c0 -39 -6 -76 -14 -117l-31 -127h-94l29 127c6 33 12 61 12 92c0 168 -112 291 -280 291h-211l-119 -510h-96z" />
    <glyph glyph-name="L" unicode="L" 
d="M434 1227h96l-258 -1123h664l-25 -102h-759z" />
    <glyph glyph-name="O" unicode="O" 
d="M971 819l-94 -407c-51 -225 -267 -410 -476 -410c-178 0 -297 133 -297 311c0 33 5 64 13 99l94 407c51 225 264 408 473 408c178 0 299 -134 299 -312c0 -31 -4 -61 -12 -96zM874 819c6 27 11 49 11 74c0 133 -90 231 -223 231c-158 0 -316 -135 -355 -305l-94 -407
c-6 -27 -10 -49 -10 -74c0 -133 90 -234 223 -234c158 0 315 138 354 308z" />
    <glyph glyph-name="P" unicode="P" 
d="M791 1227c143 0 241 -109 241 -254c0 -25 -2 -51 -8 -78c-37 -156 -221 -332 -385 -332h-356l-131 -561h-97l283 1225h453zM662 666c119 0 237 102 266 229c4 18 6 37 6 55c0 100 -66 174 -166 174h-358l-105 -458h357z" />
    <glyph glyph-name="Q" unicode="Q" 
d="M608 59c-66 -37 -135 -57 -207 -57c-178 0 -297 133 -297 311c0 33 5 64 13 99l94 407c51 225 264 408 473 408c178 0 299 -134 299 -312c0 -31 -4 -61 -12 -96l-94 -407c-25 -106 -88 -205 -168 -279l73 -131h-143zM668 213c53 53 94 123 112 199l94 407
c6 27 11 49 11 74c0 133 -90 231 -223 231c-158 0 -316 -135 -355 -305l-94 -407c-6 -27 -10 -49 -10 -74c0 -133 90 -234 223 -234c47 0 94 12 139 35l-92 170h141z" />
    <glyph glyph-name="R" unicode="R" 
d="M152 2h-97l283 1225h453c143 0 241 -109 241 -254c0 -25 -2 -51 -8 -78c-29 -123 -150 -254 -279 -307c80 -66 127 -168 127 -291c0 -37 -6 -76 -14 -117l-43 -178h-92l39 178c6 33 12 61 12 92c0 168 -112 291 -280 291h-211zM768 1124h-358l-105 -458h357
c119 0 237 102 266 229c4 18 6 37 6 55c0 100 -66 174 -166 174z" />
    <glyph glyph-name="S" unicode="S" 
d="M219 870c66 281 254 357 463 357c178 0 311 -76 311 -254c0 -31 -4 -66 -12 -103h-94c6 27 8 51 8 74c0 131 -103 180 -238 180c-156 0 -293 -40 -340 -245l-2 -9c-2 -14 -4 -29 -4 -41c0 -102 111 -108 252 -112c137 -4 314 -45 314 -250c0 -31 -5 -68 -13 -107l-2 -8
c-68 -291 -256 -350 -463 -350c-170 0 -305 51 -305 254c0 45 7 95 21 156h96c-10 -43 -14 -80 -14 -113c0 -150 98 -195 227 -195c150 0 293 37 342 252c6 29 10 53 10 78c0 115 -73 178 -235 180c-207 2 -332 17 -332 164c0 27 2 57 10 92z" />
    <glyph glyph-name="T" unicode="T" 
d="M227 2l258 1122h-333l24 103h760l-25 -103h-331l-261 -1122h-92z" />
    <glyph glyph-name="U" unicode="U" 
d="M1024 1227l-188 -815c-51 -225 -267 -410 -476 -410c-178 0 -297 133 -297 311c0 33 5 64 13 99l188 815h96l-188 -815c-6 -27 -10 -49 -10 -74c0 -133 90 -234 223 -234c158 0 315 138 354 308l189 815h96z" />
    <glyph glyph-name="V" unicode="V" 
d="M164 1227h96l41 -1049l526 1049h97l-617 -1225h-92z" />
    <glyph glyph-name="W" unicode="W" 
d="M514 291l360 936h97l-473 -1225h-97l31 545l-219 -545h-94l92 1225h94l-72 -936l218 528h92z" />
    <glyph glyph-name="X" unicode="X" 
d="M498 614l-195 613h96l164 -525l408 525h96l-477 -613l192 -612h-94l-166 524l-403 -524h-96z" />
    <glyph glyph-name="Y" unicode="Y" 
d="M356 614l-192 613h96l162 -525l405 525h97l-473 -613l-144 -612h-92z" />
    <glyph glyph-name="Z" unicode="Z" 
d="M23 2l22 102l901 1020h-663l20 103h764l-25 -103l-901 -1020h666l-25 -102h-759z" />
    <glyph glyph-name="M" unicode="M" 
d="M303 1227h96l156 -561l416 561h96l-285 -1225h-94l234 1020l-344 -459h-93l-131 459l-235 -1020h-96z" />
    <glyph glyph-name="a" unicode="a" 
d="M631 674h-105c-115 0 -233 -103 -262 -230l-26 -114c-4 -18 -7 -38 -7 -56c0 -98 66 -172 164 -172h103c86 0 192 60 243 144l68 284c-12 84 -92 144 -178 144zM494 0h-142c-131 0 -219 101 -219 236c0 25 2 48 8 75l35 154c39 170 198 309 354 309h144
c74 0 133 -31 172 -84l18 84h90l-178 -774h-92l21 86c-63 -53 -137 -86 -211 -86z" />
    <glyph glyph-name="b" unicode="b" 
d="M592 676c-86 0 -195 -60 -246 -144l-65 -284c12 -84 92 -144 178 -144h102c117 0 235 101 264 228l27 114c4 18 4 38 4 56c0 98 -66 174 -164 174h-100zM416 2c-74 0 -131 33 -170 86l-21 -86h-92l283 1225h92l-125 -535c63 53 137 84 211 84h141c131 0 219 -98 219 -231
c0 -25 -2 -49 -8 -76l-35 -156c-39 -170 -198 -311 -354 -311h-141z" />
    <glyph glyph-name="c" unicode="c" 
d="M524 0h-141c-131 0 -219 101 -219 236c0 25 2 48 8 75l35 154c39 170 198 309 354 309h141c129 0 224 -100 224 -235v-9h-88c-12 84 -93 144 -179 144h-102c-115 0 -233 -103 -262 -230l-27 -114c-4 -18 -6 -38 -6 -56c0 -98 66 -172 164 -172h102c86 0 191 60 242 144
h88c-59 -139 -201 -246 -334 -246z" />
    <glyph glyph-name="d" unicode="d" 
d="M578 676h-103c-115 0 -235 -103 -264 -230l-27 -114c-4 -18 -6 -38 -6 -56c0 -98 66 -172 164 -172h102c86 0 193 60 244 144l68 284c-12 84 -92 144 -178 144zM442 2h-141c-131 0 -219 101 -219 236c0 25 0 48 6 75l37 156c39 170 198 307 354 307h142
c74 0 133 -31 172 -84l122 535h93l-283 -1225h-92l20 86c-63 -53 -137 -86 -211 -86z" />
    <glyph glyph-name="e" unicode="e" 
d="M836 532c-12 84 -93 142 -179 142h-102c-117 0 -233 -100 -262 -225l-2 -9h524zM700 774c133 0 228 -100 228 -235v-7l-45 -194h-617l-2 -10c-4 -18 -6 -40 -6 -56c0 -98 68 -170 166 -170h102c86 0 191 58 242 142h92c-59 -137 -203 -244 -338 -244h-141
c-131 0 -219 101 -219 236c0 25 2 48 8 75l35 154c39 170 198 309 354 309h141z" />
    <glyph glyph-name="f" unicode="f" 
d="M291 717l41 182c43 180 198 328 354 328h55c131 0 222 -107 222 -246v-10h-89c-10 90 -88 153 -174 153h-16c-115 0 -235 -108 -266 -243l-37 -164h391l-22 -103h-394l-141 -612h-90l141 612h-90l25 103h90z" />
    <glyph glyph-name="g" unicode="g" 
d="M680 674h-105c-115 0 -233 -103 -262 -230l-26 -114c-4 -18 -6 -38 -6 -56c0 -98 65 -172 163 -172h103c86 0 193 60 244 144l65 284c-12 84 -90 144 -176 144zM754 86c-63 -53 -137 -86 -211 -86h-142c-131 0 -219 101 -219 236c0 25 2 48 8 75l35 154
c39 170 199 309 355 309h143c74 0 133 -31 172 -84l18 84h91l-199 -866c-41 -174 -198 -316 -354 -316h-146c-131 0 -221 105 -221 244v12h90c10 -90 90 -153 176 -153h103c117 0 237 111 268 246z" />
    <glyph glyph-name="h" unicode="h" 
d="M840 2h-90l102 442c4 18 4 38 4 56c0 100 -66 176 -164 176h-100c-86 0 -195 -60 -246 -146l-121 -528h-92l283 1225h92l-125 -535c63 53 139 84 213 84h141c131 0 217 -98 217 -231c0 -25 -2 -49 -8 -76z" />
    <glyph glyph-name="i" unicode="i" 
d="M743 1280c43 0 74 -37 74 -80c0 -8 0 -15 -2 -23c-12 -55 -68 -102 -119 -102c-43 0 -74 37 -74 80c0 8 1 14 3 22c12 55 67 103 118 103zM807 0h-117c-131 0 -217 100 -217 233c0 25 2 49 8 76l86 365h-309l23 100h200h107c49 0 71 -10 71 -49c0 -14 -4 -31 -8 -51
l-78 -344c-4 -18 -6 -38 -6 -56c0 -100 68 -172 166 -172h96z" />
    <glyph glyph-name="j" unicode="j" 
d="M795 1288c43 0 74 -37 74 -80c0 -8 0 -15 -2 -23c-12 -55 -68 -102 -119 -102c-43 0 -74 37 -74 80c0 8 1 14 3 22c12 55 67 103 118 103zM1006 676h-265l-176 -768c-41 -172 -196 -314 -352 -314h-45c-39 0 -76 11 -109 27l27 113c33 -23 78 -37 123 -37h8
c117 0 233 108 264 237l195 842h352z" />
    <glyph glyph-name="k" unicode="k" 
d="M139 2l285 1225h92l-166 -715h197c70 0 274 151 311 305h90c-39 -164 -157 -268 -274 -354c119 -53 192 -180 192 -336c0 -41 -6 -82 -16 -125h-90c8 37 12 69 12 104c0 168 -96 306 -248 306h-198l-95 -410h-92z" />
    <glyph glyph-name="l" unicode="l" 
d="M336 1223h264l-186 -815c-6 -29 -11 -53 -11 -80c0 -129 78 -226 199 -226h176l-22 -102h-176c-162 0 -271 127 -271 301c0 35 7 70 15 107l163 712h-176z" />
    <glyph glyph-name="m" unicode="m" 
d="M528 0h-88l111 483c8 41 12 78 12 107c0 53 -16 84 -57 84h-2c-63 0 -144 -64 -162 -146l-123 -528h-92l180 774h90l-16 -84c14 18 57 84 147 84h2c63 0 105 -14 109 -100c84 100 110 100 182 100c92 0 140 -79 140 -192c0 -37 -7 -76 -15 -117l-108 -465h-90l102 442
c8 39 12 74 12 107c0 74 -20 125 -61 125h-2c-76 0 -140 -105 -160 -191z" />
    <glyph glyph-name="n" unicode="n" 
d="M840 0h-92l102 442c4 18 6 38 6 56c0 100 -66 176 -164 176h-100c-86 0 -195 -60 -246 -146l-123 -528h-90l178 774h92l-20 -84c63 53 139 84 213 84h141c131 0 217 -100 217 -233c0 -25 -2 -49 -8 -76z" />
    <glyph glyph-name="o" unicode="o" 
d="M662 674h-105c-115 0 -233 -103 -262 -230l-27 -114c-4 -18 -6 -38 -6 -56c0 -98 66 -172 164 -172h102c117 0 236 101 265 228l26 114c4 18 6 38 6 56c0 98 -65 174 -163 174zM705 774c131 0 219 -100 219 -233c0 -25 -3 -49 -9 -76l-36 -154
c-39 -170 -199 -311 -355 -311h-141c-131 0 -219 101 -219 236c0 25 2 48 8 75l37 154c39 170 196 309 352 309h144z" />
    <glyph glyph-name="p" unicode="p" 
d="M506 102h100c117 0 235 101 264 228l27 114c4 18 6 38 6 56c0 98 -66 174 -164 174h-102c-86 0 -193 -60 -244 -144l-65 -284c12 -84 92 -144 178 -144zM639 774h141c131 0 224 -100 224 -233c0 -25 -5 -49 -11 -76l-37 -154c-39 -170 -198 -311 -354 -311h-141
c-74 0 -131 33 -170 86l-115 -494h-90l272 1182h91l-19 -84c63 53 135 84 209 84z" />
    <glyph glyph-name="q" unicode="q" 
d="M498 102c86 0 192 60 243 144l68 284c-12 84 -92 144 -178 144h-105c-115 0 -233 -103 -262 -230l-26 -114c-4 -18 -7 -38 -7 -56c0 -98 66 -172 164 -172h103zM954 774l-272 -1182h-90l113 494c-63 -53 -137 -86 -211 -86h-142c-131 0 -219 101 -219 236c0 25 2 48 8 75
l35 154c39 170 198 309 354 309h144c74 0 133 -31 172 -84l18 84h90z" />
    <glyph glyph-name="r" unicode="r" 
d="M225 0h-90l178 774h93l-21 -84c63 53 139 84 213 84h139c129 0 215 -98 215 -231c0 -18 0 -40 -4 -60h-94c0 6 2 15 2 21c0 98 -68 170 -164 170h-100c-86 0 -195 -60 -246 -146z" />
    <glyph glyph-name="s" unicode="s" 
d="M223 532c45 201 201 242 338 242h144c121 0 235 -33 235 -170c0 -20 -4 -45 -10 -72h-103c2 14 4 27 4 39c0 102 -89 103 -169 103h-107c-86 0 -194 0 -225 -131c0 -2 -2 -4 -2 -6c0 -6 -2 -13 -2 -17c0 -78 145 -80 229 -80c68 0 192 -2 262 -49c31 -23 53 -53 53 -100
c0 -14 -2 -29 -6 -45c-45 -201 -201 -246 -338 -246h-143c-121 0 -236 35 -236 172c0 20 3 45 9 72h102c-2 -14 -4 -27 -4 -39c0 -102 90 -103 170 -103h106c86 0 197 5 228 134l2 4c0 4 2 12 2 16c0 80 -146 82 -232 82c-68 0 -192 0 -262 49c-31 23 -51 51 -51 98
c0 14 2 31 6 47z" />
    <glyph glyph-name="t" unicode="t" 
d="M334 676h-88l20 100h88l105 451h92l-105 -451h394l-25 -100h-391l-82 -344c-4 -18 -4 -38 -4 -56c0 -98 66 -172 164 -172h14c86 0 195 60 246 144h88c-61 -139 -205 -246 -338 -246h-55c-131 0 -217 101 -217 234c0 25 4 48 10 75z" />
    <glyph glyph-name="u" unicode="u" 
d="M250 774h90l-102 -442c-4 -18 -7 -38 -7 -56c0 -100 66 -174 164 -174h103c86 0 192 60 243 146l123 526h90l-178 -774h-92l21 86c-63 -53 -137 -86 -211 -86h-144c-131 0 -217 103 -217 236c0 25 2 48 8 75z" />
    <glyph glyph-name="v" unicode="v" 
d="M195 774h88l114 -629l410 629h88l-487 -774h-86z" />
    <glyph glyph-name="w" unicode="w" 
d="M217 774h88l-24 -602l208 266l84 -266l256 602h89l-312 -774h-86l-76 242l-186 -242h-88z" />
    <glyph glyph-name="x" unicode="x" 
d="M459 389l-176 385h133l139 -336l297 336h131l-352 -385l174 -389h-131l-142 340l-294 -340h-134z" />
    <glyph glyph-name="y" unicode="y" 
d="M299 774h90l-102 -442c-4 -18 -6 -38 -6 -56c0 -100 65 -174 163 -174h103c86 0 193 60 244 146l122 526h91l-199 -866c-41 -174 -198 -316 -354 -316h-146c-131 0 -221 105 -221 244v12h90c10 -90 90 -153 176 -153h103c117 0 237 111 268 246l33 145
c-63 -53 -137 -86 -211 -86h-144c-131 0 -217 103 -217 236c0 25 2 48 8 75z" />
    <glyph glyph-name="z" unicode="z" 
d="M129 102l700 572h-569l23 100h700l-22 -100l-701 -572h569l-24 -102h-701z" />
    <glyph glyph-name="zero" unicode="0" 
d="M971 817l-94 -405c-51 -225 -267 -410 -476 -410c-178 0 -297 133 -297 311c0 33 5 64 13 99l94 405c51 225 264 410 473 410c178 0 299 -134 299 -312c0 -31 -4 -63 -12 -98zM874 817c6 27 11 49 11 74c0 133 -90 233 -223 233c-158 0 -316 -137 -355 -307l-94 -405
c-6 -27 -10 -49 -10 -74c0 -133 90 -234 223 -234c158 0 315 138 354 308zM817 768l-24 -102l-523 -203l25 100z" />
    <glyph glyph-name="one" unicode="1" 
d="M164 104h428l223 969l-457 -135l23 100l565 189l-258 -1123h238l-25 -102h-760z" />
    <glyph glyph-name="two" unicode="2" 
d="M57 2c25 102 45 205 70 307c70 297 301 351 463 357s297 61 332 202l2 11c8 35 12 63 12 88c0 127 -97 157 -242 157c-158 0 -301 -80 -352 -307h-96c74 317 264 410 473 410c164 0 311 -56 311 -246c0 -33 -2 -70 -12 -113c-53 -236 -207 -301 -453 -305
c-195 -2 -305 -94 -342 -254l-49 -205h668l-25 -102h-760z" />
    <glyph glyph-name="three" unicode="3" 
d="M436 563l23 103h94c236 0 297 61 332 202l2 11c8 35 10 63 10 88c0 127 -95 157 -240 157c-158 0 -303 -80 -354 -307h-94c74 317 264 410 473 410c164 0 311 -56 311 -246c0 -33 -2 -70 -12 -113c-45 -201 -148 -225 -203 -254c35 -23 99 -46 99 -157
c0 -27 -7 -58 -15 -97c-66 -281 -272 -358 -465 -358c-172 0 -303 61 -303 262c0 43 9 93 21 148h96c-8 -39 -14 -74 -14 -105c0 -147 94 -203 225 -203c174 0 295 43 342 246l2 10c6 29 10 51 10 74c0 86 -55 129 -237 129h-103z" />
    <glyph glyph-name="four" unicode="4" 
d="M82 512l403 715h95l-344 -613h532l143 613h97l-285 -1225h-94l116 510h-663z" />
    <glyph glyph-name="five" unicode="5" 
d="M221 717l119 510h664l-23 -103h-569l-72 -307s18 2 90 2c37 0 79 -2 145 -2c225 0 306 -94 306 -256c0 -59 -13 -125 -29 -201c-66 -281 -272 -358 -465 -358c-172 0 -303 61 -303 262c0 43 8 93 20 148h97c-8 -39 -15 -74 -15 -105c0 -147 95 -203 226 -203
c174 0 295 43 342 246l2 10c12 57 20 109 20 152c0 135 -65 203 -221 205c-39 0 -72 2 -111 2z" />
    <glyph glyph-name="six" unicode="6" 
d="M485 2h-153c-141 0 -236 109 -236 250c0 25 2 51 8 78l113 487c51 225 266 410 475 410c178 0 299 -136 299 -314c0 -14 0 -29 -2 -45h-98c0 6 2 15 2 21c0 133 -92 235 -225 235c-158 0 -316 -137 -355 -307l-30 -139c66 55 147 90 227 90h154c141 0 235 -109 235 -250
c0 -25 0 -51 -6 -78l-27 -110c-43 -180 -213 -328 -381 -328zM618 666h-110c-127 0 -256 -109 -287 -244l-14 -72c-4 -20 -8 -41 -8 -59c0 -106 74 -187 180 -187h108c127 0 256 111 287 246l19 72c4 20 6 39 6 57c0 106 -75 187 -181 187z" />
    <glyph glyph-name="seven" unicode="7" 
d="M266 1124l-37 -153h-96l62 256h759l-24 -103l-312 -510h101l-25 -102h-137l-311 -510h-96l313 510h-101l23 102h139l312 510h-570z" />
    <glyph glyph-name="eight" unicode="8" 
d="M338 633c-35 39 -53 90 -53 151c0 23 2 49 8 74l16 74c39 164 190 295 344 295h113c129 0 215 -94 215 -223c0 -23 0 -47 -6 -72l-19 -74c-20 -90 -75 -172 -149 -225c59 -39 92 -107 92 -191c0 -23 0 -46 -6 -71l-16 -72c-39 -164 -193 -297 -347 -297h-208
c-129 0 -216 96 -216 225c0 23 3 47 9 72l16 72c27 113 109 213 207 262zM649 563h-186c-104 0 -213 -92 -240 -205l-10 -49c-4 -16 -6 -33 -6 -49c0 -88 61 -156 149 -156h189c104 0 210 92 237 205l13 49c4 16 6 34 6 50c0 88 -64 155 -152 155zM731 1124h-92
c-104 0 -211 -91 -238 -204l-12 -50c-4 -16 -4 -33 -4 -49c0 -88 62 -155 150 -155h92c104 0 210 91 237 204l13 50c4 16 6 33 6 49c0 88 -64 155 -152 155z" />
    <glyph glyph-name="nine" unicode="9" 
d="M600 1227h156c141 0 237 -107 237 -248c0 -25 -4 -53 -10 -80l-113 -487c-51 -225 -266 -410 -475 -410c-178 0 -301 133 -301 311c0 14 0 31 2 47h101v-22c0 -133 90 -234 223 -234c158 0 315 138 354 308l47 202c-66 -55 -149 -102 -229 -102h-156
c-170 0 -241 90 -241 217c0 31 4 65 12 100l24 111c31 135 201 287 369 287zM481 614h113c127 0 249 101 280 236l19 70c2 10 4 24 4 34c0 86 -75 170 -186 170h-113c-127 0 -251 -104 -274 -204l-17 -70c-6 -29 -10 -53 -10 -78c0 -94 51 -158 184 -158z" />
    <glyph glyph-name="colon" unicode=":" 
d="M381 207c43 0 74 -37 74 -80c0 -8 -2 -15 -4 -23c-12 -55 -66 -102 -117 -102c-43 0 -76 37 -76 80c0 8 0 14 2 22c12 55 70 103 121 103zM498 717c43 0 73 -35 73 -78c0 -8 0 -17 -2 -25c-12 -55 -67 -102 -118 -102c-43 0 -74 37 -74 80c0 8 0 14 2 22
c12 55 68 103 119 103z" />
    <glyph glyph-name="semicolon" unicode=";" 
d="M340 4c-33 8 -53 39 -53 76c0 8 2 16 4 24c12 55 65 103 116 103c43 0 74 -37 74 -80c0 -8 -2 -15 -4 -23l-10 -51c-33 -141 -223 -151 -223 -151s0 4 12 51c27 0 59 24 84 51zM524 717c43 0 76 -35 76 -78c0 -8 -2 -17 -4 -25c-12 -55 -68 -102 -119 -102
c-43 0 -74 35 -74 78c0 8 2 16 4 24c12 55 66 103 117 103z" />
    <glyph glyph-name="less" unicode="&#x3c;" 
d="M133 459l844 356l-25 -100l-721 -305l580 -308l-23 -102l-677 358z" />
    <glyph glyph-name="equal" unicode="=" 
d="M879 307l-25 -102h-760l23 102h762zM993 815l-20 -100h-762l22 100h760z" />
    <glyph glyph-name="greater" unicode="&#x3e;" 
d="M979 459l-25 -101l-843 -358l22 102l725 308l-582 305l23 100z" />
    <glyph glyph-name="question" unicode="?" 
d="M420 156l-35 -154h-92l35 154h92zM254 868h-96c57 246 254 359 463 359c166 0 309 -80 309 -262c0 -31 -4 -62 -12 -97c-25 -106 -98 -254 -248 -254c-102 0 -175 -132 -191 -202l-35 -154h-92c12 51 21 103 33 154c37 162 162 305 309 305c86 0 115 96 129 157
c4 20 8 42 8 60c0 115 -85 190 -235 190c-158 0 -307 -104 -342 -256z" />
    <glyph glyph-name="period" unicode="." 
d="M418 207c43 0 74 -37 74 -80c0 -8 0 -15 -2 -23c-12 -55 -68 -102 -119 -102c-43 0 -74 37 -74 80c0 8 1 14 3 22c12 55 67 103 118 103z" />
    <glyph glyph-name="comma" unicode="," 
d="M377 4c-33 8 -51 39 -51 76c0 8 0 16 2 24c12 55 68 103 119 103c43 0 74 -37 74 -80c0 -8 -3 -15 -5 -23l-10 -51c-33 -141 -223 -151 -223 -151s-2 4 10 51c27 0 59 24 84 51z" />
    <glyph glyph-name="hyphen" unicode="-" 
d="M152 414l24 102h760l-23 -102h-761z" />
    <glyph glyph-name="asterisk" unicode="*" 
d="M518 1307l74 319h92l-74 -319l295 159l29 -88l-295 -159l221 -160l-67 -88l-224 159l-73 -319h-93l72 319l-295 -159l-26 88l297 160l-224 159l68 88z" />
    <glyph glyph-name="parenright" unicode=")" 
d="M416 1227h98c264 0 442 -197 442 -461c0 -47 -6 -97 -18 -148v-6c-78 -336 -396 -608 -707 -608h-100l25 102h98c260 0 522 225 588 506l2 6c10 43 14 84 14 123c0 221 -150 383 -371 383h-96z" />
    <glyph glyph-name="parenleft" unicode="(" 
d="M956 1227l-24 -103h-98c-260 0 -522 -225 -588 -506l-2 -6c-10 -43 -15 -84 -15 -123c0 -221 150 -383 371 -383h96l-24 -102h-99c-264 0 -442 197 -442 461c0 47 7 96 19 147v6c78 336 395 609 706 609h100z" />
    <glyph glyph-name="quotesingle" unicode="'" 
d="M451 1219l94 407h92l-94 -407h-92z" />
    <glyph glyph-name="exclam" unicode="!" 
d="M473 104l-24 -102h-93l25 102h92zM731 1227l-211 -918h-94l213 918h92z" />
    <glyph glyph-name="quotedbl" unicode="&#x22;" 
d="M733 1626l-94 -407h-96l94 407h96zM545 1626l-94 -407h-97l95 407h96z" />
    <glyph glyph-name="numbersign" unicode="#" 
d="M471 922l121 305h90l-115 -305h191l116 305h95l-117 -305h143l-51 -103h-131l-158 -407h174l-49 -103h-166l-118 -307h-95l117 307h-186l-121 -307h-94l119 307h-144l49 103h131l158 407h-172l49 103h164zM524 819l-155 -407h192l156 407h-193z" />
    <glyph glyph-name="dollar" unicode="$" 
d="M365 666h399c80 0 133 -60 133 -140c0 -14 -2 -29 -4 -43l-35 -143c-23 -100 -121 -182 -213 -182h-160l-36 -154h-95l37 154h-162c-80 0 -135 61 -135 141c0 14 2 27 4 41l17 72h96l-12 -52c-2 -8 -2 -16 -2 -24c0 -43 30 -78 73 -78h381c51 0 105 47 117 102l25 103
c2 8 2 16 2 22c0 43 -31 78 -74 78h-397c-80 0 -136 62 -136 142c0 14 3 29 5 43l34 143c23 100 121 182 213 182h162l35 154h94l-37 -154h162c80 0 137 -59 137 -139c0 -14 -4 -29 -6 -43l-16 -72h-97l13 51c2 8 2 17 2 25c0 43 -31 78 -74 78h-381
c-51 0 -105 -48 -117 -103c-8 -35 -16 -67 -24 -102c-2 -8 -2 -15 -2 -23c0 -43 31 -79 74 -79z" />
    <glyph glyph-name="percent" unicode="%" 
d="M70 4h-47l12 51l983 1172h49l-12 -51zM674 463c100 0 168 -76 168 -176c0 -16 -2 -36 -6 -54c-29 -127 -150 -229 -269 -229c-100 0 -166 74 -166 172c0 18 5 37 9 57c29 127 145 230 264 230zM651 371c-72 0 -139 -62 -157 -138c-2 -12 -5 -24 -5 -34
c0 -59 40 -103 99 -103c72 0 144 61 162 137c2 12 4 23 4 33c0 59 -44 105 -103 105zM520 1227c100 0 166 -72 166 -172c0 -18 -4 -38 -8 -58c-29 -127 -145 -229 -264 -229c-100 0 -168 74 -168 174c0 16 2 37 6 55c29 127 149 230 268 230zM500 1135
c-72 0 -144 -62 -162 -138c-2 -10 -4 -22 -4 -32c0 -59 43 -105 102 -105c72 0 140 61 158 137c2 12 4 25 4 35c0 59 -39 103 -98 103z" />
    <glyph glyph-name="ampersand" unicode="&#x26;" 
d="M438 639c-45 76 -61 157 -61 233c0 35 2 68 8 99c0 2 2 8 2 10c23 98 100 244 340 246h4c172 0 234 -80 234 -180c0 -23 -3 -47 -9 -72c-53 -229 -399 -346 -399 -346s127 -299 174 -422c53 53 80 139 88 180c2 14 6 25 6 25l97 -2l-2 -4c-8 -33 -52 -201 -144 -283
c27 -49 49 -121 49 -121h-94s-14 49 -22 78c-63 -29 -150 -78 -263 -78c-254 0 -321 92 -321 209c0 33 4 65 12 98c16 74 64 139 146 217c90 86 155 113 155 113zM231 309c-4 -18 -8 -40 -8 -65c0 -66 39 -140 246 -140c70 0 121 9 172 48c-53 104 -164 411 -170 411
c-129 0 -236 -236 -240 -254zM709 1141c-150 0 -201 -70 -230 -170l-2 -15c-6 -25 -8 -48 -8 -77c0 -61 14 -130 51 -189c0 0 297 95 340 281c4 23 6 41 6 57c0 92 -71 113 -157 113z" />
    <glyph glyph-name="bracketleft" unicode="[" 
d="M993 1124h-569l-234 -1018h568l-25 -102h-663l284 1223h664z" />
    <glyph glyph-name="bracketright" unicode="]" 
d="M330 1124l24 103h664l-285 -1223h-663l24 102h570l233 1018h-567z" />
    <glyph glyph-name="asciicircum" unicode="^" 
d="M625 1626l252 -356h-97l-178 256l-297 -256h-92z" />
    <glyph glyph-name="underscore" unicode="_" 
d="M152 -104l24 102h760l-23 -102h-761z" />
    <glyph glyph-name="grave" unicode="`" 
d="M496 1219l2 407h92l2 -407h-96z" />
    <glyph glyph-name="braceleft" unicode="{" 
d="M928 1124h-49c-39 0 -330 -8 -400 -305c-43 -186 -155 -205 -184 -205c25 0 100 -9 100 -122c0 -23 -4 -49 -10 -80c-6 -33 -10 -59 -10 -86c0 -213 229 -220 264 -220h55l-24 -102h-47c-266 0 -342 181 -342 324c0 31 4 59 10 84c2 14 4 29 4 41
c0 104 -113 110 -113 110h-47l23 103h49s145 10 178 153s196 408 518 408h49z" />
    <glyph glyph-name="bar" unicode="|" 
d="M356 4l283 1223h92l-282 -1223h-93z" />
    <glyph glyph-name="braceright" unicode="}" 
d="M393 1124l25 103h49c266 0 342 -181 342 -324c0 -31 -4 -59 -10 -84c-2 -14 -4 -29 -4 -41c0 -104 110 -112 110 -112h47l-22 -103h-47s-145 -8 -178 -151s-199 -408 -521 -408h-49l25 102h53c39 0 325 9 395 306c43 186 156 202 185 202c-25 0 -101 12 -101 125
c0 23 4 49 10 80c6 33 13 59 13 84c0 213 -234 221 -269 221h-53z" />
    <glyph glyph-name="asciitilde" unicode="~" 
d="M498 588c2 10 4 20 4 30c0 55 -39 97 -94 97c-66 0 -132 -57 -148 -127h-96c29 127 149 227 268 227c100 0 166 -74 166 -172c0 -18 -4 -37 -8 -55c-2 -10 -4 -21 -4 -31c0 -55 37 -98 92 -98c66 0 133 59 149 129h97c-29 -127 -152 -232 -271 -232
c-100 0 -164 74 -164 174c0 18 5 38 9 58z" />
    <glyph glyph-name="at" unicode="@" 
d="M600 627c-137 0 -274 -122 -307 -269c-4 -23 -4 -43 -4 -63c0 -117 75 -207 192 -207c137 0 281 119 314 266c4 23 6 46 6 64c0 119 -82 209 -201 209zM485 -197h-6h-2c-20 -2 -41 -4 -61 -4c-246 0 -408 176 -408 422c0 43 9 86 19 133c70 307 360 553 645 553
c242 0 405 -180 405 -424c0 -43 -4 -80 -14 -125c-25 -102 -121 -366 -260 -366c-25 0 -48 3 -68 28c-4 6 -8 19 -8 33s6 33 8 47l6 31l-22 -18c-76 -66 -170 -107 -260 -107c-150 0 -250 110 -250 262c0 27 4 57 10 86c45 195 228 355 406 355c92 0 163 -40 206 -103
l15 -18l6 22l8 29h4l64 2l-2 -8l-119 -541l-2 -4l2 -2c2 -6 6 -8 10 -8c43 0 160 243 166 276c10 39 14 76 14 113c0 215 -135 362 -348 362c-246 0 -490 -211 -549 -471c-10 -41 -12 -77 -12 -114c0 -203 135 -363 342 -363c20 0 43 4 66 6h8v-8z" />
    <glyph glyph-name="space" unicode=" " 
 />
    <glyph glyph-name="plus" unicode="+" 
d="M176 569h334l82 357h94l-84 -357h334l-23 -100h-333l-82 -358h-95l82 358h-333z" />
    <glyph glyph-name="slash" unicode="/" 
d="M25 6l944 1221h96l-944 -1221h-96z" />
    <glyph glyph-name="backslash" unicode="\" 
d="M782 6h-96l-381 1221h96z" />
    <glyph glyph-name="exclamdown" unicode="&#xa1;" 
d="M709 1124h-95l25 103h92zM449 2h-93l211 918h95z" />
    <glyph glyph-name="cent" unicode="&#xa2;" 
d="M754 768c86 -25 143 -101 147 -197h-113c-18 61 -67 103 -139 103h-92c-104 0 -211 -92 -238 -205l-24 -100c-4 -16 -6 -34 -6 -50c0 -88 61 -155 149 -155h92c72 0 142 41 189 102h110c-59 -119 -182 -205 -303 -205h-100l-23 -51h-94l27 60c-90 27 -150 107 -150 209
c0 23 5 42 9 67l34 143c37 158 185 285 332 285h101l22 51h96z" />
    <glyph glyph-name="sterling" unicode="&#xa3;" 
d="M721 1227c176 0 309 -129 309 -305h-102c-12 119 -107 202 -232 202c-156 0 -329 -199 -354 -305c0 -2 -2 -8 -2 -10c0 -35 41 -76 41 -162c0 -10 -2 -21 -2 -33h104l-20 -102h-98c-2 -16 -7 -33 -11 -49c-31 -133 -83 -255 -110 -316h26c33 0 68 -4 105 -12
c106 -25 164 -35 207 -35s69 10 104 35c55 39 68 74 68 74h112s-88 -125 -182 -168c-53 -25 -115 -37 -170 -37s-108 11 -149 25c-33 10 -62 16 -103 16c-57 0 -123 -12 -205 -41l25 102s22 13 61 23c23 43 74 147 113 315c0 6 4 13 4 19c4 18 4 33 8 49h-94l25 102h86v17
c0 106 -41 121 -41 168c0 6 0 14 2 22c51 223 268 406 475 406z" />
    <glyph glyph-name="currency" unicode="&#xa4;" 
d="M395 725c49 33 109 49 164 49h135c55 0 102 -16 137 -49l119 100l51 -71l-118 -101c12 -27 16 -57 16 -92c0 -25 0 -47 -6 -72l-35 -143c-14 -59 -43 -117 -84 -162l72 -100l-84 -74l-72 103c-49 -33 -107 -52 -162 -52h-133c-55 0 -106 19 -139 52l-121 -103l-49 74
l119 100c-12 27 -19 57 -19 92c0 23 3 47 9 70l32 143c14 59 45 119 86 164l-73 101l84 71zM649 674h-94c-104 0 -211 -92 -238 -205l-20 -100c-4 -16 -6 -34 -6 -50c0 -88 59 -155 147 -155h94h3c104 0 208 92 235 205l23 100c4 16 6 33 6 49c0 88 -62 156 -150 156z" />
    <glyph glyph-name="yen" unicode="&#xa5;" 
d="M414 614l-193 613h96l162 -525l408 525h94l-473 -613h237l-71 -102h-191l-22 -100h237l-69 -103h-193l-69 -307h-93l70 307h-238l72 103h191l20 100h-237l71 102h191z" />
    <glyph glyph-name="brokenbar" unicode="&#xa6;" 
d="M555 463l-106 -461h-93l107 461h92zM614 717h-94l119 510h92z" />
    <glyph glyph-name="section" unicode="&#xa7;" 
d="M430 862c-25 25 -37 57 -37 90c0 10 2 21 4 31c8 35 27 69 62 100l78 70c51 47 120 74 188 74c43 0 80 -11 113 -31l108 -72l-84 -77l-92 61c-18 10 -38 16 -61 16c-39 0 -76 -14 -105 -41l-45 -39c-18 -16 -29 -39 -33 -57c0 -6 -2 -12 -2 -18c0 -25 10 -46 33 -60
l330 -217c35 -25 59 -65 59 -112c0 -10 0 -21 -2 -31c-8 -33 -26 -63 -61 -96l-78 -70c-35 -31 -74 -52 -117 -64c4 -14 6 -29 6 -43c0 -8 -2 -18 -4 -28c-8 -35 -24 -70 -59 -101l-78 -69c-51 -47 -123 -74 -191 -74c-43 0 -81 11 -114 31l-107 71l84 78l92 -59
c18 -10 41 -19 64 -19c39 0 75 14 104 41l43 39c18 16 31 38 35 56c0 6 2 12 2 18c0 23 -10 45 -33 59l-272 179c-41 27 -59 65 -59 108c0 10 2 23 4 33c8 35 24 67 59 98l80 72c27 25 53 41 86 53zM784 627l-209 135c-18 12 -38 16 -61 16c-37 0 -77 -12 -106 -39l-41 -41
c-18 -16 -31 -37 -35 -55c0 -6 -2 -12 -2 -18c0 -25 12 -46 35 -60l204 -137c18 -10 43 -16 66 -16c39 0 75 14 104 41l43 39c18 16 27 39 31 57c0 6 2 12 2 18c0 25 -8 46 -31 60z" />
    <glyph glyph-name="dieresis" unicode="&#xa8;" 
d="M397 1626c35 0 56 -24 56 -57c0 -6 0 -13 -2 -19c-10 -43 -48 -75 -89 -75c-35 0 -57 24 -57 57c0 6 2 12 2 18c10 43 49 76 90 76zM727 1626c35 0 55 -24 55 -57c0 -6 0 -13 -2 -19c-10 -43 -47 -75 -88 -75c-35 0 -55 24 -55 57c0 6 0 12 2 18c10 43 47 76 88 76z" />
    <glyph glyph-name="copyright" unicode="&#xa9;" 
d="M639 1626c178 0 297 -131 297 -309c0 -31 -4 -63 -12 -98c-51 -225 -264 -408 -473 -408c-178 0 -299 131 -299 309c0 33 4 64 12 99c51 225 266 407 475 407zM627 1575c-182 0 -369 -159 -414 -356c-6 -31 -10 -57 -10 -86c0 -156 104 -271 260 -271
c182 0 369 160 414 357c6 29 10 59 10 86c0 156 -104 270 -260 270zM670 1038c-51 -45 -121 -73 -187 -73c-111 0 -184 79 -184 190c0 20 4 41 8 64c33 141 164 256 295 256c66 0 119 -31 150 -76l-39 -35c-27 37 -72 59 -123 59c-104 0 -209 -91 -236 -204
c-4 -16 -6 -34 -6 -50c0 -88 60 -153 148 -153c51 0 106 22 149 59z" />
    <glyph glyph-name="ordfeminine" unicode="&#xaa;" 
d="M586.709 1533.89h-52.3682c-57.3555 0 -116.208 -48.8857 -130.672 -109.163l-12.9668 -54.1064c-1.99512 -8.54297 -3.49121 -18.0352 -3.49121 -26.5781c0 -46.5127 32.917 -81.6348 81.7939 -81.6348h51.3711c42.8926 0 95.7598 28.4775 121.195 68.3447
l33.915 134.792c-5.98535 39.8682 -45.8848 68.3457 -88.7773 68.3457zM518.381 1214h-70.8223c-65.3359 0 -109.226 47.9365 -109.226 112.01c0 11.8662 0.998047 22.7822 3.99023 35.5967l17.4561 73.0918c19.4512 80.6846 98.752 146.657 176.557 146.657h71.8193
c36.9072 0 66.334 -14.7139 85.7852 -39.8682l8.97656 39.8682h44.8877l-88.7773 -367.355h-45.8848l10.4736 40.8174c-31.4209 -25.1553 -68.3281 -40.8174 -105.235 -40.8174z" />
    <glyph glyph-name="guillemotleft" unicode="&#xab;" 
d="M188 455l441 186l-17 -72c-117 -49 -227 -96 -344 -145c94 -49 183 -99 277 -148l-17 -71l-356 186l2 6c4 18 10 40 14 58zM475 455l440 186c-4 -23 -10 -43 -14 -66l-2 -6c-117 -49 -229 -96 -346 -145c94 -49 184 -99 278 -148l-16 -71l-356 186z" />
    <glyph glyph-name="uni00AD" unicode="&#xad;" 
d="M152 414l24 102h760l-23 -102h-761z" />
    <glyph glyph-name="registered" unicode="&#xae;" 
d="M639 1626c178 0 297 -131 297 -309c0 -31 -4 -63 -12 -98c-51 -225 -264 -408 -473 -408c-178 0 -299 131 -299 309c0 33 4 64 12 99c51 225 266 407 475 407zM627 1575c-182 0 -369 -159 -414 -356c-6 -31 -10 -57 -10 -86c0 -156 104 -271 260 -271
c182 0 369 160 414 357c6 29 10 59 10 86c0 156 -104 270 -260 270zM391 965h-47l119 510h235c43 0 74 -35 74 -80c0 -8 0 -15 -2 -23l-12 -51c-12 -55 -68 -102 -119 -102h-43l80 -254h-55l-76 254h-94zM463 1270h176c33 0 66 26 74 61l8 31c0 6 2 12 2 16
c0 27 -18 45 -47 45h-178z" />
    <glyph glyph-name="degree" unicode="&#xb0;" 
d="M592 1636c94 0 158 -69 158 -163c0 -16 -3 -34 -7 -52c-27 -119 -138 -213 -249 -213c-94 0 -154 68 -154 160c0 16 0 35 4 53c27 119 137 215 248 215zM575 1565c-74 0 -145 -64 -163 -144c-2 -12 -4 -27 -4 -37c0 -61 41 -104 102 -104c74 0 148 61 166 141
c2 12 4 25 4 35c0 63 -42 109 -105 109z" />
    <glyph glyph-name="macron" unicode="&#xaf;" 
d="M152 1524l24 102h760l-23 -102h-761z" />
    <glyph glyph-name="plusminus" unicode="&#xb1;" 
d="M877 256l-23 -102h-762l23 102h762zM662 766h333l-24 -102h-334l-84 -359h-92l82 359h-332l22 102h334l82 354h94z" />
    <glyph glyph-name="uni00B2" unicode="&#xb2;" 
d="M396.286 1210.61c7.58105 31.3008 13.6465 62.9072 21.2275 94.207c21.2285 91.1377 91.2803 107.709 140.408 109.55s90.0684 18.7188 100.682 61.9863l0.606445 3.375c2.42676 10.7402 3.63965 19.333 3.63965 27.0039c0 38.9717 -29.416 48.1777 -73.3887 48.1777
c-47.915 0 -91.2803 -24.5488 -106.747 -94.207h-29.1123c22.4414 97.2754 80.0596 125.813 143.441 125.813c49.7334 0 94.3125 -17.1846 94.3125 -75.4883c0 -10.126 -0.606445 -21.4795 -3.63867 -34.6748c-16.0732 -72.4199 -62.7744 -92.3652 -137.376 -93.5928
c-59.1357 -0.614258 -92.4941 -28.8457 -103.714 -77.9434l-14.8604 -62.9062h202.576l-7.58105 -31.3008h-230.476z" />
    <glyph glyph-name="uni00B3" unicode="&#xb3;" 
d="M505.704 1388.54l7.89746 35.2246h32.2754c81.0322 0 101.978 20.8613 113.995 69.0811l0.686523 3.76172c2.74707 11.9697 3.43359 21.5449 3.43359 30.0947c0 43.4326 -32.6191 53.6924 -82.4062 53.6924c-54.25 0 -104.037 -27.3594 -121.549 -104.99h-32.2754
c25.4082 108.41 90.6465 140.215 162.408 140.215c56.3105 0 106.784 -19.1514 106.784 -84.1289c0 -11.2852 -0.686523 -23.9395 -4.12012 -38.6445c-15.4512 -68.7393 -50.8164 -76.9463 -69.7012 -86.8643c12.0176 -7.86621 33.9922 -15.7314 33.9922 -53.6914
c0 -9.23438 -2.40332 -19.8359 -5.15039 -33.1729c-22.6621 -96.0986 -93.3936 -122.432 -159.661 -122.432c-59.0576 0 -104.038 20.8613 -104.038 89.6006c0 14.7051 3.09082 31.8047 7.21094 50.6143h32.9619c-2.74609 -13.3379 -4.80664 -25.3076 -4.80664 -35.9092
c0 -50.2715 32.2754 -69.4229 77.2559 -69.4229c59.7441 0 101.29 14.7051 117.428 84.1289l0.6875 3.41992c2.05957 9.91699 3.43359 17.4414 3.43359 25.3066c0 29.4111 -18.8848 44.1162 -81.376 44.1162h-35.3662z" />
    <glyph glyph-name="acute" unicode="&#xb4;" 
d="M496 1219h-93l187 407h94z" />
    <glyph glyph-name="mu" unicode="&#xb5;" 
d="M420 774l-123 -526c12 -86 90 -146 176 -146h105c117 0 235 103 264 230l100 442h90l-178 -774h-90l20 90c-61 -55 -137 -90 -211 -90h-143c-74 0 -133 33 -172 86l-113 -494h-90l273 1182h92z" />
    <glyph glyph-name="paragraph" unicode="&#xb6;" 
d="M860 1227c23 0 37 -14 37 -37v-14c-6 -29 -34 -52 -61 -52h-48l-258 -1120h-94l258 1120h-143l-258 -1120h-92l186 815h-49c-88 0 -148 68 -148 156c0 16 3 33 7 49c27 113 133 203 237 203h426z" />
    <glyph glyph-name="periodcentered" unicode="&#xb7;" 
d="M565 207c43 0 74 -37 74 -80c0 -8 2 -15 0 -23c-12 -55 -68 -102 -119 -102c-43 0 -71 35 -71 78c0 8 0 16 2 24c12 55 63 103 114 103z" />
    <glyph glyph-name="cedilla" unicode="&#xb8;" 
d="M555 -70l37 64h57l-37 -64v-4c27 -8 43 -34 43 -65c0 -6 0 -15 -2 -21l-10 -43c-10 -49 -61 -90 -106 -90h-39c-39 0 -66 31 -66 70c0 6 0 14 2 20l8 37h64c0 -2 -4 -2 -4 -4l-4 -20c-4 -20 6 -39 24 -39h19c18 0 41 19 45 39l6 20c4 20 -11 37 -29 37h-16h-6z" />
    <glyph glyph-name="uni00B9" unicode="&#xb9;" 
d="M411.008 1228.61h148.778l77.5166 322.46l-158.858 -44.9248l7.99512 33.2783l196.4 62.8945l-89.6836 -373.708h82.7314l-8.69043 -33.9424h-264.185z" />
    <glyph glyph-name="ordmasculine" unicode="&#xba;" 
d="M602.171 1558.68h-52.3691c-57.3555 0 -116.208 -49.7695 -130.672 -111.136l-13.4658 -55.085c-1.99512 -8.69727 -2.99219 -18.3613 -2.99219 -27.0586c0 -47.3535 32.917 -83.1104 81.7939 -83.1104h50.873c58.3525 0 117.704 48.8027 132.168 110.169l12.9668 55.085
c1.99512 8.69727 2.99219 18.3613 2.99219 27.0586c0 47.3535 -32.418 84.0771 -81.2949 84.0771zM623.616 1607c65.3359 0 109.226 -48.3193 109.226 -112.585c0 -12.0801 -1.49609 -23.6768 -4.48828 -36.7227l-17.9551 -74.4131
c-19.4512 -82.1436 -99.25 -150.274 -177.055 -150.274h-70.3232c-65.3359 0 -109.226 48.8027 -109.226 114.035c0 12.0791 0.99707 23.1934 3.98926 36.2393l18.4541 74.4131c19.4512 82.1436 97.7539 149.308 175.559 149.308h71.8193z" />
    <glyph glyph-name="guillemotright" unicode="&#xbb;" 
d="M915 455l-14 -64l-442 -186l18 71c117 49 227 99 344 148c-94 49 -184 96 -278 145l18 72zM629 455l-15 -64l-442 -186l4 14c4 18 8 39 12 57c117 49 232 99 349 148c-94 49 -187 96 -281 145l18 72z" />
    <glyph glyph-name="onequarter" unicode="&#xbc;" 
d="M72 -2h-58c334 412 666 821 1000 1233h59c-334 -412 -667 -821 -1001 -1233zM786 -2h-53c16 74 37 149 53 223h-294l182 322h51c-51 -88 -99 -179 -150 -267h224c20 88 41 179 61 267h51zM518 686h-344l14 55h187l94 412c-68 -20 -133 -39 -201 -59l15 55l258 84
c-39 -164 -76 -328 -115 -492h104z" />
    <glyph glyph-name="onehalf" unicode="&#xbd;" 
d="M575 354h-51l2 6c33 141 121 183 213 183c72 0 142 -25 142 -111c0 -14 -3 -31 -7 -49c-25 -106 -95 -137 -204 -139c-82 0 -128 -39 -144 -107l-20 -84h293l-13 -55h-344c10 45 21 94 31 139c31 133 137 160 211 162c72 2 125 27 137 84c0 2 2 2 2 4c2 14 4 27 4 37
c0 51 -37 65 -100 65c-68 0 -126 -33 -149 -129zM72 -2h-58c334 412 666 821 1000 1233h59c-334 -412 -667 -821 -1001 -1233zM426 741h104l-12 -55h-344l14 55h187l94 412c-68 -20 -133 -39 -201 -59l15 55l258 84c-39 -164 -76 -328 -115 -492z" />
    <glyph glyph-name="threequarters" unicode="&#xbe;" 
d="M74 -2h-60c334 412 666 821 1000 1233h59c-334 -412 -665 -821 -999 -1233zM786 -2h-53c16 74 37 149 53 223h-292l182 322h49c-51 -88 -99 -179 -150 -267h224c20 88 41 179 61 267h51zM360 741c76 0 124 17 142 101c0 2 2 4 2 6c2 12 6 23 6 33c0 35 -22 51 -100 51h-7
h-45l13 53h45c102 0 125 25 139 84v6c2 14 6 27 6 37c0 53 -37 66 -100 66c-68 0 -129 -33 -152 -129l-2 -7h-49l2 7c33 141 119 182 211 182c72 0 141 -27 141 -113c0 -14 -2 -31 -6 -49c-18 -80 -53 -101 -80 -111c16 -8 35 -22 35 -63c0 -12 -2 -29 -6 -47
c-29 -127 -125 -162 -209 -162c-78 0 -135 31 -135 119c0 18 2 40 8 65v4h51v-4c-4 -16 -6 -33 -6 -45c0 -61 41 -84 96 -84z" />
    <glyph glyph-name="questiondown" unicode="&#xbf;" 
d="M668 1073l37 154h92l-35 -154h-94zM834 360h96c-57 -246 -254 -358 -463 -358c-166 0 -309 78 -309 260c0 31 4 63 12 98c25 106 100 254 250 254c102 0 174 133 190 203l33 154h94s-35 -152 -35 -154c-37 -162 -160 -305 -307 -305c-84 0 -115 -93 -129 -152
c0 -2 -2 -4 -2 -6c-4 -20 -6 -41 -6 -59c0 -113 81 -191 231 -191c158 0 310 104 345 256z" />
    <glyph glyph-name="Agrave" unicode="&#xc0;" 
d="M895.076 1534l2 407h92l2 -407h-96zM924 2h-95l-22 510h-291l-256 -510h-96l616 1225h92zM565 614h238l-17 439z" />
    <glyph glyph-name="germandbls" unicode="&#xdf;" 
d="M385 952c33 145 164 265 291 265h115c106 0 176 -84 176 -197c0 -20 -5 -45 -9 -68l-30 -131c-14 -63 -47 -123 -92 -168c84 -20 135 -96 135 -192c0 -20 -4 -43 -8 -66l-31 -133c-33 -145 -166 -262 -295 -262h-295l25 100h276c88 0 180 85 203 185l22 90
c4 16 4 31 4 45c0 78 -50 137 -124 137h-279l25 102h149c86 0 176 83 199 183l22 92c4 16 4 33 4 47c0 78 -48 135 -120 135h-78c-86 0 -176 -82 -199 -182l-260 -1137h-92z" />
    <glyph glyph-name="ae" unicode="&#xe6;" 
d="M340 0h-80c-76 0 -125 57 -125 133c0 12 2 27 4 41l101 426c23 94 114 174 200 174h78c43 0 80 -20 100 -55c37 35 87 55 130 55h79c74 0 125 -57 125 -133c0 -12 -4 -27 -6 -41l-59 -262h-309l-33 -141c-2 -6 -4 -17 -4 -23c0 -41 28 -72 69 -72h45c47 0 97 44 109 95
l10 47h90l-14 -70c-23 -94 -115 -174 -201 -174h-80c-25 0 -47 8 -65 20l-4 -20h-88l4 20c-25 -12 -51 -20 -76 -20zM477 674h-45c-47 0 -94 -45 -106 -96l-88 -379c-2 -8 -5 -17 -5 -23c0 -41 27 -74 68 -74h43c47 0 99 46 111 97c29 127 59 252 88 379c2 6 4 16 4 22
c0 41 -29 74 -70 74zM786 674h-43c-47 0 -98 -43 -110 -94l-33 -140h219l33 140c2 8 2 14 2 20c0 41 -27 74 -68 74z" />
    <glyph glyph-name="oslash" unicode="&#xf8;" 
d="M203 106c-25 37 -37 83 -37 134c0 25 2 48 8 75l35 152c39 170 198 307 354 307h142c43 0 83 -10 114 -33l33 33h135l-100 -102c23 -37 37 -86 37 -137c0 -25 -3 -49 -9 -74l-36 -152c-39 -170 -199 -309 -355 -309h-141c-43 0 -84 12 -115 35l-30 -35h-138zM805 590
l-457 -467c23 -10 47 -21 78 -21h102c117 0 236 101 265 228l26 114c4 18 6 40 6 58c0 33 -6 61 -20 88zM662 674h-103c-115 0 -235 -103 -264 -230l-27 -114c-4 -18 -6 -40 -6 -56c0 -33 7 -59 21 -86l456 467c-23 10 -46 19 -77 19z" />
    <glyph glyph-name="divide" unicode="&#xf7;" 
d="M428 213h92l-22 -102h-95zM936 569l-23 -100h-761l24 100h760zM662 823h-95l25 103h94z" />
    <glyph glyph-name="multiply" unicode="&#xd7;" 
d="M903 743l-291 -251l176 -252l-83 -72l-179 252l-293 -252l-49 72l291 252l-176 251l86 74l174 -254l295 254z" />
    <glyph glyph-name="Aacute" unicode="&#xc1;" 
d="M896.576 1534h-93l187 407h94zM924 2h-95l-22 510h-291l-256 -510h-96l616 1225h92zM565 614h238l-17 439z" />
    <glyph glyph-name="Acircumflex" unicode="&#xc2;" 
d="M977.191 1890l252 -356h-97l-178 256l-297 -256h-92zM924 2h-95l-22 510h-291l-256 -510h-96l616 1225h92zM565 614h238l-17 439z" />
    <glyph glyph-name="Atilde" unicode="&#xc3;" 
d="M904.642 1766c2 10 4 20 4 30c0 55 -39 97 -94 97c-66 0 -132 -57 -148 -127h-96c29 127 149 227 268 227c100 0 166 -74 166 -172c0 -18 -4 -37 -8 -55c-2 -10 -4 -21 -4 -31c0 -55 37 -98 92 -98c66 0 133 59 149 129h97c-29 -127 -152 -232 -271 -232
c-100 0 -164 74 -164 174c0 18 5 38 9 58zM924 2h-95l-22 510h-291l-256 -510h-96l616 1225h92zM565 614h238l-17 439z" />
    <glyph glyph-name="Adieresis" unicode="&#xc4;" 
d="M767.971 1685c35 0 56 -24 56 -57c0 -6 0 -13 -2 -19c-10 -43 -48 -75 -89 -75c-35 0 -57 24 -57 57c0 6 2 12 2 18c10 43 49 76 90 76zM1097.97 1685c35 0 55 -24 55 -57c0 -6 0 -13 -2 -19c-10 -43 -47 -75 -88 -75c-35 0 -55 24 -55 57c0 6 0 12 2 18
c10 43 47 76 88 76zM924 2h-95l-22 510h-291l-256 -510h-96l616 1225h92zM565 614h238l-17 439z" />
    <glyph glyph-name="Aring" unicode="&#xc5;" 
d="M889 1820c94 0 158 -69 158 -163c0 -16 -3 -34 -7 -52c-27 -119 -138 -213 -249 -213c-94 0 -154 68 -154 160c0 16 0 35 4 53c27 119 137 215 248 215zM872 1749c-74 0 -145 -64 -163 -144c-2 -12 -4 -27 -4 -37c0 -61 41 -104 102 -104c74 0 148 61 166 141
c2 12 4 25 4 35c0 63 -42 109 -105 109zM879 2h-95l-22 510h-291l-256 -510h-96l616 1225h92zM520 614h238l-17 439z" />
    <glyph glyph-name="Ccedilla" unicode="&#xc7;" 
d="M336 -66l37 64h57l-37 -64v-4c27 -8 43 -34 43 -65c0 -6 0 -15 -2 -21l-10 -43c-10 -49 -61 -90 -106 -90h-39c-39 0 -66 31 -66 70c0 6 0 14 2 20l8 37h64c0 -2 -4 -2 -4 -4l-4 -20c-4 -20 6 -39 24 -39h19c18 0 41 19 45 39l6 20c4 20 -11 37 -29 37h-16h-6zM860 360
c-70 -201 -264 -360 -459 -360c-178 0 -297 135 -297 313c0 33 5 64 13 99l94 407c51 225 264 408 473 408c178 0 299 -134 299 -312c0 -31 -4 -61 -12 -96h-97c6 27 11 49 11 74c0 133 -90 231 -223 231c-158 0 -316 -135 -355 -305l-94 -407c-6 -27 -10 -49 -10 -74
c0 -133 90 -234 223 -234c141 0 285 111 342 256h92z" />
    <glyph glyph-name="Egrave" unicode="&#xc8;" 
d="M753.846 1534l2 407h92l2 -407h-96zM23 2l280 1225h764l-25 -103h-665l-92 -407h473l-25 -103h-473l-119 -510h666l-25 -102h-759z" />
    <glyph glyph-name="Eacute" unicode="&#xc9;" 
d="M755.346 1534h-93l187 407h94zM23 2l280 1225h764l-25 -103h-665l-92 -407h473l-25 -103h-473l-119 -510h666l-25 -102h-759z" />
    <glyph glyph-name="Ecircumflex" unicode="&#xca;" 
d="M835.961 1890l252 -356h-97l-178 256l-297 -256h-92zM23 2l280 1225h764l-25 -103h-665l-92 -407h473l-25 -103h-473l-119 -510h666l-25 -102h-759z" />
    <glyph glyph-name="Edieresis" unicode="&#xcb;" 
d="M626.74 1685c35 0 56 -24 56 -57c0 -6 0 -13 -2 -19c-10 -43 -48 -75 -89 -75c-35 0 -57 24 -57 57c0 6 2 12 2 18c10 43 49 76 90 76zM956.74 1685c35 0 55 -24 55 -57c0 -6 0 -13 -2 -19c-10 -43 -47 -75 -88 -75c-35 0 -55 24 -55 57c0 6 0 12 2 18c10 43 47 76 88 76
zM23 2l280 1225h764l-25 -103h-665l-92 -407h473l-25 -103h-473l-119 -510h666l-25 -102h-759z" />
    <glyph glyph-name="Igrave" unicode="&#xcc;" 
d="M753.846 1534l2 407h92l2 -407h-96zM45 104h336l235 1020h-333l20 103h764l-25 -103h-333l-238 -1020h336l-25 -102h-759z" />
    <glyph glyph-name="Iacute" unicode="&#xcd;" 
d="M755.346 1534h-93l187 407h94zM45 104h336l235 1020h-333l20 103h764l-25 -103h-333l-238 -1020h336l-25 -102h-759z" />
    <glyph glyph-name="Icircumflex" unicode="&#xce;" 
d="M835.961 1890l252 -356h-97l-178 256l-297 -256h-92zM45 104h336l235 1020h-333l20 103h764l-25 -103h-333l-238 -1020h336l-25 -102h-759z" />
    <glyph glyph-name="Idieresis" unicode="&#xcf;" 
d="M626.74 1685c35 0 56 -24 56 -57c0 -6 0 -13 -2 -19c-10 -43 -48 -75 -89 -75c-35 0 -57 24 -57 57c0 6 2 12 2 18c10 43 49 76 90 76zM956.74 1685c35 0 55 -24 55 -57c0 -6 0 -13 -2 -19c-10 -43 -47 -75 -88 -75c-35 0 -55 24 -55 57c0 6 0 12 2 18c10 43 47 76 88 76
zM45 104h336l235 1020h-333l20 103h764l-25 -103h-333l-238 -1020h336l-25 -102h-759z" />
    <glyph glyph-name="Ntilde" unicode="&#xd1;" 
d="M763.412 1766c2 10 4 20 4 30c0 55 -39 97 -94 97c-66 0 -132 -57 -148 -127h-96c29 127 149 227 268 227c100 0 166 -74 166 -172c0 -18 -4 -37 -8 -55c-2 -10 -4 -21 -4 -31c0 -55 37 -98 92 -98c66 0 133 59 149 129h97c-29 -127 -152 -232 -271 -232
c-100 0 -164 74 -164 174c0 18 5 38 9 58zM354 1022l-235 -1020h-96l280 1225h96l334 -1020l238 1020h96l-285 -1225h-94z" />
    <glyph glyph-name="Ograve" unicode="&#xd2;" 
d="M753.73 1534l2 407h92l2 -407h-96zM971 819l-94 -407c-51 -225 -267 -410 -476 -410c-178 0 -297 133 -297 311c0 33 5 64 13 99l94 407c51 225 264 408 473 408c178 0 299 -134 299 -312c0 -31 -4 -61 -12 -96zM874 819c6 27 11 49 11 74c0 133 -90 231 -223 231
c-158 0 -316 -135 -355 -305l-94 -407c-6 -27 -10 -49 -10 -74c0 -133 90 -234 223 -234c158 0 315 138 354 308z" />
    <glyph glyph-name="Oacute" unicode="&#xd3;" 
d="M755.23 1534h-93l187 407h94zM971 819l-94 -407c-51 -225 -267 -410 -476 -410c-178 0 -297 133 -297 311c0 33 5 64 13 99l94 407c51 225 264 408 473 408c178 0 299 -134 299 -312c0 -31 -4 -61 -12 -96zM874 819c6 27 11 49 11 74c0 133 -90 231 -223 231
c-158 0 -316 -135 -355 -305l-94 -407c-6 -27 -10 -49 -10 -74c0 -133 90 -234 223 -234c158 0 315 138 354 308z" />
    <glyph glyph-name="Ocircumflex" unicode="&#xd4;" 
d="M835.846 1890l252 -356h-97l-178 256l-297 -256h-92zM971 819l-94 -407c-51 -225 -267 -410 -476 -410c-178 0 -297 133 -297 311c0 33 5 64 13 99l94 407c51 225 264 408 473 408c178 0 299 -134 299 -312c0 -31 -4 -61 -12 -96zM874 819c6 27 11 49 11 74
c0 133 -90 231 -223 231c-158 0 -316 -135 -355 -305l-94 -407c-6 -27 -10 -49 -10 -74c0 -133 90 -234 223 -234c158 0 315 138 354 308z" />
    <glyph glyph-name="Otilde" unicode="&#xd5;" 
d="M763.297 1766c2 10 4 20 4 30c0 55 -39 97 -94 97c-66 0 -132 -57 -148 -127h-96c29 127 149 227 268 227c100 0 166 -74 166 -172c0 -18 -4 -37 -8 -55c-2 -10 -4 -21 -4 -31c0 -55 37 -98 92 -98c66 0 133 59 149 129h97c-29 -127 -152 -232 -271 -232
c-100 0 -164 74 -164 174c0 18 5 38 9 58zM971 819l-94 -407c-51 -225 -267 -410 -476 -410c-178 0 -297 133 -297 311c0 33 5 64 13 99l94 407c51 225 264 408 473 408c178 0 299 -134 299 -312c0 -31 -4 -61 -12 -96zM874 819c6 27 11 49 11 74c0 133 -90 231 -223 231
c-158 0 -316 -135 -355 -305l-94 -407c-6 -27 -10 -49 -10 -74c0 -133 90 -234 223 -234c158 0 315 138 354 308z" />
    <glyph glyph-name="Odieresis" unicode="&#xd6;" 
d="M626.625 1685c35 0 56 -24 56 -57c0 -6 0 -13 -2 -19c-10 -43 -48 -75 -89 -75c-35 0 -57 24 -57 57c0 6 2 12 2 18c10 43 49 76 90 76zM956.625 1685c35 0 55 -24 55 -57c0 -6 0 -13 -2 -19c-10 -43 -47 -75 -88 -75c-35 0 -55 24 -55 57c0 6 0 12 2 18
c10 43 47 76 88 76zM971 819l-94 -407c-51 -225 -267 -410 -476 -410c-178 0 -297 133 -297 311c0 33 5 64 13 99l94 407c51 225 264 408 473 408c178 0 299 -134 299 -312c0 -31 -4 -61 -12 -96zM874 819c6 27 11 49 11 74c0 133 -90 231 -223 231
c-158 0 -316 -135 -355 -305l-94 -407c-6 -27 -10 -49 -10 -74c0 -133 90 -234 223 -234c158 0 315 138 354 308z" />
    <glyph glyph-name="Ugrave" unicode="&#xd9;" 
d="M712.73 1534l2 407h92l2 -407h-96zM1024 1227l-188 -815c-51 -225 -267 -410 -476 -410c-178 0 -297 133 -297 311c0 33 5 64 13 99l188 815h96l-188 -815c-6 -27 -10 -49 -10 -74c0 -133 90 -234 223 -234c158 0 315 138 354 308l189 815h96z" />
    <glyph glyph-name="Uacute" unicode="&#xda;" 
d="M714.23 1534h-93l187 407h94zM1024 1227l-188 -815c-51 -225 -267 -410 -476 -410c-178 0 -297 133 -297 311c0 33 5 64 13 99l188 815h96l-188 -815c-6 -27 -10 -49 -10 -74c0 -133 90 -234 223 -234c158 0 315 138 354 308l189 815h96z" />
    <glyph glyph-name="Ucircumflex" unicode="&#xdb;" 
d="M794.846 1890l252 -356h-97l-178 256l-297 -256h-92zM1024 1227l-188 -815c-51 -225 -267 -410 -476 -410c-178 0 -297 133 -297 311c0 33 5 64 13 99l188 815h96l-188 -815c-6 -27 -10 -49 -10 -74c0 -133 90 -234 223 -234c158 0 315 138 354 308l189 815h96z" />
    <glyph glyph-name="Udieresis" unicode="&#xdc;" 
d="M585.625 1685c35 0 56 -24 56 -57c0 -6 0 -13 -2 -19c-10 -43 -48 -75 -89 -75c-35 0 -57 24 -57 57c0 6 2 12 2 18c10 43 49 76 90 76zM915.625 1685c35 0 55 -24 55 -57c0 -6 0 -13 -2 -19c-10 -43 -47 -75 -88 -75c-35 0 -55 24 -55 57c0 6 0 12 2 18
c10 43 47 76 88 76zM1024 1227l-188 -815c-51 -225 -267 -410 -476 -410c-178 0 -297 133 -297 311c0 33 5 64 13 99l188 815h96l-188 -815c-6 -27 -10 -49 -10 -74c0 -133 90 -234 223 -234c158 0 315 138 354 308l189 815h96z" />
    <glyph glyph-name="Yacute" unicode="&#xdd;" 
d="M614.346 1534h-93l187 407h94zM356 614l-192 613h96l162 -525l405 525h97l-473 -613l-144 -612h-92z" />
    <glyph glyph-name="agrave" unicode="&#xe0;" 
d="M669.603 1081l2 407h92l2 -407h-96zM631 674h-105c-115 0 -233 -103 -262 -230l-26 -114c-4 -18 -7 -38 -7 -56c0 -98 66 -172 164 -172h103c86 0 192 60 243 144l68 284c-12 84 -92 144 -178 144zM494 0h-142c-131 0 -219 101 -219 236c0 25 2 48 8 75l35 154
c39 170 198 309 354 309h144c74 0 133 -31 172 -84l18 84h90l-178 -774h-92l21 86c-63 -53 -137 -86 -211 -86z" />
    <glyph glyph-name="aacute" unicode="&#xe1;" 
d="M671.103 1081h-93l187 407h94zM631 674h-105c-115 0 -233 -103 -262 -230l-26 -114c-4 -18 -7 -38 -7 -56c0 -98 66 -172 164 -172h103c86 0 192 60 243 144l68 284c-12 84 -92 144 -178 144zM494 0h-142c-131 0 -219 101 -219 236c0 25 2 48 8 75l35 154
c39 170 198 309 354 309h144c74 0 133 -31 172 -84l18 84h90l-178 -774h-92l21 86c-63 -53 -137 -86 -211 -86z" />
    <glyph glyph-name="acircumflex" unicode="&#xe2;" 
d="M751.718 1437l252 -356h-97l-178 256l-297 -256h-92zM631 674h-105c-115 0 -233 -103 -262 -230l-26 -114c-4 -18 -7 -38 -7 -56c0 -98 66 -172 164 -172h103c86 0 192 60 243 144l68 284c-12 84 -92 144 -178 144zM494 0h-142c-131 0 -219 101 -219 236c0 25 2 48 8 75
l35 154c39 170 198 309 354 309h144c74 0 133 -31 172 -84l18 84h90l-178 -774h-92l21 86c-63 -53 -137 -86 -211 -86z" />
    <glyph glyph-name="atilde" unicode="&#xe3;" 
d="M679.169 1313c2 10 4 20 4 30c0 55 -39 97 -94 97c-66 0 -132 -57 -148 -127h-96c29 127 149 227 268 227c100 0 166 -74 166 -172c0 -18 -4 -37 -8 -55c-2 -10 -4 -21 -4 -31c0 -55 37 -98 92 -98c66 0 133 59 149 129h97c-29 -127 -152 -232 -271 -232
c-100 0 -164 74 -164 174c0 18 5 38 9 58zM631 674h-105c-115 0 -233 -103 -262 -230l-26 -114c-4 -18 -7 -38 -7 -56c0 -98 66 -172 164 -172h103c86 0 192 60 243 144l68 284c-12 84 -92 144 -178 144zM494 0h-142c-131 0 -219 101 -219 236c0 25 2 48 8 75l35 154
c39 170 198 309 354 309h144c74 0 133 -31 172 -84l18 84h90l-178 -774h-92l21 86c-63 -53 -137 -86 -211 -86z" />
    <glyph glyph-name="adieresis" unicode="&#xe4;" 
d="M542.498 1232c35 0 56 -24 56 -57c0 -6 0 -13 -2 -19c-10 -43 -48 -75 -89 -75c-35 0 -57 24 -57 57c0 6 2 12 2 18c10 43 49 76 90 76zM872.498 1232c35 0 55 -24 55 -57c0 -6 0 -13 -2 -19c-10 -43 -47 -75 -88 -75c-35 0 -55 24 -55 57c0 6 0 12 2 18
c10 43 47 76 88 76zM631 674h-105c-115 0 -233 -103 -262 -230l-26 -114c-4 -18 -7 -38 -7 -56c0 -98 66 -172 164 -172h103c86 0 192 60 243 144l68 284c-12 84 -92 144 -178 144zM494 0h-142c-131 0 -219 101 -219 236c0 25 2 48 8 75l35 154c39 170 198 309 354 309h144
c74 0 133 -31 172 -84l18 84h90l-178 -774h-92l21 86c-63 -53 -137 -86 -211 -86z" />
    <glyph glyph-name="aring" unicode="&#xe5;" 
d="M769.292 1509c94 0 158 -69 158 -163c0 -16 -3 -34 -7 -52c-27 -119 -138 -213 -249 -213c-94 0 -154 68 -154 160c0 16 0 35 4 53c27 119 137 215 248 215zM752.292 1438c-74 0 -145 -64 -163 -144c-2 -12 -4 -27 -4 -37c0 -61 41 -104 102 -104c74 0 148 61 166 141
c2 12 4 25 4 35c0 63 -42 109 -105 109zM631 674h-105c-115 0 -233 -103 -262 -230l-26 -114c-4 -18 -7 -38 -7 -56c0 -98 66 -172 164 -172h103c86 0 192 60 243 144l68 284c-12 84 -92 144 -178 144zM494 0h-142c-131 0 -219 101 -219 236c0 25 2 48 8 75l35 154
c39 170 198 309 354 309h144c74 0 133 -31 172 -84l18 84h90l-178 -774h-92l21 86c-63 -53 -137 -86 -211 -86z" />
    <glyph glyph-name="ccedilla" unicode="&#xe7;" 
d="M408 -66l37 64h57l-37 -64v-4c27 -8 43 -34 43 -65c0 -6 0 -15 -2 -21l-10 -43c-10 -49 -61 -90 -106 -90h-39c-39 0 -66 31 -66 70c0 6 0 14 2 20l8 37h64c0 -2 -4 -2 -4 -4l-4 -20c-4 -20 6 -39 24 -39h19c18 0 41 19 45 39l6 20c4 20 -11 37 -29 37h-16h-6zM524 0
h-141c-131 0 -219 101 -219 236c0 25 2 48 8 75l35 154c39 170 198 309 354 309h141c129 0 224 -100 224 -235v-9h-88c-12 84 -93 144 -179 144h-102c-115 0 -233 -103 -262 -230l-27 -114c-4 -18 -6 -38 -6 -56c0 -98 66 -172 164 -172h102c86 0 191 60 242 144h88
c-59 -139 -201 -246 -334 -246z" />
    <glyph glyph-name="egrave" unicode="&#xe8;" 
d="M698.819 1081l2 407h92l2 -407h-96zM836 532c-12 84 -93 142 -179 142h-102c-117 0 -233 -100 -262 -225l-2 -9h524zM700 774c133 0 228 -100 228 -235v-7l-45 -194h-617l-2 -10c-4 -18 -6 -40 -6 -56c0 -98 68 -170 166 -170h102c86 0 191 58 242 142h92
c-59 -137 -203 -244 -338 -244h-141c-131 0 -219 101 -219 236c0 25 2 48 8 75l35 154c39 170 198 309 354 309h141z" />
    <glyph glyph-name="eacute" unicode="&#xe9;" 
d="M700.319 1081h-93l187 407h94zM836 532c-12 84 -93 142 -179 142h-102c-117 0 -233 -100 -262 -225l-2 -9h524zM700 774c133 0 228 -100 228 -235v-7l-45 -194h-617l-2 -10c-4 -18 -6 -40 -6 -56c0 -98 68 -170 166 -170h102c86 0 191 58 242 142h92
c-59 -137 -203 -244 -338 -244h-141c-131 0 -219 101 -219 236c0 25 2 48 8 75l35 154c39 170 198 309 354 309h141z" />
    <glyph glyph-name="ecircumflex" unicode="&#xea;" 
d="M780.934 1437l252 -356h-97l-178 256l-297 -256h-92zM836 532c-12 84 -93 142 -179 142h-102c-117 0 -233 -100 -262 -225l-2 -9h524zM700 774c133 0 228 -100 228 -235v-7l-45 -194h-617l-2 -10c-4 -18 -6 -40 -6 -56c0 -98 68 -170 166 -170h102c86 0 191 58 242 142
h92c-59 -137 -203 -244 -338 -244h-141c-131 0 -219 101 -219 236c0 25 2 48 8 75l35 154c39 170 198 309 354 309h141z" />
    <glyph glyph-name="edieresis" unicode="&#xeb;" 
d="M571.713 1232c35 0 56 -24 56 -57c0 -6 0 -13 -2 -19c-10 -43 -48 -75 -89 -75c-35 0 -57 24 -57 57c0 6 2 12 2 18c10 43 49 76 90 76zM901.713 1232c35 0 55 -24 55 -57c0 -6 0 -13 -2 -19c-10 -43 -47 -75 -88 -75c-35 0 -55 24 -55 57c0 6 0 12 2 18
c10 43 47 76 88 76zM836 532c-12 84 -93 142 -179 142h-102c-117 0 -233 -100 -262 -225l-2 -9h524zM700 774c133 0 228 -100 228 -235v-7l-45 -194h-617l-2 -10c-4 -18 -6 -40 -6 -56c0 -98 68 -170 166 -170h102c86 0 191 58 242 142h92c-59 -137 -203 -244 -338 -244
h-141c-131 0 -219 101 -219 236c0 25 2 48 8 75l35 154c39 170 198 309 354 309h141z" />
    <glyph glyph-name="igrave" unicode="&#xec;" 
d="M702.007 1081l2 407h92l2 -407h-96zM807 0h-117c-131 0 -217 100 -217 233c0 25 2 49 8 76l86 365h-309l23 100h200h107c49 0 71 -10 71 -49c0 -14 -4 -31 -8 -51l-78 -344c-4 -18 -6 -38 -6 -56c0 -100 68 -172 166 -172h96z" />
    <glyph glyph-name="iacute" unicode="&#xed;" 
d="M703.507 1081h-93l187 407h94zM807 0h-117c-131 0 -217 100 -217 233c0 25 2 49 8 76l86 365h-309l23 100h200h107c49 0 71 -10 71 -49c0 -14 -4 -31 -8 -51l-78 -344c-4 -18 -6 -38 -6 -56c0 -100 68 -172 166 -172h96z" />
    <glyph glyph-name="icircumflex" unicode="&#xee;" 
d="M784.123 1437l252 -356h-97l-178 256l-297 -256h-92zM807 0h-117c-131 0 -217 100 -217 233c0 25 2 49 8 76l86 365h-309l23 100h200h107c49 0 71 -10 71 -49c0 -14 -4 -31 -8 -51l-78 -344c-4 -18 -6 -38 -6 -56c0 -100 68 -172 166 -172h96z" />
    <glyph glyph-name="idieresis" unicode="&#xef;" 
d="M574.902 1232c35 0 56 -24 56 -57c0 -6 0 -13 -2 -19c-10 -43 -48 -75 -89 -75c-35 0 -57 24 -57 57c0 6 2 12 2 18c10 43 49 76 90 76zM904.902 1232c35 0 55 -24 55 -57c0 -6 0 -13 -2 -19c-10 -43 -47 -75 -88 -75c-35 0 -55 24 -55 57c0 6 0 12 2 18
c10 43 47 76 88 76zM807 0h-117c-131 0 -217 100 -217 233c0 25 2 49 8 76l86 365h-309l23 100h200h107c49 0 71 -10 71 -49c0 -14 -4 -31 -8 -51l-78 -344c-4 -18 -6 -38 -6 -56c0 -100 68 -172 166 -172h96z" />
    <glyph glyph-name="ntilde" unicode="&#xf1;" 
d="M743.074 1313c2 10 4 20 4 30c0 55 -39 97 -94 97c-66 0 -132 -57 -148 -127h-96c29 127 149 227 268 227c100 0 166 -74 166 -172c0 -18 -4 -37 -8 -55c-2 -10 -4 -21 -4 -31c0 -55 37 -98 92 -98c66 0 133 59 149 129h97c-29 -127 -152 -232 -271 -232
c-100 0 -164 74 -164 174c0 18 5 38 9 58zM840 0h-92l102 442c4 18 6 38 6 56c0 100 -66 176 -164 176h-100c-86 0 -195 -60 -246 -146l-123 -528h-90l178 774h92l-20 -84c63 53 139 84 213 84h141c131 0 217 -100 217 -233c0 -25 -2 -49 -8 -76z" />
    <glyph glyph-name="ograve" unicode="&#xf2;" 
d="M701.277 1081l2 407h92l2 -407h-96zM662 674h-105c-115 0 -233 -103 -262 -230l-27 -114c-4 -18 -6 -38 -6 -56c0 -98 66 -172 164 -172h102c117 0 236 101 265 228l26 114c4 18 6 38 6 56c0 98 -65 174 -163 174zM705 774c131 0 219 -100 219 -233c0 -25 -3 -49 -9 -76
l-36 -154c-39 -170 -199 -311 -355 -311h-141c-131 0 -219 101 -219 236c0 25 2 48 8 75l37 154c39 170 196 309 352 309h144z" />
    <glyph glyph-name="oacute" unicode="&#xf3;" 
d="M702.777 1081h-93l187 407h94zM662 674h-105c-115 0 -233 -103 -262 -230l-27 -114c-4 -18 -6 -38 -6 -56c0 -98 66 -172 164 -172h102c117 0 236 101 265 228l26 114c4 18 6 38 6 56c0 98 -65 174 -163 174zM705 774c131 0 219 -100 219 -233c0 -25 -3 -49 -9 -76
l-36 -154c-39 -170 -199 -311 -355 -311h-141c-131 0 -219 101 -219 236c0 25 2 48 8 75l37 154c39 170 196 309 352 309h144z" />
    <glyph glyph-name="ocircumflex" unicode="&#xf4;" 
d="M783.392 1437l252 -356h-97l-178 256l-297 -256h-92zM662 674h-105c-115 0 -233 -103 -262 -230l-27 -114c-4 -18 -6 -38 -6 -56c0 -98 66 -172 164 -172h102c117 0 236 101 265 228l26 114c4 18 6 38 6 56c0 98 -65 174 -163 174zM705 774c131 0 219 -100 219 -233
c0 -25 -3 -49 -9 -76l-36 -154c-39 -170 -199 -311 -355 -311h-141c-131 0 -219 101 -219 236c0 25 2 48 8 75l37 154c39 170 196 309 352 309h144z" />
    <glyph glyph-name="otilde" unicode="&#xf5;" 
d="M710.843 1313c2 10 4 20 4 30c0 55 -39 97 -94 97c-66 0 -132 -57 -148 -127h-96c29 127 149 227 268 227c100 0 166 -74 166 -172c0 -18 -4 -37 -8 -55c-2 -10 -4 -21 -4 -31c0 -55 37 -98 92 -98c66 0 133 59 149 129h97c-29 -127 -152 -232 -271 -232
c-100 0 -164 74 -164 174c0 18 5 38 9 58zM662 674h-105c-115 0 -233 -103 -262 -230l-27 -114c-4 -18 -6 -38 -6 -56c0 -98 66 -172 164 -172h102c117 0 236 101 265 228l26 114c4 18 6 38 6 56c0 98 -65 174 -163 174zM705 774c131 0 219 -100 219 -233
c0 -25 -3 -49 -9 -76l-36 -154c-39 -170 -199 -311 -355 -311h-141c-131 0 -219 101 -219 236c0 25 2 48 8 75l37 154c39 170 196 309 352 309h144z" />
    <glyph glyph-name="odieresis" unicode="&#xf6;" 
d="M574.172 1232c35 0 56 -24 56 -57c0 -6 0 -13 -2 -19c-10 -43 -48 -75 -89 -75c-35 0 -57 24 -57 57c0 6 2 12 2 18c10 43 49 76 90 76zM904.172 1232c35 0 55 -24 55 -57c0 -6 0 -13 -2 -19c-10 -43 -47 -75 -88 -75c-35 0 -55 24 -55 57c0 6 0 12 2 18
c10 43 47 76 88 76zM662 674h-105c-115 0 -233 -103 -262 -230l-27 -114c-4 -18 -6 -38 -6 -56c0 -98 66 -172 164 -172h102c117 0 236 101 265 228l26 114c4 18 6 38 6 56c0 98 -65 174 -163 174zM705 774c131 0 219 -100 219 -233c0 -25 -3 -49 -9 -76l-36 -154
c-39 -170 -199 -311 -355 -311h-141c-131 0 -219 101 -219 236c0 25 2 48 8 75l37 154c39 170 196 309 352 309h144z" />
    <glyph glyph-name="ugrave" unicode="&#xf9;" 
d="M669.843 1081l2 407h92l2 -407h-96zM250 774h90l-102 -442c-4 -18 -7 -38 -7 -56c0 -100 66 -174 164 -174h103c86 0 192 60 243 146l123 526h90l-178 -774h-92l21 86c-63 -53 -137 -86 -211 -86h-144c-131 0 -217 103 -217 236c0 25 2 48 8 75z" />
    <glyph glyph-name="uacute" unicode="&#xfa;" 
d="M671.343 1081h-93l187 407h94zM250 774h90l-102 -442c-4 -18 -7 -38 -7 -56c0 -100 66 -174 164 -174h103c86 0 192 60 243 146l123 526h90l-178 -774h-92l21 86c-63 -53 -137 -86 -211 -86h-144c-131 0 -217 103 -217 236c0 25 2 48 8 75z" />
    <glyph glyph-name="ucircumflex" unicode="&#xfb;" 
d="M751.958 1437l252 -356h-97l-178 256l-297 -256h-92zM250 774h90l-102 -442c-4 -18 -7 -38 -7 -56c0 -100 66 -174 164 -174h103c86 0 192 60 243 146l123 526h90l-178 -774h-92l21 86c-63 -53 -137 -86 -211 -86h-144c-131 0 -217 103 -217 236c0 25 2 48 8 75z" />
    <glyph glyph-name="udieresis" unicode="&#xfc;" 
d="M542.738 1232c35 0 56 -24 56 -57c0 -6 0 -13 -2 -19c-10 -43 -48 -75 -89 -75c-35 0 -57 24 -57 57c0 6 2 12 2 18c10 43 49 76 90 76zM872.738 1232c35 0 55 -24 55 -57c0 -6 0 -13 -2 -19c-10 -43 -47 -75 -88 -75c-35 0 -55 24 -55 57c0 6 0 12 2 18
c10 43 47 76 88 76zM250 774h90l-102 -442c-4 -18 -7 -38 -7 -56c0 -100 66 -174 164 -174h103c86 0 192 60 243 146l123 526h90l-178 -774h-92l21 86c-63 -53 -137 -86 -211 -86h-144c-131 0 -217 103 -217 236c0 25 2 48 8 75z" />
    <glyph glyph-name="yacute" unicode="&#xfd;" 
d="M720.941 1081h-93l187 407h94zM299 774h90l-102 -442c-4 -18 -6 -38 -6 -56c0 -100 65 -174 163 -174h103c86 0 193 60 244 146l122 526h91l-199 -866c-41 -174 -198 -316 -354 -316h-146c-131 0 -221 105 -221 244v12h90c10 -90 90 -153 176 -153h103
c117 0 237 111 268 246l33 145c-63 -53 -137 -86 -211 -86h-144c-131 0 -217 103 -217 236c0 25 2 48 8 75z" />
    <glyph glyph-name="ydieresis" unicode="&#xff;" 
d="M592.336 1232c35 0 56 -24 56 -57c0 -6 0 -13 -2 -19c-10 -43 -48 -75 -89 -75c-35 0 -57 24 -57 57c0 6 2 12 2 18c10 43 49 76 90 76zM922.336 1232c35 0 55 -24 55 -57c0 -6 0 -13 -2 -19c-10 -43 -47 -75 -88 -75c-35 0 -55 24 -55 57c0 6 0 12 2 18
c10 43 47 76 88 76zM299 774h90l-102 -442c-4 -18 -6 -38 -6 -56c0 -100 65 -174 163 -174h103c86 0 193 60 244 146l122 526h91l-199 -866c-41 -174 -198 -316 -354 -316h-146c-131 0 -221 105 -221 244v12h90c10 -90 90 -153 176 -153h103c117 0 237 111 268 246l33 145
c-63 -53 -137 -86 -211 -86h-144c-131 0 -217 103 -217 236c0 25 2 48 8 75z" />
    <glyph glyph-name="Oslash" unicode="&#xd8;" 
d="M901 1137l70 90h96l-121 -154c23 -47 35 -103 35 -162c0 -31 -2 -59 -8 -92l-94 -407c-51 -225 -269 -410 -478 -410c-88 0 -164 35 -215 90l-67 -90h-96l118 154c-23 47 -35 102 -35 161c0 31 5 62 11 95l94 407c51 225 264 408 473 408c88 0 166 -35 217 -90zM870 977
l-614 -797c39 -47 96 -76 170 -76c158 0 317 138 356 308l95 407c6 27 8 51 8 76c0 31 -7 57 -15 82zM831 1049c-39 47 -98 75 -172 75c-158 0 -315 -135 -354 -305l-92 -407c-6 -27 -8 -49 -8 -74c0 -31 4 -59 12 -84z" />
    <glyph glyph-name="AE" unicode="&#xc6;" 
d="M1067 1227l-25 -103h-286l-117 -510h188l-22 -102h-191l-94 -408h287l-25 -102h-381l119 510h-145l-256 -510h-96l616 1225h428zM424 614h119l100 439z" />
    <glyph glyph-name="Eth" unicode="&#xd0;" 
d="M254 614l139 613h285c178 0 299 -134 299 -312c0 -31 -2 -61 -10 -96l-95 -407c-51 -225 -268 -408 -477 -408h-282l116 508h-96l25 102h96zM653 1124h-186l-119 -510h189l-23 -102h-190l-95 -406h191c158 0 317 136 356 306l94 407c6 27 9 49 9 74
c0 133 -93 231 -226 231z" />
    <glyph glyph-name="Thorn" unicode="&#xde;" 
d="M440 1227h97l-95 -408h283c178 0 299 -131 299 -309c0 -31 -2 -63 -10 -98c-51 -225 -266 -408 -475 -408h-285l-94 -407h-97zM702 717h-282l-141 -611h282c158 0 318 136 357 306c6 27 8 48 8 73c0 133 -91 232 -224 232z" />
    <glyph glyph-name="thorn" unicode="&#xfe;" 
d="M459 -12c-74 0 -133 31 -172 84l-111 -475h-90l377 1630h92l-125 -535c63 53 137 86 211 86h141c131 0 219 -100 219 -235c0 -25 -2 -53 -8 -80l-39 -160c-41 -174 -198 -315 -354 -315h-141zM637 676c-86 0 -193 -62 -244 -148l-67 -292c12 -86 90 -146 176 -146h102
c117 0 233 105 264 234l29 116c4 20 6 40 6 58c0 102 -66 178 -164 178h-102z" />
    <glyph glyph-name="eth" unicode="&#xf0;" 
d="M739 1159l117 68l23 -88l-72 -43c84 -88 131 -221 131 -371c0 -55 -4 -111 -18 -170l-70 -307c-61 -139 -203 -244 -338 -244h-143c-131 0 -219 101 -219 234c0 25 2 48 8 75l35 156c39 170 198 309 354 309h141c59 0 111 -20 148 -57c-6 129 -53 235 -125 309l-142 -92
l-22 100l82 54c-43 23 -97 32 -150 32c-45 0 -94 -6 -139 -22l25 106c45 12 92 19 137 19c90 0 171 -25 237 -68zM823 532c-12 84 -92 144 -178 144h-102c-115 0 -233 -100 -262 -227l-27 -115c-4 -18 -6 -37 -6 -55c0 -98 66 -173 164 -173h102c86 0 193 58 244 142z" />
    <glyph glyph-name="logicalnot" unicode="&#xac;" 
d="M936 627l-88 -385h-96l63 282h-663l24 103h760z" />
    <glyph glyph-name="dotlessi" unicode="&#x131;" 
d="M807 0h-117c-131 0 -217 100 -217 233c0 25 2 49 8 76l86 365h-309l23 100h200h107c49 0 71 -10 71 -49c0 -14 -4 -31 -8 -51l-78 -344c-4 -18 -6 -38 -6 -56c0 -100 68 -172 166 -172h96z" />
    <glyph glyph-name="dotlessj" unicode="&#x237;" 
d="M1006 676h-265l-176 -768c-41 -172 -196 -314 -352 -314h-45c-39 0 -76 11 -109 27l27 113c33 -23 78 -37 123 -37h8c117 0 233 108 264 237l195 842h352z" />
    <glyph glyph-name="euro" unicode="&#x20ac;" 
d="M291 764c74 256 317 459 559 459h162l-72 -103h-94c-195 0 -391 -155 -461 -356h426l-72 -100h-377l-24 -103h426l-70 -102h-379c-2 -16 -4 -33 -4 -47c0 -178 121 -310 299 -310h144l-72 -102h-115c-213 0 -356 160 -356 373c0 29 2 55 6 86h-141l71 102h95l24 103h-141
l70 100h96z" />
    <glyph glyph-name="trademark" unicode="&#x2122;" 
d="M551 1219h-47l92 407h47l82 -170l158 170h47l-94 -407h-48l74 319l-127 -135h-47l-63 135zM492 1577h-142l-84 -358h-47l82 358h-143l12 49h334z" />
    <glyph glyph-name="perthousand" unicode="&#x2030;" 
d="M72 0h-49l12 51l983 1174h49l-12 -51zM483 356c78 0 131 -57 131 -135c0 -14 -4 -29 -6 -43c-23 -98 -117 -178 -207 -178c-78 0 -127 55 -127 133c0 14 3 31 7 45c23 98 112 178 202 178zM469 281c-51 0 -107 -48 -119 -103c-2 -8 -2 -16 -2 -24c0 -43 29 -76 72 -76
c51 0 107 45 119 100c2 8 4 17 4 25c0 43 -31 78 -74 78zM774 688c78 0 131 -59 131 -137c0 -12 -2 -27 -4 -41c-23 -98 -119 -178 -209 -178c-78 0 -131 57 -131 135c0 14 4 29 6 43c23 98 117 178 207 178zM756 612c-51 0 -105 -47 -117 -102c-2 -8 -2 -17 -2 -25
c0 -43 31 -77 74 -77c51 0 104 47 116 102c2 8 4 14 4 22c0 43 -32 80 -75 80zM522 1225c100 0 164 -74 164 -174c0 -18 -4 -38 -8 -58c-29 -127 -143 -227 -262 -227c-100 0 -170 72 -170 172c0 16 2 37 6 55c29 127 151 232 270 232zM500 1133c-72 0 -144 -64 -162 -140
c-2 -10 -4 -22 -4 -32c0 -59 43 -105 102 -105c72 0 140 61 158 137c2 12 4 25 4 35c0 59 -39 105 -98 105z" />
    <glyph glyph-name="oe" unicode="&#x153;" 
d="M575 338l-32 -139c-2 -6 -2 -15 -2 -21c0 -41 28 -74 69 -74h43c47 0 99 44 111 95l8 45h92l-14 -68c-23 -94 -115 -174 -201 -174h-80c-43 0 -82 22 -102 57c-37 -35 -84 -57 -127 -57h-80c-74 0 -125 57 -125 133c0 12 2 27 4 41l99 426c23 94 112 174 200 174h78
c43 0 82 -20 102 -55c37 35 87 55 130 55h79c74 0 125 -57 125 -133c0 -12 -4 -27 -6 -41l-59 -264h-312zM477 676h-45c-47 0 -96 -45 -108 -96l-86 -379c-2 -8 -5 -17 -5 -23c0 -41 27 -74 68 -74h43c47 0 99 46 111 97l88 379c2 6 4 14 4 20c0 43 -29 76 -70 76zM784 676
h-41c-47 0 -100 -43 -112 -94l-33 -142h221l33 142c2 6 2 14 2 20c0 41 -29 74 -70 74z" />
    <glyph glyph-name="OE" unicode="&#x152;" 
d="M1024 1122h-336l-92 -407h188l-22 -103h-191l-118 -510h333l-22 -102h-336h-90l4 20c-27 -12 -55 -20 -82 -20h-86c-80 0 -133 61 -133 141c0 14 2 29 4 43l199 856c23 100 121 185 213 185h86c27 0 51 -9 71 -21l4 21h429zM500 1122h-47c-51 0 -107 -47 -119 -102
l-189 -815c-2 -8 -2 -17 -2 -25c0 -43 31 -78 74 -78h47c51 0 107 48 119 103l190 815c2 8 2 16 2 22c0 45 -32 80 -75 80z" />
  </font>
</defs>
</svg>
