<?xml version="1.0" encoding="UTF-8" standalone="no"?>
<svg width="250" height="200" viewBox="0 0 250 270" xmlns="http://www.w3.org/2000/svg">
<defs>
<marker id="ArrowEnd" markerHeight="3" markerUnits="strokeWidth" markerWidth="4" orient="auto" refX="0" refY="5" viewBox="0 0 10 10">
<path d="m0,0 10,5-10,5v-10z"/>
</marker>
<marker id="ArrowStart" markerHeight="3" markerUnits="strokeWidth" markerWidth="4" orient="auto" refX="10" refY="5" viewBox="0 0 10 10">
<path d="m10,0-10,5 10,5v-10z"/>
</marker>
</defs>
<path d="m152.769,272.137 89.976-95.027-184.3446-17.67 94.3686,112.697z" fill="#ccc" stroke="#e5e5e5" stroke-linecap="round" stroke-linejoin="round" stroke-width="5"/>
<path d="m209.383,67.2154-52.308,54.3206-4.306,150.601 49.118-79.634 7.496-125.2876z" fill="#a5a5a5" stroke="#bbb" stroke-linecap="round" stroke-linejoin="round" stroke-width="5"/>
<path d="m157.075,121.536-154.575-28.5657 9.4404,137.6977 140.8286,41.469 4.306-150.601z" fill="#bfbfbf" stroke="#bfbfbf" stroke-linecap="round" stroke-linejoin="round" stroke-width="5"/>
<path d="m157.075,121.536-154.575-28.5657 77.4512-43.9112 129.4318,18.1563-52.308,54.3206z" fill="#d8d8d8" stroke="#bfbfbf" stroke-linecap="round" stroke-linejoin="round" stroke-width="5"/>
<path d="m94.251,100.357-17.2446-3.0625 50.1016-35.5508 15.128,2.1899-47.985,36.4234z" stroke="#bfbfbf" stroke-linecap="round" stroke-linejoin="round" stroke-width="5"/>
<path d="m94.728,71.107 23.993-15.3765v-53.2305l-23.993,12.5425v56.0645z" fill="#6ABEEC" stroke="#5395ba" stroke-linecap="round" stroke-linejoin="round" stroke-width="5"/>
</svg>
