<svg width="393" height="197" viewBox="0 0 393 197" xmlns="http://www.w3.org/2000/svg" xmlns:sketch="http://www.bohemiancoding.com/sketch/ns"><title>Layer_2</title><desc>Created with Sketch.</desc><g sketch:type="MSShapeGroup" fill="none"><g transform="translate(2) translate(75)"><g fill="#6ABEEC"><path id="Rectangle-path" d="M35.227 150.767h38.46v20.809h-38.46z"/><path d="M72.042 152.412v17.518h-35.17v-17.518h35.17zm3.291-3.29h-41.751999999999995v24.098h41.751999999999995v-24.098z" id="Shape"/></g><g fill="#6ABEEC"><path id="Rectangle-path" d="M93.085 150.767h38.464v20.809h-38.464z"/><path d="M129.904 152.412v17.518h-35.174v-17.518h35.174zm3.29-3.29h-41.754999999999995v24.098h41.754999999999995v-24.098z" id="Shape"/></g><g fill="#6ABEEC"><path id="Rectangle-path" d="M150.835 150.767h38.463v20.809h-38.463z"/><path d="M187.652 152.412v17.518h-35.172v-17.518h35.172zm3.29-3.29h-41.751999999999995v24.098h41.751999999999995v-24.098z" id="Shape"/></g><g fill="#6ABEEC"><path id="Rectangle-path" d="M35.224 92.353h38.463v38.463h-38.463z"/><path d="M72.042 93.998v35.173h-35.173v-35.173h35.173zm3.291-3.29h-41.754999999999995v41.754h41.754999999999995v-41.754z" id="Shape"/></g><g fill="#6ABEEC"><path id="Rectangle-path" d="M93.092 92.353h38.464v38.463h-38.464z"/><path d="M129.911 93.998v35.173h-35.174v-35.173h35.174zm3.29-3.29h-41.754999999999995v41.754h41.754999999999995v-41.754z" id="Shape"/></g><g fill="#6ABEEC"><path id="Rectangle-path" d="M150.838 92.353h38.467v38.463h-38.467z"/><path d="M187.659 93.998v35.173h-35.176v-35.173h35.176zm3.29-3.29h-41.756v41.754h41.756v-41.754z" id="Shape"/></g><path d="M219.566 173.295h-214.613c-2.214 0-4.015-1.801-4.015-4.014v-164.561c0-2.214 1.801-4.015 4.015-4.015h214.62c2.211 0 4.01 1.801 4.01 4.015v164.561c0 2.213-1.802 4.014-4.017 4.014zm-214.613-169.299c-.407 0-.725.318-.725.725v164.561c0 .405.318.723.725.723h214.613c.407 0 .726-.317.726-.723v-164.562c0-.406-.315-.725-.719-.725h-214.62v.001z" id="Shape" fill="#3E3B3E"/><circle id="Oval" fill="#3E3B3E" cx="18.974" cy="18.059" r="4.396"/><circle id="Oval" fill="#3E3B3E" cx="33.613" cy="18.059" r="4.396"/><circle fill="#3E3B3E" cx="48.151" cy="18.059" r="4.396"/><path fill="#3E3B3E" d="M2.583 27.613h219.354v3.29h-219.354z"/><path d="M112.318 43.893c-9.564 0-17.348 7.966-17.348 17.773 0 5.5 2.458 10.428 6.308 13.691.029-.229.093-.451.215-.652.18-.292 4.446-7.146 10.887-7.146 3.811 0 7.422 2.373 10.732 7.055.154.218.234.47.267.732 3.841-3.265 6.288-8.188 6.288-13.68-.001-9.808-7.771-17.773-17.349-17.773zm.016 20.913c-3.684 0-6.68-3.388-6.68-7.554 0-4.164 2.996-7.553 6.68-7.553 3.683 0 6.68 3.389 6.68 7.553 0 4.166-2.997 7.554-6.68 7.554z" id="Shape" fill="#6ABEEC"/></g><g id="Shape"><path d="M383.25 24h-112c-4.411 0-8 3.59-8 8v10l-10 8.667 10 8v13.333c0 4.412 3.589 8 8 8h112c4.411 0 8-3.588 8-8v-40c0-4.41-3.589-8-8-8z" stroke="#3E3B3E" stroke-width="2.667" fill="#F0F0F0"/><path d="M377.917 37.333h-56c-1.475 0-2.667.598-2.667 1.333 0 .736 1.192 1.333 2.667 1.333h56c1.474 0 2.666-.598 2.666-1.333s-1.192-1.333-2.666-1.333zM377.917 45.333h-56c-1.475 0-2.667.598-2.667 1.333 0 .736 1.192 1.333 2.667 1.333h56c1.474 0 2.666-.598 2.666-1.333s-1.192-1.333-2.666-1.333zM377.917 53.333h-56c-1.475 0-2.667.598-2.667 1.333 0 .734 1.192 1.333 2.667 1.333h56c1.474 0 2.666-.599 2.666-1.333 0-.735-1.192-1.333-2.666-1.333zM377.917 61.333h-56c-1.475 0-2.667.599-2.667 1.333s1.192 1.334 2.667 1.334h56c1.474 0 2.666-.599 2.666-1.333s-1.192-1.334-2.666-1.334z" fill="#3E3B3E"/><path d="M305.917 37.333h-24c-4.412 0-8 3.59-8 8v13.333c0 4.412 3.588 8 8 8h24c4.411 0 8-3.588 8-8v-13.333c0-4.41-3.589-8-8-8z" fill="#6ABEEC"/></g><g id="Shape"><path d="M10.25 44.333h112c4.411 0 8 3.59 8 8v10l10 8.667-10 8v13.333c0 4.412-3.589 8-8 8h-112c-4.411 0-8-3.589-8-8v-40c0-4.41 3.589-8 8-8z" stroke="#3E3B3E" stroke-width="2.667" fill="#F0F0F0"/><path d="M15.583 57.667h56c1.475 0 2.667.598 2.667 1.333 0 .736-1.192 1.333-2.667 1.333h-56c-1.474 0-2.666-.598-2.666-1.333s1.192-1.333 2.666-1.333zM15.583 65.667h56c1.475 0 2.667.598 2.667 1.333 0 .736-1.192 1.333-2.667 1.333h-56c-1.474 0-2.666-.598-2.666-1.333s1.192-1.333 2.666-1.333zM15.583 73.667h56c1.475 0 2.667.598 2.667 1.333 0 .734-1.192 1.333-2.667 1.333h-56c-1.474 0-2.666-.599-2.666-1.333 0-.735 1.192-1.333 2.666-1.333zM15.583 81.667h56c1.475 0 2.667.599 2.667 1.333s-1.192 1.333-2.667 1.333h-56c-1.474 0-2.666-.599-2.666-1.333s1.192-1.333 2.666-1.333z" fill="#3E3B3E"/><path d="M87.583 57.667h24c4.412 0 8 3.59 8 8v13.333c0 4.412-3.588 8-8 8h-24c-4.411 0-8-3.588-8-8v-13.333c0-4.41 3.589-8 8-8z" fill="#6ABEEC"/></g><g><path d="M62.25 158.75s2.732.202 9-6 8.666-10.5 8.333-13c-.333-2.5-.106-6.75.03-10.75s10.239-5.317 13.137 1.816c2.898 7.133-.511 16.889-.511 16.889s18.734-.827 22.642.295c3.908 1.122 4.604 3.502 4.986 6.001.382 2.499-1.189 7.225-1.189 7.225s2.057 2.774 1.189 5.524c-.868 2.75-2.41 6.489-2.41 6.489s2.556 5.53.047 8.065c-2.509 2.535-3.844 3.319-3.844 3.319s-1.385 9.155-11.648 9.155h-29.609s-2.574 1.303-5.904-1.279-7.25-1.25-7.25-1.25v-31.265l3.001-1.234z" fill="#F0F0F0"/><path d="M102.013 196.221h-29.609c-2.335 0-4.398-.802-5.965-2.317-.868-.837-2.012-1.299-3.22-1.299h-2.191c-1.67 0-3.028-1.358-3.028-3.028 0-.674.546-1.221 1.22-1.221.674 0 1.22.547 1.22 1.221 0 .318.27.587.588.587h2.191c1.843 0 3.589.705 4.916 1.984 1.104 1.068 2.58 1.632 4.269 1.632h29.609c3.603 0 6.617-1.379 8.489-3.882 1.399-1.838 2.123-4.225 1.942-6.394-.039-.47.196-.92.604-1.156 1.391-.807 2.454-2.092 3.076-3.72.738-1.922.804-4.309.173-6.229-.144-.438-.028-.92.298-1.246 1.553-1.546 2.315-3.782 2.09-6.134-.111-1.175-.476-2.252-1.053-3.115-.325-.484-.261-1.132.153-1.543 1.17-1.166 1.17-3.33 1.17-4.254 0-6.07-3.981-6.907-8.282-6.907h-17.245c-.372 0-.724-.17-.955-.461-.231-.291-.318-.672-.234-1.034 2.754-11.934-.437-17.995-4.341-19.689-2.775-1.191-5.932-.189-7.501 2.385-.058.093-.086.197-.086.308v8.6c0 .852-.316 1.76-.596 2.561-1.842 5.267-5.471 9.981-11.094 14.417-.339.269-.66.581-.953.93-1.429 1.724-3.925 2.841-6.355 2.841-.318 0-.588.269-.588.587 0 .674-.546 1.221-1.22 1.221-.674 0-1.22-.547-1.22-1.221 0-1.67 1.358-3.028 3.028-3.028 1.706 0 3.507-.789 4.481-1.964.404-.48.844-.909 1.314-1.281 5.248-4.14 8.618-8.492 10.302-13.306.215-.617.459-1.317.459-1.756v-8.6c0-.563.154-1.111.446-1.585 2.205-3.615 6.645-5.026 10.549-3.348 4.627 2.007 8.536 8.563 6.073 20.983h15.736c2.652 0 10.723 0 10.723 9.349 0 1.074 0 3.409-1.266 5.237.53 1.028.867 2.202.985 3.443.27 2.82-.562 5.532-2.294 7.554.583 2.309.438 4.932-.417 7.159-.727 1.902-1.926 3.463-3.493 4.552.024 2.541-.87 5.226-2.46 7.314-2.338 3.126-6.047 4.853-10.438 4.853zM57.412 196.221h-21.697c-1.67 0-3.028-1.358-3.028-3.028v-36.163c0-1.67 1.358-3.029 3.028-3.029h21.697c1.67 0 3.028 1.359 3.028 3.029v36.162c0 1.67-1.358 3.029-3.028 3.029zm-21.697-39.779c-.318 0-.588.27-.588.588v36.162c0 .318.27.587.588.587h21.697c.324 0 .588-.263.588-.587v-36.162c0-.324-.264-.588-.588-.588h-21.697zM118.647 162.446h-17.196c-.674 0-1.22-.547-1.22-1.221s.546-1.221 1.22-1.221h17.196c.674 0 1.22.547 1.22 1.221s-.546 1.221-1.22 1.221zM117.458 173.239h-15.432c-.674 0-1.22-.547-1.22-1.221s.546-1.221 1.22-1.221h15.432c.674 0 1.22.547 1.22 1.221s-.546 1.221-1.22 1.221zM113.661 184.624h-11.635c-.674 0-1.22-.547-1.22-1.221s.546-1.221 1.22-1.221h11.635c.674 0 1.22.547 1.22 1.221s-.546 1.221-1.22 1.221z" fill="#3E3B3E"/></g></g></svg>