<?xml version="1.0" encoding="UTF-8" standalone="no"?>
<svg width="400px" height="186px" viewBox="0 0 400 186" version="1.1" xmlns="http://www.w3.org/2000/svg" xmlns:xlink="http://www.w3.org/1999/xlink" xmlns:sketch="http://www.bohemiancoding.com/sketch/ns">
    <!-- Generator: Sketch 3.3.1 (12002) - http://www.bohemiancoding.com/sketch -->
    <title>seo</title>
    <desc>Created with Sketch.</desc>
    <defs></defs>
    <g id="Page-1" stroke="none" stroke-width="1" fill="none" fill-rule="evenodd" sketch:type="MSPage">
        <g id="seo" sketch:type="MSLayerGroup">
            <g id="Group" sketch:type="MSShapeGroup">
                <path d="M125.746441,122.268526 C127.842712,122.268526 129.540339,123.965606 129.540339,126.064555 C129.540339,128.158073 127.842712,129.859226 125.746441,129.859226 C123.656949,129.859226 121.957966,128.159431 121.957966,126.064555 C121.957966,123.965606 123.656949,122.268526 125.746441,122.268526 L125.746441,122.268526 Z" id="Shape"></path>
                <path d="M150.379661,159.206496 L102.900339,159.206496 C98.3349153,159.206496 96.1559322,158.649854 95.3410169,157.237883 C94.9450847,156.795285 94.7362712,156.259007 94.7335593,155.669781 C94.7267797,153.952336 96.4989831,152.327212 98.740339,150.27035 C99.4833898,149.588803 100.257627,148.878745 100.964068,148.157825 C103.776271,145.290438 104.641356,139.658847 104.901695,136.848482 L34.1844068,136.848482 C30.2101695,136.848482 26.8542373,133.518131 26.8542373,129.576832 L26.8542373,7.01505109 C26.8542373,3.14706569 30.1410169,0 34.1844068,0 L217.475254,0 C221.498305,0 224.648136,3.08325547 224.648136,7.01912409 L224.648136,129.58362 C224.648136,133.594161 221.43322,136.85527 217.480678,136.85527 L147.734237,136.85527 C147.989153,139.658847 148.844746,145.282292 151.666441,148.165971 C152.367458,148.876029 153.134915,149.579299 153.875254,150.256774 C155.469831,151.714905 156.810847,152.943591 157.467119,154.145124 L158.055593,154.145124 L158.055593,154.532058 L158.241356,154.532058 L158.221017,155.910088 C158.170847,159.206496 152.711864,159.206496 150.379661,159.206496 L150.379661,159.206496 Z M97.6976271,155.893796 C97.7315254,155.893796 98.5071186,156.48981 102.900339,156.48981 L150.381017,156.48981 C153.415593,156.48981 154.702373,156.157182 155.223051,155.934526 L155.189153,155.686073 C155.099661,155.054759 153.261017,153.373971 152.046102,152.262044 C151.27322,151.554701 150.467797,150.817489 149.732881,150.070774 C145.675932,145.923109 145.029153,137.914248 144.927458,135.558701 L144.866441,134.142657 L217.482034,134.142657 C219.938983,134.142657 221.937627,132.098015 221.937627,129.586336 L221.937627,7.01912409 C221.937627,4.60519708 219.978305,2.71532847 217.47661,2.71532847 L34.1844068,2.71532847 C31.6379661,2.71532847 29.5661017,4.64456934 29.5661017,7.01505109 L29.5661017,129.575474 C29.5661017,132.002978 31.7247458,134.131796 34.1844068,134.131796 L107.773559,134.131796 L107.709831,135.550555 C107.602712,137.911533 106.941017,145.935328 102.897627,150.058555 C102.157288,150.813416 101.347797,151.556058 100.570847,152.27019 C99.4413559,153.306088 97.7722034,154.837533 97.4820339,155.544876 L97.5471186,155.608686 L97.6976271,155.893796 C97.6962712,155.893796 97.6962712,155.893796 97.6976271,155.893796 L97.6976271,155.893796 Z" id="Shape" fill="#3E3B3E"></path>
                <path d="M125.746441,129.857869 C123.652881,129.857869 121.957966,128.160788 121.957966,126.063197 C121.957966,123.961533 123.655593,122.261737 125.746441,122.261737 C127.842712,122.261737 129.540339,123.961533 129.540339,126.063197 C129.540339,128.160788 127.842712,129.857869 125.746441,129.857869 L125.746441,129.857869 Z" id="Shape" fill="#3E3B3E"></path>
                <path d="M216.417627,111.365124 L35.080678,111.365124 L35.080678,7.84865693 L216.417627,7.84865693 L216.417627,111.365124 L216.417627,111.365124 Z M37.7925424,108.649796 L213.705763,108.649796 L213.705763,10.5639854 L37.7925424,10.5639854 L37.7925424,108.649796 L37.7925424,108.649796 Z" id="Shape" fill="#3E3B3E"></path>
                <rect id="Rectangle-path" fill="#3E3B3E" x="45.3220339" y="79.6052847" width="80.4244068" height="4.91745985"></rect>
                <rect id="Rectangle-path" fill="#3E3B3E" x="45.3220339" y="88.6364672" width="160.854237" height="4.91745985"></rect>
                <rect id="Rectangle-path" fill="#3E3B3E" x="45.3220339" y="97.6649343" width="160.854237" height="4.92153285"></rect>
                <path d="M60.3905085,64.2324526 L69.1688136,64.2324526 C70.2101695,64.2324526 71.0522034,63.3893431 71.0522034,62.3507299 L71.0522034,45.5564234 C71.0522034,44.5150949 70.2101695,43.6719854 69.1688136,43.6719854 L60.3905085,43.6719854 C59.3505085,43.6719854 58.5111864,44.5150949 58.5111864,45.5564234 L58.5111864,62.3507299 C58.5111864,63.3893431 59.3505085,64.2324526 60.3905085,64.2324526 L60.3905085,64.2324526 Z" id="Shape" fill="#6ABEEC"></path>
                <path d="M81.1430508,64.2324526 L89.9267797,64.2324526 C90.9667797,64.2324526 91.8047458,63.3893431 91.8047458,62.3507299 L91.8047458,35.2748321 C91.8047458,34.2348613 90.9667797,33.3917518 89.9267797,33.3917518 L81.1430508,33.3917518 C80.1030508,33.3917518 79.2637288,34.2348613 79.2637288,35.2748321 L79.2637288,62.3493723 C79.2637288,63.3893431 80.1030508,64.2324526 81.1430508,64.2324526 L81.1430508,64.2324526 Z" id="Shape" fill="#6ABEEC"></path>
                <path d="M101.903729,64.2324526 L110.679322,64.2324526 C111.719322,64.2324526 112.565424,63.3893431 112.565424,62.3507299 L112.565424,24.9945985 C112.565424,23.9546277 111.719322,23.1128759 110.679322,23.1128759 L101.903729,23.1128759 C100.862373,23.1128759 100.020339,23.9546277 100.020339,24.9945985 L100.020339,62.3507299 C100.021695,63.3893431 100.863729,64.2324526 101.903729,64.2324526 L101.903729,64.2324526 Z" id="Shape" fill="#6ABEEC"></path>
                <path d="M140.627797,61.7262044 C142.32678,61.7262044 143.703051,60.3536058 143.703051,58.6565255 C143.703051,58.0632263 143.529492,57.5065839 143.23661,57.0449781 L155.943051,44.3073723 C156.417627,44.5992701 156.970847,44.7730511 157.567458,44.7730511 C158.40678,44.7730511 159.172881,44.4309197 159.726102,43.879708 L173.449492,52.4750803 C173.341017,52.7859854 173.28,53.1213285 173.28,53.4661752 C173.28,55.1727591 174.652203,56.544 176.345763,56.544 C178.042034,56.544 179.416949,55.1700438 179.416949,53.4661752 C179.416949,53.0385109 179.328814,52.6366423 179.178305,52.2673577 L194.105763,41.3069343 C194.637288,41.7644672 195.334237,42.0427883 196.104407,42.0427883 C197.799322,42.0427883 199.164746,40.6674745 199.164746,38.9690365 C199.164746,37.2678832 197.793898,35.893927 196.104407,35.893927 C194.398644,35.893927 193.031864,37.2733139 193.031864,38.9690365 C193.031864,39.3980584 193.115932,39.804 193.267797,40.176 L178.349831,51.133708 C177.810169,50.6680292 177.115932,50.393781 176.345763,50.393781 C175.51322,50.393781 174.743051,50.7359124 174.191186,51.2884818 L160.475932,42.6863212 C160.576271,42.3767737 160.638644,42.0427883 160.638644,41.6965839 C160.638644,40.0008613 159.261017,38.6228321 157.56339,38.6228321 C155.868475,38.6228321 154.492203,40.002219 154.492203,41.6965839 C154.492203,42.2912409 154.665763,42.8465255 154.957288,43.313562 L142.242712,56.0443796 C141.774915,55.7497664 141.221695,55.5787007 140.629153,55.5787007 C138.938305,55.5787007 137.562034,56.9621606 137.562034,58.6524526 C137.557966,60.3549635 138.934237,61.7262044 140.627797,61.7262044 L140.627797,61.7262044 Z" id="Shape" fill="#6ABEEC"></path>
                <ellipse id="Oval" fill="#F0F0F0" cx="224.728136" cy="123.909942" rx="32.1654237" ry="32.2065109"></ellipse>
                <path d="M224.00678,92.8588029 C241.195932,92.8588029 255.179661,106.860394 255.179661,124.071504 C255.179661,141.282613 241.195932,155.285562 224.00678,155.285562 C206.817627,155.285562 192.835254,141.283971 192.835254,124.071504 C192.835254,106.860394 206.817627,92.8588029 224.00678,92.8588029 L224.00678,92.8588029 Z M224.00678,90.1434745 C205.292203,90.1434745 190.12339,105.333022 190.12339,124.071504 C190.12339,142.809985 205.293559,158.000891 224.00678,158.000891 C242.722712,158.000891 257.891525,142.811343 257.891525,124.071504 C257.891525,105.33438 242.722712,90.1434745 224.00678,90.1434745 L224.00678,90.1434745 L224.00678,90.1434745 Z" id="Shape" fill="#3E3B3E"></path>
                <path d="M224.013559,92.5967737 C241.387119,92.5967737 255.522712,106.735489 255.522712,124.112234 C255.522712,141.490336 241.387119,155.629051 224.013559,155.629051 C218.549153,155.629051 213.130847,154.172277 208.343051,151.414861 L206.543729,150.378964 L205.075254,151.847956 L176.329492,180.599212 C175.159322,181.772234 173.598644,182.418482 171.938983,182.418482 C170.279322,182.418482 168.715932,181.770876 167.541695,180.596496 C166.370169,179.423474 165.72339,177.863518 165.72339,176.204453 C165.72339,174.545387 166.370169,172.984073 167.541695,171.811051 L196.28339,143.062511 L197.755932,141.590803 L196.715932,139.785109 C193.962034,135.000701 192.505763,129.580905 192.505763,124.112234 C192.505763,106.735489 206.638644,92.5967737 224.013559,92.5967737 L224.013559,92.5967737 Z M224.013559,89.8814453 C205.144407,89.8814453 189.793898,105.236628 189.793898,124.112234 C189.793898,130.312686 191.473898,136.118058 194.367458,141.141416 L165.625763,169.889956 C162.141017,173.37508 162.141017,179.032467 165.625763,182.517591 C167.369492,184.26219 169.652881,185.13381 171.938983,185.13381 C174.222373,185.13381 176.508475,184.26219 178.248136,182.517591 L206.991186,153.767693 C212.012203,156.659518 217.812881,158.343022 224.013559,158.343022 C242.882712,158.343022 258.234576,142.987839 258.234576,124.110876 C258.234576,105.236628 242.882712,89.8814453 224.013559,89.8814453 L224.013559,89.8814453 L224.013559,89.8814453 Z" id="Shape" fill="#3E3B3E"></path>
                <g transform="translate(283.389831, 67.883212)">
                    <ellipse id="Oval" fill="#F0F0F0" cx="40.6928814" cy="21.8909781" rx="20.6711864" ry="20.6975912"></ellipse>
                    <path d="M40.2291525,2.90540146 C50.7416949,2.90540146 59.2949153,11.4695474 59.2949153,21.9955182 C59.2949153,32.5214891 50.7416949,41.085635 40.2291525,41.085635 C29.7179661,41.085635 21.1647458,32.5214891 21.1647458,21.9955182 C21.1647458,11.4695474 29.7179661,2.90540146 40.2291525,2.90540146 L40.2291525,2.90540146 Z M40.2291525,0.190072993 C28.2020339,0.190072993 18.4528814,9.9530365 18.4528814,21.9955182 C18.4528814,34.038 28.200678,43.8009635 40.2291525,43.8009635 C52.2576271,43.8009635 62.0067797,34.038 62.0067797,21.9955182 C62.0054237,9.9530365 52.2576271,0.190072993 40.2291525,0.190072993 L40.2291525,0.190072993 L40.2291525,0.190072993 Z" id="Shape" fill="#3E3B3E"></path>
                    <path d="M40.2332203,2.73705109 C50.8650847,2.73705109 59.5159322,11.3880876 59.5159322,22.0213139 C59.5159322,32.6545401 50.8650847,41.3055766 40.2332203,41.3055766 C36.8894915,41.3055766 33.5755932,40.4135912 30.6467797,38.7273723 L28.8474576,37.6914745 L27.3789831,39.1604672 L8.90169492,57.639635 C8.33355932,58.209854 7.57559322,58.5234745 6.76745763,58.5234745 C5.95932203,58.5234745 5.19864407,58.2084964 4.62644068,57.635562 C4.05559322,57.0653431 3.74237288,56.3077664 3.74237288,55.4999562 C3.74237288,54.692146 4.05559322,53.9345693 4.62644068,53.3629927 L23.0983051,34.8878978 L24.5708475,33.4148321 L23.5308475,31.6091387 C21.8454237,28.6833723 20.9545763,25.3679562 20.9545763,22.0199562 C20.9532203,11.3880876 29.6027119,2.73705109 40.2332203,2.73705109 L40.2332203,2.73705109 Z M40.2332203,0.0217226277 C28.1071186,0.0217226277 18.2413559,9.89058394 18.2413559,22.0213139 C18.2413559,26.0074161 19.320678,29.7382774 21.1810169,32.9668029 L2.70915254,51.4418978 C0.469152542,53.6820438 0.469152542,57.3178686 2.70915254,59.5566569 C3.82915254,60.6780876 5.29627119,61.2388029 6.76610169,61.2388029 C8.23322034,61.2388029 9.70305085,60.6780876 10.820339,59.5566569 L29.2935593,41.081562 C32.520678,42.9402044 36.2481356,44.0209051 40.2318644,44.0209051 C52.359322,44.0209051 62.2264407,34.1534015 62.2264407,22.0213139 C62.2277966,9.89058394 52.360678,0.0217226277 40.2332203,0.0217226277 L40.2332203,0.0217226277 L40.2332203,0.0217226277 Z" id="Shape" fill="#3E3B3E"></path>
                </g>
                <g transform="translate(0.000000, 114.043796)">
                    <ellipse id="Oval" fill="#F0F0F0" cx="28.2481356" cy="15.9294745" rx="14.7213559" ry="14.7401606"></ellipse>
                    <path d="M27.9186441,3.19051095 C34.9749153,3.19051095 40.7159322,8.93886131 40.7159322,16.004146 C40.7159322,23.0694307 34.9762712,28.817781 27.9186441,28.817781 C20.8610169,28.817781 15.1213559,23.0694307 15.1213559,16.004146 C15.1213559,8.93886131 20.8623729,3.19051095 27.9186441,3.19051095 L27.9186441,3.19051095 Z M27.9186441,0.475182482 C19.3532203,0.475182482 12.4094915,7.42778102 12.4094915,16.004146 C12.4094915,24.5805109 19.3518644,31.5331095 27.9186441,31.5331095 C36.4854237,31.5331095 43.4277966,24.5805109 43.4277966,16.004146 C43.4277966,7.42778102 36.4840678,0.475182482 27.9186441,0.475182482 L27.9186441,0.475182482 L27.9186441,0.475182482 Z" id="Shape" fill="#3E3B3E"></path>
                    <path d="M27.9213559,3.06967883 C35.0630508,3.06967883 40.8732203,8.88048175 40.8732203,16.0217956 C40.8732203,23.1644672 35.0630508,28.9752701 27.9213559,28.9752701 C25.6772881,28.9752701 23.4508475,28.3765401 21.4820339,27.2428905 L19.6827119,26.2069927 L18.2142373,27.6759854 L5.05491525,40.8371825 C4.70779661,41.1861022 4.29966102,41.2376934 4.08677966,41.2376934 C3.71932203,41.2376934 3.37491525,41.0951387 3.11322034,40.8331095 C2.76474576,40.4841898 2.71186441,40.0768905 2.71186441,39.8650949 C2.71186441,39.6532993 2.76474576,39.2446423 3.11322034,38.8957226 L16.2684746,25.7385985 L17.7423729,24.2655328 L16.7010169,22.4598394 C15.5688136,20.4952993 14.9708475,18.2700876 14.9708475,16.0217956 C14.9708475,8.88048175 20.779661,3.06967883 27.9213559,3.06967883 L27.9213559,3.06967883 Z M27.9213559,0.354350365 C19.2854237,0.354350365 12.2589831,7.3829781 12.2589831,16.0217956 C12.2589831,18.8606715 13.0264407,21.5176204 14.3525424,23.8175036 L1.19728814,36.9746277 C-0.398644068,38.5698832 -0.398644068,41.1589489 1.19728814,42.7542044 C1.9959322,43.5525109 3.04,43.9516642 4.08677966,43.9516642 C5.13220339,43.9516642 6.17898305,43.5525109 6.97491525,42.7542044 L20.1301695,29.5970803 C22.4284746,30.9208029 25.0833898,31.6905985 27.9213559,31.6905985 C36.5586441,31.6905985 43.5850847,24.6633285 43.5850847,16.0217956 C43.5850847,7.3829781 36.5586441,0.354350365 27.9213559,0.354350365 L27.9213559,0.354350365 L27.9213559,0.354350365 Z" id="Shape" fill="#3E3B3E"></path>
                </g>
                <g transform="translate(193.898305, 86.890511)" id="Shape">
                    <path d="M22.7376271,31.3959854 L3.66915254,49.7095182 L1.4779661,41.6911533 L26.4122034,17.847854 L32.4027119,38.493854 L65.4223729,9.42762044 L61.5037288,5.29217518 L79.5240678,1.85592701 L73.4291525,17.8790803 L70.4501695,14.7347299 L28.5966102,51.5790219 L22.7376271,31.3959854 Z" fill="#6ABEEC"></path>
                    <path d="M78.4583051,2.74927007 L73.1783051,16.6286715 L70.4922034,13.7938686 L28.9491525,50.3652701 L23.0752542,30.1306423 L4.02169492,48.4305985 L2.23728814,41.9043066 L26.0732203,19.1118394 L32.0488136,39.7089635 L66.3972881,9.47242336 L62.8488136,5.72662774 L78.4583051,2.74927007 L78.4583051,2.74927007 Z M80.5911864,0.961226277 L78.2047458,1.4160438 L62.5952542,4.3920438 L60.1572881,4.85636496 L61.8657627,6.65934307 L64.4447458,9.38281752 L32.7566102,37.2773869 L27.3749153,18.7316934 L26.7525424,16.5838686 L25.1376271,18.1288905 L1.30169492,40.9213577 L0.715932203,41.4807153 L0.928813559,42.2613723 L2.71322034,48.7876642 L3.31525424,50.988438 L4.96,49.4081168 L22.3972881,32.6599708 L27.6461017,50.7427007 L28.24,52.7927737 L29.8427119,51.3821606 L70.4054237,15.6742336 L72.1925424,17.5613869 L73.6772881,19.1267737 L74.4433898,17.1106423 L79.7233898,3.23124088 L80.5911864,0.961226277 L80.5911864,0.961226277 Z" fill="#F0F0F0"></path>
                </g>
                <rect id="Rectangle-path" fill="#3E3B3E" x="262.302373" y="156.488453" width="136.92339" height="2.71532847"></rect>
                <rect id="Rectangle-path" fill="#6ABEEC" x="378.51661" y="50.4087153" width="10.6101695" height="102.824058"></rect>
                <path d="M367.049492,67.2043796 L356.437966,67.2043796 L356.437966,79.5428321 C357.121356,82.2866715 357.464407,85.0277956 357.464407,87.9413431 C357.464407,90.8548905 357.121356,93.5973723 356.437966,96.3384964 L356.437966,153.235489 L367.049492,153.235489 L367.049492,67.2043796 L367.049492,67.2043796 Z" id="Shape" fill="#6ABEEC"></path>
                <path d="M333.503729,153.232774 L344.115254,153.232774 L344.115254,114.844818 C340.862373,117.24381 337.269153,119.129606 333.503729,120.157358 L333.503729,153.232774 L333.503729,153.232774 Z" id="Shape" fill="#6ABEEC"></path>
                <path d="M309.712542,153.232774 L320.324068,153.232774 L320.324068,121.357533 C318.440678,121.186467 316.558644,120.842978 314.675254,120.157358 L309.712542,120.157358 L309.712542,153.232774 L309.712542,153.232774 Z" id="Shape" fill="#6ABEEC"></path>
                <path d="M285.407458,153.232774 L296.020339,153.232774 L296.020339,136.780599 L293.624407,136.780599 L285.407458,144.83562 L285.407458,153.232774 Z" id="Shape" fill="#6ABEEC"></path>
                <g transform="translate(269.830508, 16.291971)" id="Shape" fill="#3E3B3E">
                    <path d="M3.77898305,12.9086715 L3.77898305,19.6019562 L0.321355932,19.6019562 L0.321355932,2.47637956 L3.77898305,2.47637956 L3.77898305,8.56957664 C4.82440678,7.50788321 5.9959322,6.9770365 7.29491525,6.9770365 C8.59254237,6.9770365 9.68813559,7.43864234 10.580339,8.36185401 C11.4698305,9.28506569 11.9159322,10.5151095 11.9159322,12.0547007 L11.9159322,19.6019562 L8.45830508,19.6019562 L8.45830508,12.8163504 C8.45830508,10.9088321 7.75864407,9.95439416 6.36067797,9.95439416 C5.66915254,9.95439416 5.06576271,10.2042044 4.55050847,10.7038248 C4.03661017,11.2048029 3.77898305,11.9392993 3.77898305,12.9086715 L3.77898305,12.9086715 Z"></path>
                    <path d="M19.1783051,9.67743066 L19.1783051,15.239781 C19.1783051,15.7163212 19.3016949,16.0896788 19.5471186,16.3584964 C19.7925424,16.6286715 20.0840678,16.7630803 20.4230508,16.7630803 C21.0684746,16.7630803 21.6135593,16.4711825 22.059661,15.8860292 L23.3505085,18.3094599 C22.2738983,19.2951241 21.140339,19.7865985 19.9498305,19.7865985 C18.759322,19.7865985 17.7518644,19.3942336 16.9301695,18.6095036 C16.1084746,17.8247737 15.6962712,16.7549343 15.6962712,15.4013431 L15.6962712,9.67743066 L14.2454237,9.67743066 L14.2454237,7.18475912 L15.6962712,7.18475912 L15.6962712,3.46883212 L19.1769492,3.46883212 L19.1769492,7.18475912 L22.1735593,7.18475912 L22.1735593,9.67743066 L19.1783051,9.67743066 L19.1783051,9.67743066 Z"></path>
                    <path d="M29.319322,9.67743066 L29.319322,15.239781 C29.319322,15.7163212 29.4427119,16.0896788 29.6881356,16.3584964 C29.9335593,16.6286715 30.2250847,16.7630803 30.5640678,16.7630803 C31.2094915,16.7630803 31.7545763,16.4711825 32.200678,15.8860292 L33.4915254,18.3094599 C32.4149153,19.2951241 31.2813559,19.7865985 30.0908475,19.7865985 C28.900339,19.7865985 27.8928814,19.3942336 27.0711864,18.6095036 C26.2494915,17.8247737 25.8372881,16.7549343 25.8372881,15.4013431 L25.8372881,9.67743066 L24.3864407,9.67743066 L24.3864407,7.18475912 L25.8372881,7.18475912 L25.8372881,3.46883212 L29.3179661,3.46883212 L29.3179661,7.18475912 L32.3145763,7.18475912 L32.3145763,9.67743066 L29.319322,9.67743066 L29.319322,9.67743066 Z"></path>
                    <path d="M42.5505085,6.9770365 C43.9932203,6.9770365 45.2827119,7.58119708 46.4122034,8.78816058 C47.5416949,9.99512409 48.1057627,11.515708 48.1057627,13.3458394 C48.1057627,15.1759708 47.5416949,16.7087737 46.4122034,17.9388175 C45.2827119,19.170219 43.959322,19.7852409 42.4461017,19.7852409 C40.9328814,19.7852409 39.7138983,19.1770073 38.7932203,17.9618978 L38.7932203,24.0781752 L35.3355932,24.0781752 L35.3355932,7.18475912 L38.7932203,7.18475912 L38.7932203,8.56957664 C39.8535593,7.50788321 41.1050847,6.9770365 42.5505085,6.9770365 L42.5505085,6.9770365 Z M38.7457627,13.4055766 C38.7457627,14.4129635 39.0264407,15.2370657 39.5877966,15.8751679 C40.1477966,16.5146277 40.8284746,16.8336788 41.6271186,16.8336788 C42.4271186,16.8336788 43.1254237,16.5146277 43.7247458,15.8751679 C44.3240678,15.2370657 44.6237288,14.4170365 44.6237288,13.416438 C44.6237288,12.4171971 44.3322034,11.5781606 43.7477966,10.9006861 C43.1633898,10.2232117 42.4650847,9.88515328 41.6501695,9.88515328 C40.8338983,9.88515328 40.1477966,10.2204964 39.5877966,10.8898248 C39.0264407,11.5591533 38.7457627,12.3968321 38.7457627,13.4055766 L38.7457627,13.4055766 Z"></path>
                    <path d="M51.1810169,13.1272555 C50.7891525,12.7348905 50.5925424,12.2542774 50.5925424,11.6840584 C50.5925424,11.1151971 50.7891525,10.6345839 51.1810169,10.2408613 C51.5728814,9.84713869 52.0542373,9.65163504 52.6223729,9.65163504 C53.1905085,9.65163504 53.6705085,9.84849635 54.0637288,10.2408613 C54.4569492,10.6332263 54.6522034,11.1151971 54.6522034,11.6840584 C54.6522034,12.2529197 54.4555932,12.7335328 54.0637288,13.1272555 C53.6718644,13.5209781 53.1905085,13.7164818 52.6223729,13.7164818 C52.0542373,13.7164818 51.5728814,13.5196204 51.1810169,13.1272555 L51.1810169,13.1272555 Z M51.1810169,19.1987299 C50.7891525,18.806365 50.5925424,18.3257518 50.5925424,17.7555328 C50.5925424,17.1853139 50.7891525,16.7060584 51.1810169,16.3123358 C51.5728814,15.9186131 52.0542373,15.7231095 52.6223729,15.7231095 C53.1905085,15.7231095 53.6705085,15.9199708 54.0637288,16.3123358 C54.4569492,16.7047007 54.6522034,17.1853139 54.6522034,17.7555328 C54.6522034,18.3257518 54.4555932,18.8050073 54.0637288,19.1987299 C53.6718644,19.5924526 53.1905085,19.7879562 52.6223729,19.7879562 C52.0542373,19.7879562 51.5728814,19.5910949 51.1810169,19.1987299 L51.1810169,19.1987299 Z"></path>
                    <path d="M66.4745763,1.02232117 L69.7477966,1.02232117 L60.0664407,22.1869489 L56.8162712,22.1869489 L66.4745763,1.02232117 L66.4745763,1.02232117 Z"></path>
                    <path d="M74.1044068,1.02232117 L77.3776271,1.02232117 L67.6962712,22.1869489 L64.4461017,22.1869489 L74.1044068,1.02232117 L74.1044068,1.02232117 Z"></path>
                </g>
            </g>
        </g>
    </g>
</svg>