<?xml version="1.0" encoding="UTF-8" standalone="no"?>
<svg width="385px" height="226px" viewBox="0 0 385 226" version="1.1" xmlns="http://www.w3.org/2000/svg" xmlns:xlink="http://www.w3.org/1999/xlink" xmlns:sketch="http://www.bohemiancoding.com/sketch/ns">
    <!-- Generator: Sketch 3.3.1 (12002) - http://www.bohemiancoding.com/sketch -->
    <title>web</title>
    <desc>Created with Sketch.</desc>
    <defs></defs>
    <g id="Page-1" stroke="none" stroke-width="1" fill="none" fill-rule="evenodd" sketch:type="MSPage">
        <g id="web" sketch:type="MSLayerGroup">
            <g id="Group" sketch:type="MSShapeGroup">
                <g transform="translate(0.000000, 7.738636)">
                    <path d="M166.264632,20.3977557 C166.227291,20.4261307 166.210552,20.4622443 166.22214,20.5060966 C166.231154,20.5525284 166.260769,20.5821932 166.300686,20.5976705 L168.203796,21.2515852 C168.245,21.264483 168.274615,21.2567443 168.318395,21.2309489 C168.350585,21.2103125 168.358311,21.1819375 168.358311,21.1432443 L168.358311,19.1273295 C168.358311,19.0834773 168.332559,19.0538125 168.295217,19.0267273 C168.255301,19.0073807 168.215385,19.0099602 168.175468,19.039625 L167.732525,19.3556193 L167.692609,19.3852841 C167.451823,19.1428068 167.174983,18.9467614 166.858227,18.812625 C166.533746,18.67075 166.188662,18.5998125 165.828127,18.5998125 C165.463729,18.5998125 165.118645,18.67075 164.794164,18.812625 C164.47097,18.9467614 164.191555,19.1402273 163.95592,19.380125 C163.713846,19.6213125 163.520702,19.8999034 163.380351,20.2249261 C163.242575,20.5499489 163.173043,20.8943182 163.173043,21.2619034 C163.173043,21.6281989 163.242575,21.9751477 163.380351,22.2975909 C163.520702,22.6213239 163.715134,22.9037841 163.95592,23.1436818 C164.191555,23.3848693 164.47097,23.5757557 164.794164,23.7111818 C165.118645,23.851767 165.465017,23.9227045 165.828127,23.9227045 C166.047023,23.9227045 166.264632,23.8956193 166.475803,23.8414489 C166.688261,23.7872784 166.882692,23.709892 167.071973,23.6105795 C167.259967,23.511267 167.435084,23.3887386 167.598612,23.2429943 C167.76214,23.0959602 167.907642,22.9308693 168.032542,22.7464318 C168.054431,22.7090284 168.063445,22.6780739 168.054431,22.6471193 C168.04413,22.6084261 168.028679,22.5774716 168.000351,22.5645739 L167.333361,22.1002557 C167.301171,22.07575 167.265117,22.0718807 167.223913,22.07575 C167.180134,22.0821989 167.149231,22.1028352 167.127341,22.1389489 C166.98699,22.3582102 166.793846,22.52975 166.567224,22.6484091 C166.335452,22.773517 166.089515,22.8328466 165.817826,22.8328466 C165.606656,22.8328466 165.401923,22.7915739 165.215217,22.7090284 C165.019498,22.6251932 164.858545,22.512983 164.710468,22.3685284 C164.572692,22.2266534 164.456806,22.0602727 164.371823,21.8693864 C164.29199,21.6772102 164.250786,21.4734261 164.250786,21.2606136 C164.250786,21.0452216 164.29199,20.8427273 164.371823,20.6518409 C164.456806,20.4609545 164.570117,20.2894148 164.710468,20.1475398 C164.857258,20.0069545 165.019498,19.8973239 165.215217,19.8096193 C165.401923,19.7283636 165.606656,19.6858011 165.817826,19.6858011 C166.003244,19.6858011 166.179649,19.7141761 166.339314,19.7735057 C166.506706,19.8289659 166.654783,19.9140909 166.78612,20.021142 L166.711438,20.0753125 L166.264632,20.3977557 L166.264632,20.3977557 Z" id="Shape"></path>
                    <path d="M108.595753,129.680199 L170.584615,129.680199 C171.309548,129.680199 171.897993,129.086903 171.897993,128.363341 L171.897993,28.516875 L108.595753,28.516875 L108.595753,129.680199 L108.595753,129.680199 Z M118.151221,33.9674545 L163.775652,33.9674545 L163.775652,47.2069716 L118.151221,47.2069716 L118.151221,33.9674545 L118.151221,33.9674545 Z M118.151221,55.7671932 L163.775652,55.7671932 L163.775652,82.2384886 L118.151221,82.2384886 L118.151221,55.7671932 L118.151221,55.7671932 Z M118.151221,87.7612955 L140.966656,87.7612955 L140.966656,92.7423977 L118.151221,92.7423977 L118.151221,87.7612955 L118.151221,87.7612955 Z M118.151221,98.1143011 L163.775652,98.1143011 L163.775652,103.095403 L118.151221,103.095403 L118.151221,98.1143011 L118.151221,98.1143011 Z M118.151221,108.475045 L163.775652,108.475045 L163.775652,113.448409 L118.151221,113.448409 L118.151221,108.475045 L118.151221,108.475045 Z M118.151221,118.829341 L163.775652,118.829341 L163.775652,123.800125 L118.151221,123.800125 L118.151221,118.829341 L118.151221,118.829341 Z" id="Shape"></path>
                    <path d="M159.933378,19.2408295 L159.933378,23.6208977 C159.933378,23.9794545 159.646237,24.2657841 159.29214,24.2657841 L159.296003,24.2657841 C159.652676,24.2657841 159.934666,23.9794545 159.934666,23.6208977 L159.934666,19.2408295 C159.934666,18.8874318 159.64495,18.5998125 159.290853,18.5998125 C159.643662,18.5998125 159.933378,18.8874318 159.933378,19.2408295 L159.933378,19.2408295 Z" id="Shape" fill="#000000"></path>
                    <ellipse id="Oval" fill="#3E3B3E" cx="157.033645" cy="8.9806875" rx="1.6108194" ry="1.61350568"></ellipse>
                    <ellipse id="Oval" fill="#3E3B3E" cx="161.869967" cy="8.9806875" rx="1.6108194" ry="1.61350568"></ellipse>
                    <ellipse id="Oval" fill="#3E3B3E" cx="166.706288" cy="8.9806875" rx="1.6108194" ry="1.61350568"></ellipse>
                    <path d="M11.2422575,22.7154773 L11.2448328,22.7154773 L11.2448328,20.0701534 L9.07518395,20.0701534 L9.07518395,19.0125398 L9.07518395,19.0073807 L6.35314381,21.3921705 L9.08033445,23.7730909 L9.08033445,22.716767 L9.08033445,22.7154773 L11.2422575,22.7154773 Z" id="Shape" fill="#3E3B3E"></path>
                    <path d="M166.264632,20.3977557 C166.227291,20.4261307 166.210552,20.4622443 166.22214,20.5060966 C166.231154,20.5525284 166.260769,20.5821932 166.300686,20.5976705 L168.203796,21.2515852 C168.247575,21.264483 168.274615,21.2567443 168.318395,21.2309489 C168.346722,21.2103125 168.358311,21.1819375 168.358311,21.1432443 L168.358311,19.1273295 C168.358311,19.0834773 168.336421,19.0538125 168.295217,19.0267273 C168.255301,19.0073807 168.21796,19.0099602 168.175468,19.039625 L167.732525,19.3556193 L167.692609,19.3852841 C167.45311,19.1428068 167.174983,18.9467614 166.858227,18.812625 C166.533746,18.67075 166.188662,18.5998125 165.828127,18.5998125 C165.463729,18.5998125 165.118645,18.67075 164.794164,18.812625 C164.47097,18.9467614 164.191555,19.1402273 163.95592,19.380125 C163.713846,19.6213125 163.520702,19.8999034 163.380351,20.2249261 C163.242575,20.5499489 163.173043,20.8943182 163.173043,21.2619034 C163.173043,21.6281989 163.242575,21.9751477 163.380351,22.2975909 C163.520702,22.6213239 163.715134,22.9037841 163.95592,23.1436818 C164.191555,23.3848693 164.47097,23.5757557 164.794164,23.7111818 C165.118645,23.851767 165.465017,23.9227045 165.828127,23.9227045 C166.047023,23.9227045 166.264632,23.8956193 166.475803,23.8414489 C166.688261,23.7872784 166.880117,23.709892 167.071973,23.6105795 C167.254816,23.511267 167.435084,23.3887386 167.598612,23.2429943 C167.76214,23.0959602 167.907642,22.9308693 168.032542,22.7464318 C168.054431,22.7090284 168.063445,22.6780739 168.054431,22.6471193 C168.04413,22.6084261 168.028679,22.5774716 168.000351,22.5645739 L167.333361,22.1002557 C167.301171,22.07575 167.262542,22.0718807 167.223913,22.07575 C167.177559,22.0821989 167.149231,22.1028352 167.127341,22.1389489 C166.98699,22.3582102 166.793846,22.52975 166.567224,22.6484091 C166.335452,22.773517 166.089515,22.8328466 165.817826,22.8328466 C165.606656,22.8328466 165.401923,22.7915739 165.215217,22.7090284 C165.019498,22.6251932 164.854682,22.512983 164.710468,22.3685284 C164.570117,22.2266534 164.456806,22.0602727 164.371823,21.8693864 C164.29199,21.6772102 164.250786,21.4734261 164.250786,21.2606136 C164.250786,21.0452216 164.29199,20.8427273 164.371823,20.6518409 C164.456806,20.4609545 164.572692,20.2894148 164.710468,20.1475398 C164.857258,20.0069545 165.019498,19.8973239 165.215217,19.8096193 C165.39806,19.7283636 165.606656,19.6858011 165.817826,19.6858011 C166.003244,19.6858011 166.179649,19.7141761 166.339314,19.7735057 C166.506706,19.8289659 166.654783,19.9140909 166.78612,20.021142 L166.711438,20.0753125 L166.264632,20.3977557 L166.264632,20.3977557 Z" id="Shape" fill="#3E3B3E"></path>
                    <path d="M13.598612,22.7154773 L15.7631104,22.7154773 L15.7656856,22.7154773 L15.7656856,23.7730909 L15.7656856,23.7756705 L15.7656856,23.77825 L18.4877258,21.3921705 L15.7656856,19.0073807 L15.7656856,19.0099602 L15.7656856,20.0701534 L15.7656856,20.0753125 L13.598612,20.0753125 L13.598612,22.7128977 L13.598612,22.7154773 Z" id="Shape" fill="#3E3B3E"></path>
                    <path d="M19.9594816,21.264483 L20.8891472,21.264483 L20.8891472,23.9252841 L20.8917224,23.9252841 L22.3325753,23.9252841 L22.3325753,22.4149602 L22.3351505,22.4149602 L23.3163211,22.4149602 L23.3163211,23.9252841 L23.3188963,23.9252841 L24.7958027,23.9252841 L24.8009532,23.9252841 L24.8009532,21.264483 L25.7254682,21.264483 L25.7306187,21.264483 L25.4988462,21.05425 L22.8424749,18.5998125 L19.9594816,21.264483 L19.9594816,21.264483 Z" id="Shape" fill="#3E3B3E"></path>
                    <path id="Shape" fill="#3E3B3E" d="M9.07518395,23.7756705 L9.08033445,23.77825 L9.08033445,23.7730909 L9.07518395,23.7756705 Z"></path>
                    <path id="Rectangle-path" fill="#3E3B3E"></path>
                    <path d="M108.595753,129.680199 L170.584615,129.680199 C171.309548,129.680199 171.899281,129.086903 171.899281,128.363341 L171.899281,28.516875 L108.595753,28.516875 L108.595753,129.680199 L108.595753,129.680199 Z" id="Shape"></path>
                    <path d="M159.297291,24.2644943 C159.653963,24.2644943 159.935953,23.9781648 159.935953,23.619608 L159.935953,19.2395398 C159.935953,18.886142 159.646237,18.5985227 159.29214,18.5985227 L29.1544147,18.5985227 C28.8003177,18.5985227 28.5131773,18.886142 28.5131773,19.2395398 L28.5131773,23.619608 C28.5131773,23.9781648 28.7990301,24.2644943 29.1544147,24.2644943 L159.29214,24.2644943 L159.297291,24.2644943 L159.297291,24.2644943 Z" id="Shape"></path>
                    <path d="M170.584615,132.551233 L4.93675585,132.551233 C2.63061873,132.551233 0.75583612,130.672034 0.75583612,128.363341 L0.75583612,5.04301136 C0.75583612,2.73173864 2.63190635,0.852539773 4.93675585,0.852539773 L170.584615,0.852539773 C172.889465,0.852539773 174.764247,2.73173864 174.764247,5.04301136 L174.764247,128.363341 C174.764247,130.672034 172.889465,132.551233 170.584615,132.551233 L170.584615,132.551233 Z M4.93675585,3.43208523 C4.05086957,3.43208523 3.33108696,4.15564773 3.33108696,5.04301136 L3.33108696,128.363341 C3.33108696,129.250705 4.05215719,129.971688 4.93675585,129.971688 L170.584615,129.971688 C171.469214,129.971688 172.188997,129.249415 172.188997,128.363341 L172.188997,5.04301136 C172.188997,4.15564773 171.469214,3.43208523 170.584615,3.43208523 L4.93675585,3.43208523 L4.93675585,3.43208523 Z" id="Shape" fill="#3E3B3E"></path>
                    <path d="M9.08033445,23.7730909 L6.35314381,21.3921705 L9.07518395,19.0073807 L9.07518395,19.0099602 L9.07518395,20.0701534 L11.2448328,20.0701534 L11.2448328,22.7128977 L11.2422575,22.7128977 L9.08033445,22.7128977 L9.08033445,22.7154773 L9.08033445,23.7730909 Z" id="Shape" fill="#3E3B3E"></path>
                    <path d="M15.7656856,20.0753125 L15.7656856,20.0753125 L15.7656856,19.0099602 L15.7656856,19.0073807 L18.4877258,21.3921705 L15.7656856,23.77825 L15.7656856,23.7756705 L15.7656856,23.7730909 L15.7656856,22.7154773 L15.7631104,22.7154773 L13.598612,22.7154773 L13.598612,22.7128977 L13.598612,20.0753125 L15.7656856,20.0753125 Z" id="Shape" fill="#3E3B3E"></path>
                    <path d="M22.8424749,18.5998125 L25.5014214,21.05425 L25.7306187,21.264483 L24.8035284,21.264483 L24.8009532,21.264483 L24.8009532,23.9252841 L23.3188963,23.9252841 L23.3163211,23.9252841 L23.3163211,22.4149602 L22.3351505,22.4149602 L22.3325753,22.4149602 L22.3325753,23.9252841 L20.8917224,23.9252841 L20.8891472,23.9252841 L20.8891472,21.264483 L19.9594816,21.264483 L22.8424749,18.5998125 Z" id="Shape" fill="#3E3B3E"></path>
                    <path d="M29.1557023,24.2644943 C28.8016054,24.2644943 28.5144649,23.9781648 28.5144649,23.619608 L28.5144649,19.2395398 C28.5144649,18.886142 28.8003177,18.5985227 29.1557023,18.5985227 L159.293428,18.5985227 C159.647525,18.5985227 159.937241,18.886142 159.937241,19.2395398 L159.937241,23.619608 C159.937241,23.9781648 159.655251,24.2644943 159.298579,24.2644943 L159.294716,24.2644943 L29.1557023,24.2644943 L29.1557023,24.2644943 Z" id="Shape" fill="#6ABEEC"></path>
                    <path id="Rectangle-path" fill="#3E3B3E"></path>
                    <g transform="translate(6.438127, 33.534091)" id="Rectangle-path" fill="#6ABEEC">
                        <rect x="4.1641806" y="8.3848125" width="22.3351505" height="2.36544318"></rect>
                        <rect x="4.1641806" y="0.433363636" width="6.72011706" height="2.36286364"></rect>
                        <rect x="0.515050167" y="72.0054318" width="2.03831104" height="2.355125"></rect>
                        <rect x="12.5414716" y="84.0196648" width="24.399214" height="2.35641477"></rect>
                        <rect x="0.515050167" y="75.9818011" width="2.03831104" height="2.355125"></rect>
                        <rect x="38.5527926" y="84.0196648" width="6.72011706" height="2.35641477"></rect>
                        <rect x="0.515050167" y="79.9555909" width="2.03831104" height="2.36157386"></rect>
                        <rect x="4.1641806" y="4.41102273" width="16.7507191" height="2.36157386"></rect>
                        <rect x="0.515050167" y="83.93325" width="2.03831104" height="2.35383523"></rect>
                        <rect x="0.515050167" y="87.9109091" width="2.03831104" height="2.35383523"></rect>
                        <rect x="12.5414716" y="87.9109091" width="38.2218729" height="2.35383523"></rect>
                        <rect x="12.5414716" y="36.2206875" width="53.484097" height="2.35899432"></rect>
                        <rect x="59.320903" y="79.9555909" width="6.72011706" height="2.36157386"></rect>
                        <rect x="12.5414716" y="44.1721364" width="45.1673244" height="2.36028409"></rect>
                        <rect x="12.5414716" y="32.2430284" width="38.2218729" height="2.36157386"></rect>
                        <rect x="4.1641806" y="12.3611818" width="16.7507191" height="2.36286364"></rect>
                        <rect x="12.5414716" y="72.0054318" width="53.484097" height="2.355125"></rect>
                        <rect x="12.5414716" y="68.0290625" width="38.2218729" height="2.35383523"></rect>
                        <rect x="52.3741639" y="87.9109091" width="6.72140468" height="2.35383523"></rect>
                        <rect x="12.5414716" y="64.139108" width="24.399214" height="2.35770455"></rect>
                        <rect x="12.5414716" y="79.9555909" width="45.1673244" height="2.36157386"></rect>
                        <rect x="12.5414716" y="28.3517841" width="24.399214" height="2.36028409"></rect>
                        <rect x="0.515050167" y="16.3388409" width="2.03831104" height="2.36157386"></rect>
                        <rect x="0.515050167" y="12.3611818" width="2.03831104" height="2.36286364"></rect>
                        <rect x="0.515050167" y="24.2915795" width="2.03831104" height="2.36157386"></rect>
                        <rect x="0.515050167" y="0.433363636" width="2.03831104" height="2.36286364"></rect>
                        <rect x="0.515050167" y="20.3139205" width="2.03831104" height="2.36415341"></rect>
                        <rect x="0.515050167" y="4.41102273" width="2.03831104" height="2.36157386"></rect>
                        <rect x="0.515050167" y="28.2653693" width="2.03831104" height="2.36673295"></rect>
                        <rect x="0.515050167" y="32.2430284" width="2.03831104" height="2.36157386"></rect>
                        <rect x="0.515050167" y="68.0290625" width="2.03831104" height="2.35383523"></rect>
                        <rect x="0.515050167" y="56.0999545" width="2.03831104" height="2.36286364"></rect>
                        <rect x="0.515050167" y="64.053983" width="2.03831104" height="2.36157386"></rect>
                        <rect x="0.515050167" y="52.124875" width="2.03831104" height="2.36028409"></rect>
                        <rect x="0.515050167" y="60.0763239" width="2.03831104" height="2.36157386"></rect>
                        <rect x="0.515050167" y="48.1497955" width="2.03831104" height="2.36157386"></rect>
                        <rect x="0.515050167" y="36.2206875" width="2.03831104" height="2.35899432"></rect>
                        <rect x="0.515050167" y="40.1970568" width="2.03831104" height="2.36028409"></rect>
                        <rect x="0.515050167" y="44.1721364" width="2.03831104" height="2.36028409"></rect>
                        <rect x="0.515050167" y="8.3848125" width="2.03831104" height="2.36544318"></rect>
                        <rect x="4.1641806" y="87.9109091" width="6.72011706" height="2.35383523"></rect>
                        <rect x="4.1641806" y="72.0054318" width="6.72011706" height="2.355125"></rect>
                        <rect x="67.6325251" y="72.0054318" width="6.72526756" height="2.355125"></rect>
                        <rect x="67.6325251" y="36.2206875" width="6.72526756" height="2.35899432"></rect>
                        <rect x="4.1641806" y="75.9818011" width="53.5446154" height="2.355125"></rect>
                        <rect x="4.1641806" y="79.9555909" width="6.72011706" height="2.36157386"></rect>
                        <rect x="4.1641806" y="84.0196648" width="6.72011706" height="2.35641477"></rect>
                        <rect x="4.1641806" y="16.3388409" width="16.7507191" height="2.36157386"></rect>
                        <rect x="4.1641806" y="32.2430284" width="6.72011706" height="2.36157386"></rect>
                        <rect x="4.1641806" y="36.2206875" width="6.72011706" height="2.35899432"></rect>
                        <rect x="4.1641806" y="28.3517841" width="6.72011706" height="2.36028409"></rect>
                        <rect x="4.1641806" y="40.1970568" width="53.5446154" height="2.36028409"></rect>
                        <rect x="4.1641806" y="20.3139205" width="6.72011706" height="2.36415341"></rect>
                        <rect x="4.1641806" y="24.2915795" width="11.2358194" height="2.36157386"></rect>
                        <rect x="4.1641806" y="68.0290625" width="6.72011706" height="2.35383523"></rect>
                        <rect x="4.1641806" y="60.0763239" width="11.2358194" height="2.36157386"></rect>
                        <rect x="4.1641806" y="56.0999545" width="13.7441137" height="2.36286364"></rect>
                        <rect x="4.1641806" y="64.139108" width="6.72011706" height="2.35770455"></rect>
                        <rect x="4.1641806" y="48.1497955" width="32.776505" height="2.36157386"></rect>
                        <rect x="4.1641806" y="52.124875" width="27.4882274" height="2.36028409"></rect>
                        <rect x="4.1641806" y="44.1721364" width="6.72011706" height="2.36028409"></rect>
                        <rect x="4.1641806" y="24.2915795" width="11.2358194" height="2.36157386"></rect>
                        <rect x="4.1641806" y="32.2430284" width="6.72011706" height="2.36157386"></rect>
                        <rect x="4.1641806" y="40.1970568" width="53.5446154" height="2.36028409"></rect>
                        <rect x="4.1641806" y="52.124875" width="27.4882274" height="2.36028409"></rect>
                        <rect x="4.1641806" y="36.2206875" width="6.72011706" height="2.35899432"></rect>
                        <rect x="4.1641806" y="56.0999545" width="13.7441137" height="2.36286364"></rect>
                        <rect x="12.5414716" y="44.1721364" width="45.1673244" height="2.36028409"></rect>
                        <rect x="12.5414716" y="64.139108" width="24.399214" height="2.35899432"></rect>
                        <rect x="12.5414716" y="68.0290625" width="38.2218729" height="2.35383523"></rect>
                        <rect x="4.1641806" y="28.3517841" width="6.72011706" height="2.36028409"></rect>
                        <rect x="4.1641806" y="8.3848125" width="22.3351505" height="2.36544318"></rect>
                        <rect x="4.1641806" y="16.3388409" width="16.7507191" height="2.36157386"></rect>
                        <rect x="12.5414716" y="28.3517841" width="24.399214" height="2.36028409"></rect>
                        <rect x="12.5414716" y="72.0054318" width="53.484097" height="2.355125"></rect>
                        <rect x="4.1641806" y="0.433363636" width="6.72011706" height="2.36286364"></rect>
                        <rect x="12.5414716" y="32.2430284" width="38.2218729" height="2.36157386"></rect>
                        <rect x="4.1641806" y="12.3611818" width="16.7507191" height="2.36286364"></rect>
                        <rect x="4.1641806" y="20.3139205" width="6.72011706" height="2.36415341"></rect>
                        <rect x="12.5414716" y="79.9555909" width="45.1673244" height="2.36157386"></rect>
                        <rect x="38.5527926" y="84.0196648" width="6.72011706" height="2.35641477"></rect>
                        <rect x="12.5414716" y="84.0196648" width="24.399214" height="2.35641477"></rect>
                        <rect x="4.1641806" y="75.9818011" width="53.5446154" height="2.355125"></rect>
                        <rect x="12.5414716" y="36.2206875" width="53.484097" height="2.35899432"></rect>
                        <rect x="4.1641806" y="64.139108" width="6.72011706" height="2.35770455"></rect>
                        <rect x="4.1641806" y="72.0054318" width="6.72011706" height="2.355125"></rect>
                        <rect x="4.1641806" y="60.0763239" width="11.2358194" height="2.36157386"></rect>
                        <rect x="4.1641806" y="44.1721364" width="6.72011706" height="2.36028409"></rect>
                        <rect x="4.1641806" y="48.1497955" width="32.776505" height="2.36157386"></rect>
                        <rect x="4.1641806" y="4.41102273" width="16.7507191" height="2.36157386"></rect>
                        <rect x="4.1641806" y="68.0290625" width="6.72011706" height="2.35383523"></rect>
                        <rect x="67.6325251" y="72.0054318" width="6.72526756" height="2.35641477"></rect>
                        <rect x="0.515050167" y="20.3139205" width="2.03831104" height="2.36415341"></rect>
                        <rect x="4.1641806" y="84.0196648" width="6.72011706" height="2.35641477"></rect>
                        <rect x="4.1641806" y="87.9109091" width="6.72011706" height="2.35383523"></rect>
                        <rect x="0.515050167" y="16.3388409" width="2.03831104" height="2.36157386"></rect>
                        <rect x="0.515050167" y="4.41102273" width="2.03831104" height="2.36157386"></rect>
                        <rect x="0.515050167" y="12.3611818" width="2.03831104" height="2.36286364"></rect>
                        <rect x="0.515050167" y="8.3848125" width="2.03831104" height="2.36544318"></rect>
                        <rect x="0.515050167" y="0.433363636" width="2.03831104" height="2.36286364"></rect>
                        <rect x="67.6325251" y="36.2206875" width="6.72526756" height="2.35899432"></rect>
                        <rect x="59.320903" y="79.9555909" width="6.72011706" height="2.36157386"></rect>
                        <rect x="4.1641806" y="79.9555909" width="6.72011706" height="2.36157386"></rect>
                        <rect x="12.5414716" y="87.9109091" width="38.2218729" height="2.35383523"></rect>
                        <rect x="52.3741639" y="87.9109091" width="6.72140468" height="2.35383523"></rect>
                        <rect x="0.515050167" y="52.124875" width="2.03831104" height="2.36028409"></rect>
                        <rect x="0.515050167" y="60.0763239" width="2.03831104" height="2.36157386"></rect>
                        <rect x="0.515050167" y="68.0290625" width="2.03831104" height="2.35383523"></rect>
                        <rect x="0.515050167" y="75.9818011" width="2.03831104" height="2.355125"></rect>
                        <rect x="0.515050167" y="64.053983" width="2.03831104" height="2.36157386"></rect>
                        <rect x="0.515050167" y="72.0054318" width="2.03831104" height="2.355125"></rect>
                        <rect x="0.515050167" y="79.9555909" width="2.03831104" height="2.36157386"></rect>
                        <rect x="0.515050167" y="87.9109091" width="2.03831104" height="2.35383523"></rect>
                        <rect x="0.515050167" y="83.93325" width="2.03831104" height="2.35383523"></rect>
                        <rect x="0.515050167" y="36.2206875" width="2.03831104" height="2.35899432"></rect>
                        <rect x="0.515050167" y="24.2915795" width="2.03831104" height="2.36157386"></rect>
                        <rect x="0.515050167" y="56.0999545" width="2.03831104" height="2.36286364"></rect>
                        <rect x="0.515050167" y="40.1970568" width="2.03831104" height="2.36028409"></rect>
                        <rect x="0.515050167" y="28.2653693" width="2.03831104" height="2.36673295"></rect>
                        <rect x="0.515050167" y="32.2430284" width="2.03831104" height="2.36157386"></rect>
                        <rect x="0.515050167" y="44.1721364" width="2.03831104" height="2.36028409"></rect>
                        <rect x="0.515050167" y="48.1497955" width="2.03831104" height="2.36157386"></rect>
                        <rect x="12.5414716" y="79.9581705" width="45.1673244" height="2.36286364"></rect>
                        <rect x="38.5527926" y="84.0196648" width="6.72011706" height="2.35641477"></rect>
                        <rect x="12.5414716" y="84.0196648" width="24.399214" height="2.35641477"></rect>
                        <rect x="4.1641806" y="75.9818011" width="53.5446154" height="2.355125"></rect>
                        <rect x="4.1641806" y="4.41102273" width="16.7507191" height="2.36157386"></rect>
                        <rect x="4.1641806" y="68.031642" width="6.72011706" height="2.35383523"></rect>
                        <rect x="4.1641806" y="72.0054318" width="6.72011706" height="2.355125"></rect>
                        <rect x="4.1641806" y="64.139108" width="6.72011706" height="2.35899432"></rect>
                        <rect x="4.1641806" y="60.0763239" width="11.2358194" height="2.36157386"></rect>
                        <rect x="4.1641806" y="48.1497955" width="32.776505" height="2.36157386"></rect>
                        <rect x="4.1641806" y="44.1721364" width="6.72011706" height="2.36028409"></rect>
                        <rect x="4.1641806" y="52.124875" width="27.4882274" height="2.36028409"></rect>
                        <rect x="12.5414716" y="64.139108" width="24.399214" height="2.35899432"></rect>
                        <rect x="4.1641806" y="56.0999545" width="13.7441137" height="2.36286364"></rect>
                        <rect x="12.5414716" y="68.0290625" width="38.2218729" height="2.35383523"></rect>
                        <rect x="12.5414716" y="44.1721364" width="45.1673244" height="2.36028409"></rect>
                        <rect x="4.1641806" y="40.1970568" width="53.5446154" height="2.36028409"></rect>
                        <rect x="4.1641806" y="36.2206875" width="6.72011706" height="2.35899432"></rect>
                        <rect x="4.1641806" y="32.2430284" width="6.72011706" height="2.36157386"></rect>
                        <rect x="4.1641806" y="28.3517841" width="6.72011706" height="2.36028409"></rect>
                        <rect x="4.1641806" y="24.2915795" width="11.2358194" height="2.36157386"></rect>
                        <rect x="4.1641806" y="16.3388409" width="16.7507191" height="2.36157386"></rect>
                        <rect x="4.1641806" y="12.3611818" width="16.7507191" height="2.36286364"></rect>
                        <rect x="4.1641806" y="20.3139205" width="6.72011706" height="2.36415341"></rect>
                        <rect x="12.5414716" y="32.2430284" width="38.2218729" height="2.36157386"></rect>
                        <rect x="12.5414716" y="28.3517841" width="24.399214" height="2.36028409"></rect>
                        <rect x="4.1641806" y="8.3848125" width="22.3351505" height="2.36544318"></rect>
                        <rect x="4.1641806" y="0.433363636" width="6.72011706" height="2.36286364"></rect>
                        <rect x="12.5414716" y="72.0080114" width="53.484097" height="2.35383523"></rect>
                        <rect x="12.5414716" y="36.2206875" width="53.484097" height="2.35899432"></rect>
                        <rect x="0.515050167" y="87.9109091" width="2.03831104" height="2.35383523"></rect>
                        <rect x="0.515050167" y="83.9358295" width="2.03831104" height="2.35383523"></rect>
                        <rect x="0.515050167" y="79.9581705" width="2.03831104" height="2.35899432"></rect>
                        <rect x="0.515050167" y="75.9818011" width="2.03831104" height="2.355125"></rect>
                        <rect x="0.515050167" y="72.0080114" width="2.03831104" height="2.35383523"></rect>
                        <rect x="0.515050167" y="68.031642" width="2.03831104" height="2.35383523"></rect>
                        <rect x="0.515050167" y="64.053983" width="2.03831104" height="2.36157386"></rect>
                        <rect x="0.515050167" y="60.0763239" width="2.03831104" height="2.36157386"></rect>
                        <rect x="0.515050167" y="56.0999545" width="2.03831104" height="2.36286364"></rect>
                        <rect x="0.515050167" y="52.124875" width="2.03831104" height="2.36028409"></rect>
                        <rect x="0.515050167" y="48.1497955" width="2.03831104" height="2.36157386"></rect>
                        <rect x="0.515050167" y="44.1721364" width="2.03831104" height="2.36028409"></rect>
                        <rect x="0.515050167" y="40.1970568" width="2.03831104" height="2.36028409"></rect>
                        <rect x="0.515050167" y="36.2206875" width="2.03831104" height="2.35899432"></rect>
                        <rect x="0.515050167" y="32.2430284" width="2.03831104" height="2.36157386"></rect>
                        <rect x="0.515050167" y="28.2653693" width="2.03831104" height="2.36673295"></rect>
                        <rect x="0.515050167" y="24.2915795" width="2.03831104" height="2.36157386"></rect>
                        <rect x="0.515050167" y="20.3139205" width="2.03831104" height="2.36415341"></rect>
                        <rect x="0.515050167" y="16.3388409" width="2.03831104" height="2.36157386"></rect>
                        <rect x="0.515050167" y="12.3611818" width="2.03831104" height="2.36286364"></rect>
                        <rect x="0.515050167" y="8.3848125" width="2.03831104" height="2.36544318"></rect>
                        <rect x="0.515050167" y="4.41102273" width="2.03831104" height="2.36157386"></rect>
                        <rect x="0.515050167" y="0.433363636" width="2.03831104" height="2.36286364"></rect>
                        <rect x="4.1641806" y="87.9109091" width="6.72011706" height="2.35383523"></rect>
                        <rect x="4.1641806" y="84.0222443" width="6.72011706" height="2.35899432"></rect>
                        <rect x="4.1641806" y="79.9581705" width="6.72011706" height="2.35899432"></rect>
                        <rect x="12.5414716" y="87.9109091" width="38.2218729" height="2.35383523"></rect>
                        <rect x="52.3741639" y="87.9109091" width="6.72140468" height="2.35383523"></rect>
                        <rect x="59.320903" y="79.9581705" width="6.72011706" height="2.35899432"></rect>
                        <rect x="67.6325251" y="72.0080114" width="6.72526756" height="2.35383523"></rect>
                        <rect x="67.6325251" y="36.2206875" width="6.72526756" height="2.35899432"></rect>
                    </g>
                    <rect id="Rectangle-path" fill="#3E3B3E" x="118.151221" y="87.7612955" width="22.8154348" height="4.98110227"></rect>
                    <rect id="Rectangle-path" fill="#3E3B3E" x="118.151221" y="98.1143011" width="45.6244314" height="4.98110227"></rect>
                    <rect id="Rectangle-path" fill="#3E3B3E" x="118.151221" y="108.475045" width="45.6244314" height="4.97336364"></rect>
                    <rect id="Rectangle-path" fill="#3E3B3E" x="118.151221" y="118.829341" width="45.6244314" height="4.97078409"></rect>
                    <rect id="Rectangle-path" fill="#3E3B3E" x="118.151221" y="55.7671932" width="45.6244314" height="26.4712955"></rect>
                    <rect id="Rectangle-path" fill="#3E3B3E" x="118.151221" y="33.9674545" width="45.6244314" height="13.239517"></rect>
                    <rect id="Rectangle-path" fill="#3E3B3E" x="2.37953177" y="27.2180739" width="171.9701" height="2.59760227"></rect>
                    <rect id="Rectangle-path" fill="#3E3B3E" x="2.37953177" y="12.2812159" width="171.9701" height="2.59760227"></rect>
                </g>
                <ellipse id="Oval" fill="#3E3B3E" cx="238.920184" cy="15.748125" rx="4.1487291" ry="4.15564773"></ellipse>
                <g transform="translate(141.638796, 0.000000)" id="Shape">
                    <path d="M174.889147,1.40585227 L20.6444983,1.40585227 C11.0143478,1.40585227 2.26235786,9.25411932 2.26235786,18.8990398 L2.26235786,127.466949 C2.26235786,137.114449 11.0143478,145.881034 20.6444983,145.881034 L81.6109866,146.135119 C81.9200167,150.035392 82.2187458,154.764989 80.9787625,158.863886 C78.7125418,162.239222 54.6867391,169.33942 33.8825753,174.199284 C32.5872241,174.502381 31.497893,175.429727 31.497893,176.760773 L31.497893,179.255193 C31.497893,180.840324 33.1215886,182.127517 34.7053679,182.127517 L160.82699,182.127517 C162.410769,182.127517 164.034465,180.840324 164.034465,179.255193 L164.034465,176.760773 C164.034465,175.429727 162.946421,174.270222 161.65107,173.967125 C140.73102,169.11371 116.658863,162.235352 114.476338,159.079278 C113.156522,154.780466 113.213177,150.035392 113.432074,146.135119 L174.88786,145.881034 C184.516722,145.881034 193.27,137.114449 193.27,127.466949 L193.27,18.8990398 C193.272575,9.25411932 184.51801,1.40585227 174.889147,1.40585227 L174.889147,1.40585227 Z" fill="#F0F0F0"></path>
                    <path d="M160.828278,183.416 L34.7066555,183.416 C32.3129599,183.416 30.2115552,181.471023 30.2115552,179.253903 L30.2115552,176.759483 C30.2115552,174.949932 31.57,173.415102 33.5915719,172.941756 C56.6001505,167.567273 77.4995987,160.922364 79.8121739,158.271881 C80.7701672,154.92879 80.6813211,151.120091 80.4186455,147.418443 L20.6406355,147.169517 C10.3512207,147.169517 0.976020067,137.778682 0.976020067,127.465659 L0.976020067,18.89775 C0.976020067,8.71628409 9.98424749,0.114789773 20.645786,0.114789773 L174.890435,0.114789773 C185.553261,0.114789773 194.560201,8.71628409 194.560201,18.89775 L194.560201,127.465659 C194.560201,137.778682 185.185,147.169517 174.890435,147.169517 L114.659181,147.418443 C114.507241,150.929205 114.574197,154.850114 115.640351,158.469216 C117.678662,160.645063 135.638462,166.607682 161.943361,172.708307 C163.903127,173.167466 165.323378,174.871256 165.323378,176.759483 L165.323378,179.253903 C165.323378,181.471023 163.221973,183.416 160.828278,183.416 L160.828278,183.416 Z M20.645786,2.695625 C11.539699,2.695625 3.5512709,10.2665909 3.5512709,18.8990398 L3.5512709,127.466949 C3.5512709,136.42958 11.6993645,144.591261 20.645786,144.591261 L82.8020401,144.850506 L82.8960368,146.033227 C83.2436957,150.422324 83.4767559,155.057767 82.2123077,159.23792 L82.0487793,159.58358 C79.0949666,163.982994 49.4435284,171.889301 34.1774415,175.455523 C33.536204,175.605136 32.7880936,176.0385 32.7880936,176.762063 L32.7880936,179.256483 C32.7880936,180.039375 33.756388,180.839034 34.7079431,180.839034 L160.829565,180.839034 C161.779833,180.839034 162.749415,180.040665 162.749415,179.256483 L162.749415,176.762063 C162.749415,176.09267 162.126204,175.403932 161.360067,175.224653 C159.549666,174.805477 116.911237,164.865199 113.420485,159.815739 L113.249231,159.461051 C111.859883,154.940398 111.933278,149.927051 112.149599,146.064182 L112.217843,144.853085 L174.885284,144.593841 C183.836856,144.593841 191.98495,136.432159 191.98495,127.469528 L191.98495,18.9016193 C191.98495,10.2704602 183.996522,2.69820455 174.890435,2.69820455 L20.645786,2.69820455 L20.645786,2.695625 Z" fill="#3E3B3E"></path>
                </g>
                <path d="M315.381957,141.311369 L161.483679,141.311369 C154.302592,141.311369 148.460635,135.46096 148.460635,128.269187 L148.460635,19.0138295 C148.460635,11.8233466 154.302592,5.9729375 161.483679,5.9729375 L315.381957,5.9729375 C322.305518,5.9729375 330.354465,11.6698636 330.354465,19.0138295 L330.354465,128.269187 C330.354465,135.614443 322.305518,141.311369 315.381957,141.311369 L315.381957,141.311369 Z M161.482391,8.55119318 C155.721555,8.55119318 151.034599,13.2446761 151.034599,19.0125398 L151.034599,128.267898 C151.034599,134.038341 155.721555,138.730534 161.482391,138.730534 L315.380669,138.730534 C320.996003,138.730534 327.777926,134.064136 327.777926,128.267898 L327.777926,19.0125398 C327.777926,13.2175909 320.996003,8.55119318 315.380669,8.55119318 L161.482391,8.55119318 L161.482391,8.55119318 Z" id="Shape" fill="#3E3B3E"></path>
                <path d="M316.451973,117.882648 L162.361839,117.882648 C160.071154,117.882648 158.206672,116.016347 158.206672,113.721841 L158.206672,27.705608 C158.206672,25.4111023 160.069866,23.5422216 162.361839,23.5422216 L316.451973,23.5422216 C318.742659,23.5422216 320.60714,25.4098125 320.60714,27.705608 L320.60714,113.721841 C320.605853,116.016347 318.742659,117.882648 316.451973,117.882648 L316.451973,117.882648 Z M162.360552,26.1230568 C161.490117,26.1230568 160.780635,26.8337216 160.780635,27.7068977 L160.780635,113.723131 C160.780635,114.595017 161.488829,115.304392 162.360552,115.304392 L316.450686,115.304392 C317.32112,115.304392 318.030602,114.595017 318.030602,113.723131 L318.030602,27.7068977 C318.030602,26.8337216 317.322408,26.1230568 316.450686,26.1230568 L162.360552,26.1230568 L162.360552,26.1230568 Z" id="Shape" fill="#3E3B3E"></path>
                <path d="M195.774431,46.5001761 L168.488361,46.5001761 C167.68102,46.5001761 167.025619,47.8105852 167.025619,49.42925 C167.025619,51.046625 167.68102,52.3583239 168.488361,52.3583239 L195.774431,52.3583239 C196.580485,52.3583239 197.237174,51.0453352 197.237174,49.42925 C197.237174,47.8092955 196.581773,46.5001761 195.774431,46.5001761 L195.774431,46.5001761 Z" id="Shape" fill="#6ABEEC"></path>
                <path d="M195.774431,58.2126023 L168.488361,58.2126023 C167.68102,58.2126023 167.025619,59.5243011 167.025619,61.1403864 C167.025619,62.7629205 167.68102,64.0694602 168.488361,64.0694602 L195.774431,64.0694602 C196.580485,64.0694602 197.237174,62.7629205 197.237174,61.1403864 C197.237174,59.5230114 196.581773,58.2126023 195.774431,58.2126023 L195.774431,58.2126023 Z" id="Shape" fill="#6ABEEC"></path>
                <path d="M195.774431,69.9288977 L168.488361,69.9288977 C167.68102,69.9288977 167.025619,71.2405966 167.025619,72.8579716 C167.025619,74.4740568 167.68102,75.7870455 168.488361,75.7870455 L195.774431,75.7870455 C196.580485,75.7870455 197.237174,74.4740568 197.237174,72.8579716 C197.237174,71.2393068 196.581773,69.9288977 195.774431,69.9288977 L195.774431,69.9288977 Z" id="Shape" fill="#6ABEEC"></path>
                <path d="M195.774431,81.7251591 L168.488361,81.7251591 C167.68102,81.7251591 167.025619,83.036858 167.025619,84.654233 C167.025619,86.2703182 167.68102,87.5833068 168.488361,87.5833068 L195.774431,87.5833068 C196.580485,87.5833068 197.237174,86.2703182 197.237174,84.654233 C197.237174,83.036858 196.581773,81.7251591 195.774431,81.7251591 L195.774431,81.7251591 Z" id="Shape" fill="#6ABEEC"></path>
                <path d="M195.774431,94.94275 L168.488361,94.94275 C167.68102,94.94275 167.025619,96.2544489 167.025619,97.8718239 C167.025619,99.4879091 167.68102,100.800898 168.488361,100.800898 L195.774431,100.800898 C196.580485,100.800898 197.237174,99.4879091 197.237174,97.8718239 C197.237174,96.2544489 196.581773,94.94275 195.774431,94.94275 L195.774431,94.94275 Z" id="Shape" fill="#6ABEEC"></path>
                <path d="M366.580518,225.901114 C354.720201,225.901114 349.590301,215.87829 349.590301,210.765631 L349.590301,185.324864 C349.590301,177.774534 354.850251,174.081915 366.144013,173.705301 L368.294348,173.618886 C384.173344,174.145114 384.3549,185.212653 384.3549,185.324864 L384.3549,210.765631 C384.356187,215.073472 379.069197,225.901114 366.580518,225.901114 L366.580518,225.901114 Z M368.304649,176.195852 L366.239298,176.282267 C352.165552,176.753034 352.165552,182.542824 352.165552,185.324864 L352.165552,210.765631 C352.165552,213.983614 355.714247,223.321568 366.580518,223.321568 C377.106856,223.321568 381.780936,214.223511 381.780936,210.765631 L381.780936,185.324864 C381.780936,185.238449 381.626421,176.642114 368.304649,176.195852 L368.304649,176.195852 Z" id="Shape" fill="#3E3B3E"></path>
                <path d="M366.973244,200.686057 C359.667258,200.686057 353.133846,199.19379 351.306706,198.734631 C350.616538,198.561801 350.196773,197.861455 350.369314,197.171426 C350.541856,196.478818 351.248763,196.060932 351.929916,196.232472 C353.180201,196.544597 359.780569,198.105222 366.973244,198.105222 C373.229816,198.105222 379.604849,196.927659 382.38612,196.232472 C383.068562,196.059642 383.774181,196.477528 383.946722,197.171426 C384.119264,197.861455 383.699498,198.561801 383.009331,198.734631 C380.116037,199.459483 373.480903,200.686057 366.973244,200.686057 L366.973244,200.686057 Z" id="Shape" fill="#3E3B3E"></path>
                <rect id="Rectangle-path" fill="#3E3B3E" x="223.40301" y="145.099432" width="30.90301" height="2.57954545"></rect>
                <rect id="Rectangle-path" fill="#3E3B3E" x="265.894649" y="23.8607955" width="2.57525084" height="92.8636364"></rect>
                <path d="M367.617057,199.269886 L365.041806,199.269886 L365.041806,177.74229 L365.122926,177.711335 C365.15898,176.884591 365.202759,175.054403 365.202759,171.031602 C365.202759,166.131756 365.202759,160.577994 355.599649,160.577994 C345.888378,160.577994 333.95209,160.521244 324.240819,160.474812 C317.583796,160.443858 311.972324,160.416773 308.840819,160.416773 C304.134548,160.416773 301.327525,159.69708 299.737308,158.086153 C298.020903,156.34625 298.047943,153.922767 298.077559,151.356119 L298.085284,150.258523 L299.37291,147.678977 L300.660535,150.258523 C300.660535,150.644165 300.656672,151.019489 300.652809,151.385784 C300.624482,153.885364 300.652809,155.342807 301.568311,156.271443 C302.607425,157.323898 304.985669,157.835938 308.840819,157.835938 C311.9749,157.835938 317.590234,157.863023 324.252408,157.893977 C333.961104,157.940409 345.892241,157.997159 355.599649,157.997159 C367.77801,157.997159 367.77801,166.476125 367.77801,171.030312 C367.77801,175.727665 367.77801,177.782273 367.617057,178.756051 L367.617057,199.269886 L367.617057,199.269886 Z" id="Shape" fill="#3E3B3E"></path>
                <path d="M284.33602,50.9550511 L298.996923,50.9550511 C300.378545,50.9550511 301.501355,49.8316591 301.501355,48.4464432 C301.501355,47.062517 300.378545,45.9404148 298.996923,45.9404148 L284.33602,45.9404148 C282.958261,45.9404148 281.834164,47.062517 281.834164,48.4464432 C281.834164,49.8316591 282.956973,50.9550511 284.33602,50.9550511 L284.33602,50.9550511 Z" id="Shape" fill="#3E3B3E"></path>
                <path d="M298.996923,54.5109545 L284.33602,54.5109545 C282.958261,54.5109545 281.834164,55.631767 281.834164,57.0156932 C281.834164,58.3996193 282.958261,59.5217216 284.33602,59.5217216 L298.996923,59.5217216 C300.378545,59.5217216 301.501355,58.3996193 301.501355,57.0156932 C301.501355,55.631767 300.378545,54.5109545 298.996923,54.5109545 L298.996923,54.5109545 Z" id="Shape" fill="#3E3B3E"></path>
                <path d="M247.316789,64.5879489 C246.177241,64.5879489 245.041555,64.7698068 243.941923,65.1309432 C243.137157,62.5681648 242.606656,60.1988523 242.31694,58.73625 L249.264967,58.73625 L249.264967,55.7671932 L240.702258,55.7671932 C239.969599,55.7671932 239.357977,56.2985795 239.245953,57.0234318 C239.127492,57.2813864 239.094013,57.5638466 239.13908,57.8424375 C239.154532,57.9610966 239.265268,58.6420966 239.481589,59.6919716 L224.088027,59.6919716 L223.793161,58.7504375 C225.204398,58.5724489 226.302742,57.3613523 226.302742,55.9026193 C226.302742,54.3161989 225.015117,53.0264261 223.435201,53.0264261 L220.339749,53.0264261 C218.759833,53.0264261 217.47092,54.3174886 217.47092,55.9026193 C217.47092,57.4851705 218.757258,58.7749432 220.339749,58.7749432 L220.696421,58.7749432 L221.338946,60.836 L218.650385,65.5501193 C217.232709,64.9129716 215.733913,64.5905284 214.19005,64.5905284 C208.151087,64.5905284 203.241371,69.507142 203.241371,75.5523068 C203.241371,81.6000511 208.151087,86.5231136 214.19005,86.5231136 C219.099766,86.5231136 223.469967,83.1374602 224.749866,78.4181818 L225.096237,78.4671932 C225.617726,79.7763125 226.861572,80.6365909 228.279247,80.6365909 C230.178495,80.6365909 231.723645,79.0888636 231.723645,77.1877386 C231.723645,76.7324489 231.628361,76.288767 231.446806,75.8592727 L240.958495,65.5488295 C241.051204,65.846767 241.145201,66.1472841 241.241773,66.4478011 C238.18495,68.4985398 236.369398,71.8700057 236.369398,75.5535966 C236.369398,81.5987614 241.279114,86.5192443 247.319365,86.5192443 C253.355753,86.5192443 258.265468,81.5987614 258.265468,75.5535966 C258.262893,69.5045625 253.353177,64.5879489 247.316789,64.5879489 L247.316789,64.5879489 Z M214.19005,83.5514773 C209.787659,83.5514773 206.20291,79.9671989 206.20291,75.5561761 C206.20291,71.1425739 209.785084,67.5570057 214.19005,67.5570057 C215.216288,67.5570057 216.21806,67.7517614 217.170903,68.1425625 L213.362107,74.8210057 C213.118746,75.2492102 213.103294,75.7664091 213.322191,76.2126705 C213.542375,76.6563523 213.964716,76.9594489 214.452726,77.0252273 L221.779314,78.0157727 C220.718311,81.3008239 217.667926,83.5514773 214.19005,83.5514773 L214.19005,83.5514773 Z M217.026689,74.3786136 L219.670184,69.7444602 C221.140652,71.1322557 222.022676,73.0114545 222.155301,75.0699318 L217.026689,74.3786136 L217.026689,74.3786136 Z M225.282943,75.494267 L225.136154,75.4723409 C225.112977,72.2195341 223.672124,69.2027557 221.162542,67.1197727 L222.541589,64.7053182 L225.716873,74.8893636 C225.549482,75.0828295 225.401405,75.278875 225.282943,75.494267 L225.282943,75.494267 Z M228.708027,77.4134489 L228.547074,77.5862784 C228.239331,77.792642 227.797676,77.5462955 227.797676,77.1864489 C227.797676,77.0058807 227.904548,76.8420795 228.073227,76.754375 C228.142759,76.7221307 228.211003,76.7040739 228.281823,76.7040739 C228.545786,76.7040739 228.762107,76.9181761 228.762107,77.1864489 C228.759532,77.2806023 228.728629,77.3773352 228.708027,77.4134489 L228.708027,77.4134489 Z M229.241104,73.876892 C228.982291,73.7982159 228.723478,73.7530739 228.458227,73.7388864 L225.009967,62.6597386 L239.589749,62.6597386 L229.241104,73.876892 L229.241104,73.876892 Z M247.316789,83.5514773 C242.91311,83.5514773 239.332224,79.9671989 239.332224,75.5561761 C239.332224,73.1481705 240.422843,70.8717216 242.277023,69.3575284 C243.568512,72.623233 245.037692,75.1305511 246.647224,76.8201534 C247.189314,77.3876534 248.170485,77.4121591 248.739615,76.8691648 C249.329348,76.3042443 249.356388,75.3652898 248.789833,74.7694148 C247.388896,73.2990739 246.085819,70.9994091 244.907642,67.9323295 C245.694381,67.6821136 246.50301,67.5557159 247.318077,67.5557159 C251.717893,67.5557159 255.302642,71.1412841 255.302642,75.5548864 C255.302642,79.9671989 251.717893,83.5514773 247.316789,83.5514773 L247.316789,83.5514773 Z" id="Shape" fill="#6ABEEC"></path>
                <path d="M295.643946,80.0819886 C294.747759,79.4757955 293.57602,79.0463011 292.068211,78.7651307 L291.929147,78.740625 C290.825652,78.5187841 290.323478,78.2595398 290.122609,78.1215341 C289.992559,78.03125 289.942341,77.9745 289.93204,77.9745 C289.941054,77.9125909 290.020886,77.7810341 290.199866,77.6481875 C290.559114,77.3889432 291.116656,77.2328807 291.690936,77.2328807 C292.485401,77.2328807 293.170418,77.645608 294.00995,78.1873125 L294.613846,78.5407102 L295.114732,78.5407102 C295.77786,78.5407102 296.406221,78.1873125 296.73714,77.645608 C297.290819,76.7582443 297.059047,75.6000284 296.164147,74.9757784 C295.45209,74.5075909 294.456756,73.8678636 293.193595,73.5570284 L293.193595,70.8485057 L291.084465,70.8485057 L291.084465,73.406125 C289.911438,73.508017 288.806656,73.8820511 287.938796,74.5166193 C286.745167,75.380767 286.066589,76.640875 286.066589,77.9848182 C286.066589,79.3274716 286.764482,80.5514659 287.963261,81.334358 C288.800217,81.8992784 289.898562,82.3016875 291.3201,82.5660909 L291.454013,82.5867273 C292.657943,82.8317841 293.246388,83.1297216 293.46786,83.2767557 C293.740836,83.4650625 293.740836,83.536 293.740836,83.5940398 C293.740836,83.7359148 293.606923,83.9100341 293.372575,84.0828636 C292.974699,84.3769318 292.356639,84.5510511 291.669047,84.5510511 C290.649247,84.5510511 289.540602,83.9513068 288.900652,83.4379773 C288.117776,82.7363409 286.817274,82.815017 286.101355,83.6985114 C285.480719,84.5059091 285.58888,85.6628352 286.420686,86.4057443 C287.278244,87.0867443 288.980485,88.1482273 291.083177,88.3584602 L291.083177,90.8245057 L293.188445,90.8245057 L293.188445,88.2707557 C294.093645,88.0798693 294.943478,87.7342102 295.65811,87.2183011 C296.907107,86.3064318 297.629465,84.9882841 297.629465,83.5953295 C297.628177,82.185608 296.896806,80.897125 295.643946,80.0819886 L295.643946,80.0819886 Z" id="Shape" fill="#3E3B3E"></path>
                <g transform="translate(361.822742, 179.278409)" id="Shape">
                    <path d="M7.23130435,12.0903295 C7.23130435,13.4716761 6.11364548,14.5911989 4.73459866,14.5911989 L4.73459866,14.5911989 C3.35555184,14.5911989 2.23789298,13.4716761 2.23789298,12.0903295 L2.23789298,4.77086932 C2.23789298,3.3908125 3.35555184,2.27 4.73459866,2.27 L4.73459866,2.27 C6.11364548,2.27 7.23130435,3.3908125 7.23130435,4.77086932 L7.23130435,12.0903295 L7.23130435,12.0903295 Z" fill="#F0F0F0"></path>
                    <path d="M4.73459866,15.8809716 C2.64735786,15.8809716 0.950267559,14.1810511 0.950267559,12.0903295 L0.950267559,4.77086932 C0.950267559,2.68014773 2.64864548,0.980227273 4.73459866,0.980227273 C6.82055184,0.980227273 8.51892977,2.68014773 8.51892977,4.77086932 L8.51892977,12.0903295 C8.51892977,14.1810511 6.82055184,15.8809716 4.73459866,15.8809716 L4.73459866,15.8809716 Z M4.73459866,3.55977273 C4.0676087,3.55977273 3.52551839,4.10405682 3.52551839,4.77086932 L3.52551839,12.0903295 C3.52551839,12.7584318 4.0676087,13.3014261 4.73459866,13.3014261 C5.40158863,13.3014261 5.94367893,12.757142 5.94367893,12.0903295 L5.94367893,4.77086932 C5.94367893,4.10405682 5.40158863,3.55977273 4.73459866,3.55977273 L4.73459866,3.55977273 Z" fill="#3E3B3E"></path>
                </g>
            </g>
        </g>
    </g>
</svg>