<?xml version="1.0" encoding="UTF-8" standalone="no"?>
<svg width="463px" height="144px" viewBox="0 0 463 144" version="1.1" xmlns="http://www.w3.org/2000/svg" xmlns:xlink="http://www.w3.org/1999/xlink" xmlns:sketch="http://www.bohemiancoding.com/sketch/ns">
    <!-- Generator: Sketch 3.3.1 (12002) - http://www.bohemiancoding.com/sketch -->
    <title>strategy</title>
    <desc>Created with Sketch.</desc>
    <defs></defs>
    <g id="Page-1" stroke="none" stroke-width="1" fill="none" fill-rule="evenodd" sketch:type="MSPage">
        <g id="strategy" sketch:type="MSLayerGroup" transform="translate(-1.000000, 0.000000)">
            <g id="Group" sketch:type="MSShapeGroup">
                <g transform="translate(132.317073, 41.585366)" id="Shape">
                    <path d="M132.559024,79.9169919 L132.559024,75.5328862 C132.559024,75.5328862 133.029065,74.7969512 133.029065,71.7196341 C133.029065,68.6486179 126.267033,62.2898374 126.267033,62.2898374 L126.267033,59.4784146 L124.895976,59.4784146 L123.405203,26.0576423 L125.030813,26.0576423 L125.030813,24.3917073 L127.367154,24.3917073 L127.367154,10.114065 L121.974919,10.114065 L121.974919,13.6336992 L118.638008,13.6336992 L118.638008,10.114065 L109.882398,10.114065 L109.882398,13.6336992 L106.544228,13.6336992 L106.544228,10.114065 L101.150732,10.114065 L101.150732,24.3942276 L103.489593,24.3942276 L103.489593,26.0601626 L105.113943,26.0601626 L103.623171,59.480935 L102.250854,59.480935 L102.250854,62.2910976 C102.250854,62.2910976 95.4888211,68.6536585 95.4888211,71.7234146 C95.4888211,74.7994715 95.9563415,75.5354065 95.9563415,75.5354065 L95.9563415,79.9195122 L94.7768293,79.9195122 L94.7768293,85.6318293 L133.739797,85.6318293 L133.739797,79.9195122 L132.559024,79.9195122 L132.559024,79.9169919 L132.559024,79.9169919 Z" fill="#3E3B3E"></path>
                    <g transform="translate(52.926829, 27.723577)" fill="#6ABEEC">
                        <path d="M0.957723577,58.5370732 L0.957723577,52.7894715 L1.88394309,52.7894715 L1.88394309,50.1128862 C1.73650407,49.7449187 1.51597561,48.8754065 1.51597561,46.9788618 C1.51597561,44.2770732 2.26577236,41.4454878 7.6995935,39.0436179 C7.81174797,38.9944715 7.91634146,38.9428049 8.01463415,38.8860976 L8.01463415,36.7312195 L9.4247561,36.7312195 C12.0836992,29.1488211 12.1341057,23.1000407 12.0169106,20.7246341 L10.9193089,20.7246341 L10.9193089,18.3731707 C10.3824797,17.5439837 8.1104065,13.8529675 8.1104065,10.6382927 C8.1104065,5.7954878 12.050935,1.85621951 16.8937398,1.85621951 C21.7378049,1.85621951 25.6783333,5.7954878 25.6783333,10.6382927 C25.6783333,13.8529675 23.4087805,17.5439837 22.8719512,18.3731707 L22.8719512,20.7258943 L21.7705691,20.7258943 C21.6546341,23.102561 21.7063008,29.155122 24.3627236,36.7324797 L25.7728455,36.7324797 L25.7728455,38.8886179 C25.8711382,38.944065 25.9744715,38.9957317 26.0841057,39.0436179 C31.5242276,41.4492683 32.2740244,44.2795935 32.2740244,46.980122 C32.2740244,48.8766667 32.0534959,49.7449187 31.9047967,50.1141463 L31.9047967,52.7907317 L32.8335366,52.7907317 L32.8335366,58.5383333 L0.957723577,58.5383333 L0.957723577,58.5370732 Z"></path>
                        <path d="M16.895,2.48630081 C21.3963008,2.48630081 25.0495122,6.13573171 25.0495122,10.6382927 C25.0495122,14.0545935 22.2431301,18.1841463 22.2431301,18.1841463 L22.2431301,20.095813 L21.1795528,20.095813 C21.0346341,21.9797561 20.8191463,28.768252 23.9191463,37.362561 L25.1440244,37.362561 L25.1440244,39.2389431 C25.3532114,39.3826016 25.5787805,39.5111382 25.8333333,39.6220325 C31.0365447,41.9230894 31.6439431,44.5706911 31.6439431,46.980122 C31.6439431,49.3971138 31.2747154,49.9755285 31.2747154,49.9755285 L31.2747154,53.4195528 L32.2034553,53.4195528 L32.2034553,57.9069919 L1.58780488,57.9069919 L1.58780488,53.4195528 L2.51402439,53.4195528 L2.51402439,49.9755285 C2.51402439,49.9755285 2.14605691,49.3971138 2.14605691,46.980122 C2.14605691,44.5669106 2.74715447,41.9230894 7.95414634,39.6220325 C8.21121951,39.5111382 8.43678862,39.3788211 8.64471545,39.2389431 L8.64471545,37.3613008 L9.8695935,37.3613008 C12.9683333,28.768252 12.7541057,21.9772358 12.609187,20.0945528 L11.5493902,20.0945528 L11.5493902,18.1828862 C11.5493902,18.1828862 8.7404878,14.0520732 8.7404878,10.6370325 C8.74174797,6.13573171 12.3911789,2.48630081 16.895,2.48630081 L16.895,2.48630081 Z M16.895,1.22613821 C11.7043902,1.22613821 7.48158537,5.44894309 7.48158537,10.6382927 C7.48158537,13.8428862 9.59109756,17.4494715 10.2904878,18.5571545 L10.2904878,20.0945528 L10.2904878,21.3547154 L11.4120325,21.3547154 C11.4813415,23.9531707 11.2645935,29.3844715 8.97739837,36.1011382 L8.64597561,36.1011382 L7.38581301,36.1011382 L7.38581301,37.3613008 L7.38581301,38.494187 C1.65963415,41.0472764 0.885894309,44.2153252 0.885894309,46.9788618 C0.885894309,48.7330081 1.07113821,49.6982927 1.25386179,50.2237805 L1.25386179,52.1593902 L0.327642276,52.1593902 L0.327642276,53.4195528 L0.327642276,57.9069919 L0.327642276,59.1671545 L1.58780488,59.1671545 L32.2034553,59.1671545 L33.4636179,59.1671545 L33.4636179,57.9069919 L33.4636179,53.4195528 L33.4636179,52.1593902 L32.534878,52.1593902 L32.534878,50.2250407 C32.7188618,49.6995528 32.9041057,48.7330081 32.9041057,46.980122 C32.9041057,44.2165854 32.1291057,41.0485366 26.4029268,38.4967073 L26.4029268,37.362561 L26.4029268,36.1023984 L25.1427642,36.1023984 L24.8113415,36.1023984 C22.5266667,29.3907724 22.3086585,23.9569512 22.3767073,21.3559756 L23.5020325,21.3559756 L23.5020325,20.095813 L23.5020325,18.5571545 C24.2001626,17.4507317 26.3084146,13.8441463 26.3084146,10.6382927 C26.3084146,5.44894309 22.0856098,1.22613821 16.895,1.22613821 L16.895,1.22613821 L16.895,1.22613821 Z"></path>
                    </g>
                    <path d="M44.0389024,79.9169919 L44.0389024,75.5328862 C44.0389024,75.5328862 44.5089431,74.7969512 44.5089431,71.7196341 C44.5089431,68.6486179 43.7402439,65.2852439 37.1117886,62.3578862 C36.7866667,62.2154878 36.5006098,62.0491463 36.2372358,61.8689431 L36.2372358,59.8552033 C37.8073984,59.3549187 39.3926829,58.7651626 40.9880488,57.9813415 C40.9880488,57.9813415 44.5064228,40.9174797 37.4028862,22.6388211 C34.5057724,15.182439 30.7744309,11.2444309 27.0733333,9.49784553 C25.7325203,7.58869919 21.2324797,1.4895122 17.9938618,0.768699187 C17.9938618,0.768699187 19.0221545,4.89699187 19.2968699,8.68378049 C16.6744715,9.32394309 14.4969106,10.795813 13.2506098,12.3785772 C9.37056911,17.3083333 6.3449187,19.8488211 2.24182927,21.5865854 C-1.86,23.3268699 2.08052846,32.085 5.13768293,31.8707724 C7.18670732,31.7296341 9.79020325,29.6554065 13.3287398,30.2829675 C16.8672764,30.9105285 19.6824797,29.5495528 19.6824797,29.5495528 L20.3919512,31.3931707 C20.3919512,31.3931707 10.3156911,42.5342683 10.1279268,58.7084553 C10.1279268,58.7084553 12.0685772,59.5779675 15.2378862,60.3592683 L15.2378862,61.8664228 C14.973252,62.0441057 14.6846748,62.2104472 14.3582927,62.3578862 C7.73109756,65.2827236 6.9649187,68.6486179 6.9649187,71.7196341 C6.9649187,74.7944309 7.43369919,75.5303659 7.43369919,75.5303659 L7.43369919,79.9144715 L6.25418699,79.9144715 L6.25418699,85.6267886 L45.2184146,85.6267886 L45.2184146,79.9144715 L44.0389024,79.9144715 L44.0389024,79.9169919 L44.0389024,79.9169919 Z" fill="#3E3B3E"></path>
                </g>
                <g transform="translate(0.000000, 26.463415)">
                    <g fill="#3E3B3E">
                        <path d="M2.20330459,14.475356 L4.72337776,14.5111446 L3.57517153,95.3626521 L1.05509836,95.3268635 L2.20330459,14.475356 L2.20330459,14.475356 Z" id="Rectangle-path"></path>
                        <path d="M84.955122,104.476301 L13.7055285,103.482033 C13.3993089,103.473211 6.66878049,103.22748 3.50199187,100.13378 C2.21158537,98.8673171 1.56134146,97.4156098 1.13792683,96.2915447 L3.49695122,95.4043902 C3.84853659,96.3394309 4.33495935,97.4193902 5.26495935,98.3330081 C7.30768293,100.327846 12.0925203,100.90752 13.7647561,100.961707 L82.4700813,101.920691 L82.7397561,82.6124797 L85.2600813,82.6477642 L84.955122,104.476301 L84.955122,104.476301 Z" id="Shape"></path>
                        <path d="M85.9216667,35.3210976 L83.4013415,35.285813 L83.5676829,23.3772764 L11.9992683,22.3792276 C6.53268293,22.3023577 2.14353659,17.9673984 2.21536585,12.7137805 L2.24560976,10.5538618 C2.28089431,8.00833333 3.35581301,5.62788618 5.27252033,3.84853659 C7.17284553,2.08304878 9.63772358,1.14044715 12.2941463,1.16817073 L81.3434959,2.13093496 L81.3082114,4.65126016 L12.2588618,3.68849593 C10.284187,3.66455285 8.41158537,4.37276423 6.98760163,5.6946748 C5.58126016,7.00146341 4.79239837,8.73922764 4.76593496,10.5891463 L4.73569106,12.749065 C4.68276423,16.6127236 7.95666667,19.8021951 12.0345528,19.8589024 L86.1220325,20.8922358 L85.9216667,35.3210976 L85.9216667,35.3210976 Z" id="Shape"></path>
                        <path d="M80.3353659,23.1076016 C75.9827642,20.0088618 73.5531707,16.4388211 73.113374,12.4970325 C72.4845528,6.87922764 76.1818699,2.67028455 76.3393902,2.49386179 L78.2182927,4.17365854 L77.2782114,3.33313008 L78.220813,4.17113821 C78.1893089,4.20642276 75.1056911,7.75378049 75.6210976,12.2424797 C75.9865447,15.4319512 78.0645528,18.3971138 81.7984146,21.0547967 L80.3353659,23.1076016 L80.3353659,23.1076016 Z" id="Shape"></path>
                    </g>
                    <g transform="translate(40.325203, 34.024390)" id="Shape">
                        <g fill="#6ABEEC">
                            <path d="M8.9799187,0.786341463 L54.8422764,1.4252439 C59.1142276,1.48447154 62.558252,5.09609756 62.4977642,9.45247967 L62.0756098,39.7946748 C62.015122,44.1548374 58.4715447,47.6681707 54.1995935,47.6089431 L26.7973577,47.2271138 C20.0227236,52.3950407 8.02849593,61.480813 8.03479675,61.0183333 C8.04109756,60.565935 12.8902033,52.0270732 15.7268293,47.073374 L8.33597561,46.9700407 C4.06276423,46.910813 0.62,43.2941463 0.680487805,38.9402846 L1.10264228,8.59682927 C1.16313008,4.23918699 4.7104878,0.727113821 8.9799187,0.786341463 L8.9799187,0.786341463 Z"></path>
                            <path d="M8.05621951,61.6660569 L7.79284553,61.6660569 L7.40471545,61.2854878 L7.40471545,61.0095122 C7.40849593,60.7587398 7.41353659,60.3428862 14.6493902,47.6883333 L8.32715447,47.600122 C6.09036585,47.569878 3.99471545,46.6461789 2.42707317,45.0004065 C0.863211382,43.3596748 0.018902439,41.2047967 0.0504065041,38.9327236 L0.472560976,8.58926829 C0.538089431,3.93926829 4.30597561,0.156260163 8.87406504,0.156260163 L54.8510976,0.796422764 C57.0878862,0.827926829 59.1835366,1.75036585 60.7511789,3.39361789 C62.3163008,5.03434959 63.1606098,7.18922764 63.1278455,9.46256098 L62.7056911,39.8047561 C62.6401626,44.4560163 58.8722764,48.2415447 54.3054472,48.2415447 L27.0065447,47.8622358 C8.90178862,61.6647967 8.41284553,61.6660569 8.05621951,61.6660569 L8.05621951,61.6660569 Z M8.97109756,1.41642276 C4.99150407,1.41642276 1.78817073,4.64243902 1.73272358,8.60691057 L1.31056911,38.9503659 C1.28410569,40.8910163 2.00365854,42.7308537 3.33943089,44.1321545 C4.67268293,45.5296748 6.4495122,46.3147561 8.34479675,46.3399593 L16.8055285,46.4584146 L16.275,47.3871545 C12.7553659,53.5329675 10.6471138,57.3121951 9.56463415,59.3297154 C11.6489431,57.8603659 16.2548374,54.4780894 26.4155285,46.7280894 L26.5881707,46.5957724 L54.2084146,46.9813821 L54.2096748,46.9813821 C58.1880081,46.9813821 61.3900813,43.7541057 61.4455285,39.788374 L61.8676829,9.44617886 C61.8941463,7.50426829 61.1745935,5.66443089 59.8388211,4.26439024 C58.5068293,2.86813008 56.73,2.08430894 54.8334553,2.05784553 L8.97109756,1.41642276 L8.97109756,1.41642276 L8.97109756,1.41642276 Z"></path>
                        </g>
                        <path d="M50.4342276,13.5480081 L50.4153252,13.5480081 L13.0653659,13.0263008 C12.3697561,13.0162195 11.8127642,12.4441057 11.8228455,11.7484959 C11.8329268,11.051626 12.4100813,10.5210976 13.1006504,10.5059756 L50.4506098,11.0276829 C51.1462195,11.0377642 51.7032114,11.609878 51.6931301,12.3054878 C51.6843089,12.9947967 51.1222764,13.5480081 50.4342276,13.5480081 L50.4342276,13.5480081 Z" fill="#FFFFFF"></path>
                        <path d="M50.2678862,25.5586179 L50.2489837,25.5586179 L12.8990244,25.0381707 C12.2034146,25.0280894 11.6464228,24.4559756 11.6565041,23.7603659 C11.6665854,23.0647561 12.2034146,22.5191057 12.9343089,22.5178455 L50.2842683,23.0382927 C50.979878,23.048374 51.5368699,23.6204878 51.5267886,24.3160976 C51.5167073,25.0066667 50.9546748,25.5586179 50.2678862,25.5586179 L50.2678862,25.5586179 Z" fill="#FFFFFF"></path>
                        <path d="M50.1002846,37.5679675 L50.0813821,37.5679675 L12.7301626,37.0475203 C12.0345528,37.037439 11.477561,36.4653252 11.4876423,35.7697154 C11.4977236,35.0741057 12.1328455,34.5158537 12.7654472,34.5271951 L50.1179268,35.0476423 C50.8135366,35.0577236 51.3705285,35.6298374 51.3604472,36.3254472 C51.3503659,37.0147561 50.7883333,37.5679675 50.1002846,37.5679675 L50.1002846,37.5679675 Z" fill="#FFFFFF"></path>
                    </g>
                </g>
                <g transform="translate(288.577236, 0.000000)">
                    <g transform="translate(10.081301, 49.146341)" id="Shape" fill="#3E3B3E">
                        <path d="M21.4177236,3.71747967 C26.3726829,3.71747967 30.4304065,7.75252033 30.4619106,12.7087398 C30.488374,17.6939431 26.4558537,21.7718293 21.4177236,21.800813 C16.4602439,21.800813 12.4037805,17.7657724 12.3773171,12.8045122 C12.3634553,10.3976016 13.2921951,8.12552846 14.9934146,6.4054065 C16.6958943,4.68528455 18.9591463,3.7300813 21.3685772,3.71747967 L21.4177236,3.71747967 L21.4177236,3.71747967 Z M21.4177236,1.19715447 L21.3547154,1.19715447 C14.9833333,1.23243902 9.81918699,6.4495122 9.85699187,12.8196341 C9.89227642,19.1758943 15.0702846,24.319878 21.4177236,24.319878 L21.4857724,24.319878 C27.8584146,24.2833333 33.0162602,19.0700407 32.9822358,12.6936179 C32.9419106,6.34365854 27.7626423,1.19715447 21.4177236,1.19715447 L21.4177236,1.19715447 L21.4177236,1.19715447 Z"></path>
                        <path d="M41.4089431,48.7078049 C40.7977642,48.7078049 40.2596748,48.2617073 40.1651626,47.6379268 L38.1678049,34.5750813 C38.1602439,34.5234146 38.1552033,34.471748 38.1539431,34.4200813 C38.0531301,30.9621951 35.1597967,28.1495122 31.7031707,28.1495122 L11.1461382,28.1495122 C7.6895122,28.1495122 4.79869919,30.9621951 4.70166667,34.4200813 C4.7004065,34.4679675 4.69662602,34.5145935 4.6903252,34.5624797 L2.82906504,47.6253252 C2.73077236,48.3146341 2.08682927,48.7846748 1.40382114,48.6952033 C0.714512195,48.5969106 0.235650407,47.9592683 0.333943089,47.2699593 L2.18638211,34.2751626 C2.36028455,29.5004065 6.3650813,25.6304472 11.1473984,25.6304472 L31.7044309,25.6304472 C36.4842276,25.6304472 40.4902846,29.4978862 40.671748,34.2676016 L42.6577642,47.2560976 C42.7623577,47.9441463 42.2910569,48.5880894 41.6030081,48.6926829 C41.5362195,48.7040244 41.4719512,48.7078049 41.4089431,48.7078049 L41.4089431,48.7078049 Z"></path>
                    </g>
                    <g transform="translate(95.772358, 49.146341)" id="Shape" fill="#3E3B3E">
                        <path d="M21.9507724,3.71747967 C26.9057317,3.71747967 30.9621951,7.75252033 30.9949593,12.7087398 C31.0226829,17.6926829 26.9889024,21.7705691 21.9507724,21.7995528 C16.9932927,21.7995528 12.9380894,17.7645122 12.9103659,12.803252 C12.8952439,10.3963415 13.8239837,8.12426829 15.5252033,6.40414634 C17.2264228,4.68402439 19.490935,3.72882114 21.901626,3.71621951 L21.9507724,3.71621951 L21.9507724,3.71747967 Z M21.9507724,1.19715447 L21.8865041,1.19715447 C15.5138618,1.23243902 10.3509756,6.4495122 10.3900407,12.8196341 C10.4253252,19.1758943 15.6033333,24.319878 21.9507724,24.319878 L22.0200813,24.319878 C28.3939837,24.2833333 33.5505691,19.0700407 33.5152846,12.6936179 C33.4736992,6.34365854 28.2982114,1.19715447 21.9507724,1.19715447 L21.9507724,1.19715447 L21.9507724,1.19715447 Z"></path>
                        <path d="M41.9419919,48.7078049 C41.330813,48.7078049 40.7927236,48.2617073 40.6982114,47.6379268 L38.7008537,34.5750813 C38.6932927,34.5234146 38.688252,34.4730081 38.6869919,34.4213415 C38.5849187,30.9634553 35.6915854,28.1495122 32.2362195,28.1495122 L11.6804472,28.1495122 C8.22256098,28.1495122 5.33174797,30.9621951 5.23597561,34.4188211 C5.23471545,34.4667073 5.23093496,34.5145935 5.22337398,34.5624797 L3.36085366,47.6253252 C3.26382114,48.3158943 2.62113821,48.7934959 1.93560976,48.6952033 C1.24630081,48.5969106 0.767439024,47.9592683 0.86699187,47.2699593 L2.71943089,34.2751626 C2.89081301,29.5016667 6.89560976,25.6304472 11.6804472,25.6304472 L32.2374797,25.6304472 C37.0160163,25.6304472 41.020813,29.4978862 41.2047967,34.2676016 L43.190813,47.2560976 C43.2954065,47.9441463 42.8241057,48.5880894 42.1360569,48.6926829 C42.0692683,48.7040244 42.005,48.7078049 41.9419919,48.7078049 L41.9419919,48.7078049 Z"></path>
                    </g>
                    <g transform="translate(56.707317, 27.723577)" id="Shape" fill="#3E3B3E">
                        <path d="M18.5634553,0.827926829 L18.5634553,3.34825203 C22.3842683,3.34825203 25.5107317,6.45707317 25.5346748,10.276626 C25.5548374,14.1163415 22.4472764,17.2604472 18.5659756,17.2831301 C14.7464228,17.2831301 11.6199593,14.1730488 11.5972764,10.3509756 C11.5745935,6.51252033 14.6834146,3.37093496 18.5256504,3.34825203 L18.5634553,0.827926829 L18.5634553,0.827926829 Z M18.5634553,0.827926829 L18.5117886,0.827926829 C13.283374,0.858170732 9.04670732,5.13642276 9.07695122,10.3660976 C9.10719512,15.5831707 13.3564634,19.8034553 18.5659756,19.8034553 L18.6214228,19.8034553 C23.8510976,19.7719512 28.0827236,15.4949593 28.055,10.2627642 C28.0234959,5.04947154 23.7729675,0.827926829 18.5634553,0.827926829 L18.5634553,0.827926829 L18.5634553,0.827926829 Z"></path>
                        <path d="M34.9695122,40.0404065 C34.3583333,40.0404065 33.8202439,39.5943089 33.7257317,38.9705285 L32.0862602,28.2528455 C32.0786992,28.2011789 32.0736585,28.1507724 32.0723984,28.0991057 C31.9930081,25.3821951 29.7196748,23.1718699 27.0052846,23.1718699 L10.136748,23.1718699 C7.42109756,23.1718699 5.15028455,25.380935 5.07593496,28.0965854 C5.0746748,28.1444715 5.07089431,28.1923577 5.06333333,28.2402439 L3.5347561,38.959187 C3.43646341,39.6497561 2.79252033,40.1273577 2.1095122,40.029065 C1.42020325,39.9307724 0.941341463,39.2931301 1.03963415,38.6038211 L2.55939024,27.9529268 C2.71060976,23.9204065 6.09414634,20.6528049 10.136748,20.6528049 L27.0052846,20.6528049 C31.0428455,20.6528049 34.4276423,23.916626 34.5902033,27.946626 L36.2183333,38.5924797 C36.3229268,39.2805285 35.851626,39.9232114 35.1635772,40.029065 C35.0980488,40.036626 35.0325203,40.0404065 34.9695122,40.0404065 L34.9695122,40.0404065 Z"></path>
                    </g>
                    <g transform="translate(41.585366, 64.268293)" id="Shape">
                        <path d="M63.9255285,46.980122 L2.55308943,46.980122 L12.6961382,2.23552846 L53.5002033,2.23552846 L63.9255285,46.980122 Z" fill="#F0F0F0"></path>
                        <path d="M65.5120732,48.2402846 L0.975365854,48.2402846 L11.6892683,0.975365854 L54.5007724,0.975365854 L65.5120732,48.2402846 L65.5120732,48.2402846 Z M4.13081301,45.7199593 L62.3364634,45.7199593 L52.4996341,3.49569106 L13.7030081,3.49569106 L4.13081301,45.7199593 L4.13081301,45.7199593 Z" fill="#3E3B3E"></path>
                    </g>
                    <path d="M35.4609756,132.928252 C35.3702439,132.928252 35.2795122,132.896748 35.1900407,132.863984 C33.9021545,132.207439 30.2766667,130.439431 29.0177642,130.439431 L28.869065,130.439431 C26.1395528,131.90626 23.0534146,132.686301 19.9370325,132.686301 C9.53817073,132.686301 1.08752033,124.23565 1.08752033,113.867033 C1.08752033,103.498415 9.53817073,95.0465041 19.9370325,95.0465041 C30.3358943,95.0465041 38.7865447,103.498415 38.7865447,113.867033 C38.7865447,118.301545 37.2289837,122.586098 34.3797561,125.973415 C34.200813,126.600976 35.0703252,129.627886 36.0293089,132.115447 C36.1200407,132.353618 36.060813,132.624553 35.8818699,132.775772 C35.7293902,132.865244 35.6084146,132.928252 35.4609756,132.928252 L35.4609756,132.928252 Z" id="Shape" fill="#6ABEEC"></path>
                    <path d="M48.4658537,38.0392683 C48.375122,38.0392683 48.2843902,38.0090244 48.1949187,37.9775203 C46.9070325,37.3209756 43.2815447,35.5529675 42.0213821,35.5529675 L41.8739431,35.5529675 C39.1444309,37.0210569 36.0582927,37.7998374 32.9419106,37.7998374 C22.5430488,37.7998374 14.0923984,29.3479268 14.0923984,18.9805691 C14.0923984,8.61069106 22.5430488,0.158780488 32.9419106,0.158780488 C43.3407724,0.158780488 51.7914228,8.61069106 51.7914228,18.9805691 C51.7914228,23.4150813 50.2338618,27.698374 47.3858943,31.0869512 C47.2069512,31.7157724 48.0764634,34.7426829 49.0354472,37.2302439 C49.1261789,37.4684146 49.0669512,37.7393496 48.886748,37.8905691 C48.7342683,37.9762602 48.6132927,38.0392683 48.4658537,38.0392683 L48.4658537,38.0392683 Z" id="Shape" fill="#6ABEEC"></path>
                    <path d="M140.620285,62.6552846 C140.440081,62.504065 140.382114,62.2331301 140.472846,61.9949593 C141.431829,59.5086585 142.301341,56.481748 142.122398,55.8529268 C139.274431,52.4643496 137.71687,48.1810569 137.71687,43.7452846 C137.71687,33.3766667 146.16626,24.9234959 156.565122,24.9234959 C166.965244,24.9234959 175.415894,33.3766667 175.415894,43.7452846 C175.415894,54.1139024 166.965244,62.5645528 156.565122,62.5645528 C153.44874,62.5645528 150.362602,61.7845122 147.633089,60.3189431 L147.48565,60.3189431 C146.226748,60.3189431 142.60126,62.0856911 141.313374,62.7422358 C141.223902,62.775 141.133171,62.8052439 141.042439,62.8052439 C140.895,62.8039837 140.771504,62.7422358 140.620285,62.6552846 L140.620285,62.6552846 Z" id="Shape" fill="#6ABEEC"></path>
                    <g transform="translate(7.560976, 115.934959)" id="Shape" fill="#FFFFFF">
                        <path d="M22.0856098,2.66776423 L2.39808943,2.66776423 C2.06792683,2.66776423 1.79825203,2.39682927 1.79825203,2.06666667 C1.79825203,1.73650407 2.06792683,1.46808943 2.39808943,1.46808943 L22.0856098,1.46808943 C22.4170325,1.46808943 22.6867073,1.73650407 22.6867073,2.06666667 C22.6867073,2.39682927 22.4170325,2.66776423 22.0856098,2.66776423 L22.0856098,2.66776423 Z"></path>
                        <path d="M22.0856098,3.29784553 L2.39808943,3.29784553 C1.72012195,3.29784553 1.16817073,2.74589431 1.16817073,2.06666667 C1.16817073,1.38869919 1.72012195,0.83800813 2.39808943,0.83800813 L22.0856098,0.83800813 C22.7648374,0.83800813 23.3167886,1.38869919 23.3167886,2.06666667 C23.3155285,2.74589431 22.7635772,3.29784553 22.0856098,3.29784553 L22.0856098,3.29784553 Z"></path>
                    </g>
                    <g transform="translate(7.560976, 105.853659)" id="Shape" fill="#FFFFFF">
                        <path d="M22.0856098,2.17126016 L2.39808943,2.17126016 C2.06792683,2.17126016 1.79825203,1.89906504 1.79825203,1.57268293 C1.79825203,1.24378049 2.06792683,0.972845528 2.39808943,0.972845528 L22.0856098,0.972845528 C22.4170325,0.972845528 22.6867073,1.24378049 22.6867073,1.57268293 C22.6854472,1.89906504 22.4170325,2.17126016 22.0856098,2.17126016 L22.0856098,2.17126016 Z"></path>
                        <path d="M22.0856098,2.80134146 L2.39808943,2.80134146 C1.72012195,2.80134146 1.16817073,2.24939024 1.16817073,1.57268293 C1.16817073,0.894715447 1.72012195,0.342764228 2.39808943,0.342764228 L22.0856098,0.342764228 C22.7648374,0.342764228 23.3167886,0.894715447 23.3167886,1.57268293 C23.3155285,2.24939024 22.7635772,2.80134146 22.0856098,2.80134146 L22.0856098,2.80134146 Z"></path>
                    </g>
                    <g transform="translate(7.560976, 109.634146)" id="Shape" fill="#FFFFFF">
                        <path d="M22.0856098,1.92552846 L2.39808943,1.92552846 C2.06792683,1.92552846 1.79825203,1.65711382 1.79825203,1.32821138 C1.79825203,0.995528455 2.06792683,0.727113821 2.39808943,0.727113821 L22.0856098,0.727113821 C22.4170325,0.727113821 22.6867073,0.995528455 22.6867073,1.32821138 C22.6854472,1.65711382 22.4170325,1.92552846 22.0856098,1.92552846 L22.0856098,1.92552846 Z"></path>
                        <path d="M22.0856098,2.55560976 L2.39808943,2.55560976 C1.72012195,2.55560976 1.16817073,2.0049187 1.16817073,1.32821138 C1.16817073,0.64898374 1.72012195,0.0970325203 2.39808943,0.0970325203 L22.0856098,0.0970325203 C22.7648374,0.0970325203 23.3167886,0.64898374 23.3167886,1.32821138 C23.3155285,2.0049187 22.7635772,2.55560976 22.0856098,2.55560976 L22.0856098,2.55560976 Z"></path>
                    </g>
                    <g transform="translate(7.560976, 112.154472)" id="Shape" fill="#FFFFFF">
                        <path d="M22.0856098,2.91223577 L2.39808943,2.91223577 C2.06792683,2.91223577 1.79825203,2.64382114 1.79825203,2.31113821 C1.79825203,1.98349593 2.06792683,1.71382114 2.39808943,1.71382114 L22.0856098,1.71382114 C22.4170325,1.71382114 22.6867073,1.98349593 22.6867073,2.31113821 C22.6854472,2.64382114 22.4170325,2.91223577 22.0856098,2.91223577 L22.0856098,2.91223577 Z"></path>
                        <path d="M22.0856098,3.54231707 L2.39808943,3.54231707 C1.72012195,3.54231707 1.16817073,2.99036585 1.16817073,2.31113821 C1.16817073,1.63443089 1.72012195,1.08373984 2.39808943,1.08373984 L22.0856098,1.08373984 C22.7648374,1.08373984 23.3167886,1.63443089 23.3167886,2.31113821 C23.3155285,2.99036585 22.7635772,3.54231707 22.0856098,3.54231707 L22.0856098,3.54231707 Z"></path>
                    </g>
                    <g transform="translate(7.560976, 119.715447)" id="Shape" fill="#FFFFFF">
                        <path d="M9.56085366,2.42329268 L2.39808943,2.42329268 C2.06792683,2.42329268 1.79825203,2.15235772 1.79825203,1.82471545 C1.79825203,1.49581301 2.06792683,1.22235772 2.39808943,1.22235772 L9.56085366,1.22235772 C9.88849593,1.22235772 10.1594309,1.49581301 10.1594309,1.82471545 C10.1594309,2.15235772 9.88849593,2.42329268 9.56085366,2.42329268 L9.56085366,2.42329268 Z"></path>
                        <path d="M9.56085366,3.05337398 L2.39808943,3.05337398 C1.72012195,3.05337398 1.16817073,2.50268293 1.16817073,1.82471545 C1.16817073,1.1454878 1.72012195,0.592276423 2.39808943,0.592276423 L9.56085366,0.592276423 C10.2388211,0.592276423 10.7895122,1.14422764 10.7895122,1.82471545 C10.7895122,2.50268293 10.2388211,3.05337398 9.56085366,3.05337398 L9.56085366,3.05337398 Z"></path>
                    </g>
                    <g transform="translate(47.886179, 89.471545)" id="Shape">
                        <g transform="translate(11.341463, 0.000000)">
                            <path d="M13.8630488,25.9795122 C7.23333333,25.9795122 1.8095935,20.5809756 1.77178862,13.9474797 C1.75288618,10.7239837 2.99666667,7.68321138 5.27378049,5.38215447 C7.54963415,3.08109756 10.5778049,1.80455285 13.8013008,1.78691057 C20.499065,1.78691057 25.9278455,7.18292683 25.9694309,13.8164228 C26.0047154,20.4839431 20.6086992,25.9404472 13.9386585,25.9795122 L13.8630488,25.9795122 L13.8630488,25.9795122 Z" fill="#F0F0F0"></path>
                            <path d="M13.8693496,3.04707317 C19.8084959,3.04707317 24.6714634,7.88105691 24.7092683,13.8227236 C24.7407724,19.7971545 19.9055285,24.6853252 13.9310976,24.7193496 L13.8630488,24.7193496 C7.92390244,24.7193496 3.06597561,19.8841057 3.03195122,13.9399187 C3.01556911,11.0541463 4.12955285,8.3296748 6.16849593,6.26804878 C8.20869919,4.20642276 10.9205691,3.06345528 13.8088618,3.04707317 L13.8693496,3.04707317 L13.8693496,3.04707317 Z M13.8693496,0.526747967 L13.7937398,0.526747967 C6.43439024,0.567073171 0.468780488,6.59443089 0.510365854,13.9537805 C0.55195122,21.2954878 6.53142276,27.2396748 13.8617886,27.2396748 L13.9449593,27.2396748 C21.3093496,27.1968293 27.2699187,21.1745122 27.2295935,13.8088618 C27.1829675,6.47219512 21.2009756,0.526747967 13.8693496,0.526747967 L13.8693496,0.526747967 L13.8693496,0.526747967 Z" fill="#3E3B3E"></path>
                        </g>
                        <g transform="translate(0.000000, 27.723577)">
                            <path d="M48.3070732,26.2365854 L45.9997154,11.144878 C45.8610976,6.34995935 41.9205691,2.48756098 37.0928862,2.48756098 L13.345122,2.48756098 C8.51995935,2.48756098 4.57691057,6.34995935 4.4445935,11.144878 L2.29349593,26.2365854" fill="#F0F0F0"></path>
                            <path d="M47.0620325,26.4281301 L44.740813,11.1814228 C44.6223577,7.08337398 41.1921951,3.74772358 37.0928862,3.74772358 L13.345122,3.74772358 C9.24581301,3.74772358 5.81817073,7.08211382 5.7047561,11.1789024 L5.69215447,11.322561 L3.53979675,26.4155285 L1.04593496,26.0601626 L3.18821138,11.0365041 C3.37723577,5.62158537 7.91886179,1.22739837 13.345122,1.22739837 L37.0928862,1.22739837 C42.5153659,1.22739837 47.058252,5.61654472 47.2573577,11.0289431 L49.553374,26.0463008 L47.0620325,26.4281301 L47.0620325,26.4281301 Z" fill="#3E3B3E"></path>
                        </g>
                    </g>
                    <g transform="translate(18.902439, 8.821138)" fill="#FFFFFF">
                        <rect id="Rectangle-path" x="3.15292683" y="10.1077642" width="3.19703252" height="5.9945935"></rect>
                        <rect id="Rectangle-path" x="9.94646341" y="7.31146341" width="3.19703252" height="8.79089431"></rect>
                        <rect id="Rectangle-path" x="16.3380081" y="10.1077642" width="3.19703252" height="5.9945935"></rect>
                        <rect id="Rectangle-path" x="22.3313415" y="7.31146341" width="3.19703252" height="8.79089431"></rect>
                        <path d="M11.9009756,3.94052846 L18.3630894,8.07890244 L27.295122,1.61678862 L26.3588211,0.322601626 L18.3089024,6.14581301 L11.9841463,2.09565041 L0.786341463,7.85207317 L1.52605691,9.26849593 L11.9009756,3.94052846 Z" id="Shape"></path>
                    </g>
                    <g transform="translate(148.699187, 31.504065)" id="Shape" fill="#FFFFFF">
                        <path d="M10.3913008,17.6107724 L4.91211382,17.6107724 C4.60085366,17.6107724 4.31857724,17.4267886 4.19634146,17.1394715 L1.14800813,10.1430488 C0.974105691,9.74609756 1.15682927,9.28487805 1.55378049,9.11349593 C1.94821138,8.94085366 2.41069106,9.11979675 2.58207317,9.51674797 L5.42626016,16.0443902 L9.87841463,16.0443902 L12.7200813,9.51674797 C12.8939837,9.12231707 13.3552033,8.9395935 13.7508943,9.11349593 C14.1465854,9.28487805 14.3280488,9.74609756 14.1554065,10.1430488 L11.1083333,17.1394715 C10.9860976,17.4255285 10.7038211,17.6107724 10.3913008,17.6107724 L10.3913008,17.6107724 Z"></path>
                        <path d="M13.4597967,10.5677236 C13.3615041,10.5677236 13.2632114,10.5488211 13.167439,10.5097561 C12.7667073,10.3484553 12.5726423,9.89101626 12.7339431,9.49154472 C12.9985772,8.83752033 13.1334146,8.14695122 13.1334146,7.43621951 C13.1334146,4.41434959 10.6735772,1.95703252 7.65296748,1.95703252 C4.63235772,1.95703252 2.17378049,4.41434959 2.17378049,7.43621951 C2.17378049,8.14695122 2.30735772,8.83752033 2.57199187,9.49154472 C2.73329268,9.89101626 2.5404878,10.3484553 2.13849593,10.5097561 C1.73902439,10.6735772 1.2803252,10.4795122 1.12028455,10.0775203 C0.778780488,9.23699187 0.606138211,8.34731707 0.606138211,7.43495935 C0.606138211,3.55113821 3.76788618,0.390650407 7.65170732,0.390650407 C11.5367886,0.390650407 14.6960163,3.55113821 14.6960163,7.43495935 C14.6960163,8.34731707 14.523374,9.23699187 14.1843902,10.0775203 C14.0608943,10.3824797 13.7685366,10.5677236 13.4597967,10.5677236 L13.4597967,10.5677236 Z"></path>
                        <path d="M7.65296748,17.6107724 C7.22073171,17.6107724 6.86914634,17.2604472 6.86914634,16.8269512 L6.86914634,11.3704472 C6.86914634,10.9394715 7.22073171,10.5878862 7.65296748,10.5878862 C8.08520325,10.5878862 8.43426829,10.9382114 8.43426829,11.3704472 L8.43426829,16.8269512 C8.43426829,17.259187 8.08520325,17.6107724 7.65296748,17.6107724 L7.65296748,17.6107724 Z"></path>
                        <path d="M10.7844715,19.9584553 L4.91337398,19.9584553 C4.48113821,19.9584553 4.13207317,19.6081301 4.13207317,19.1746341 C4.13207317,18.7411382 4.48113821,18.3920732 4.91337398,18.3920732 L10.7844715,18.3920732 C11.2167073,18.3920732 11.5670325,18.7411382 11.5670325,19.1746341 C11.5670325,19.6081301 11.2154472,19.9584553 10.7844715,19.9584553 L10.7844715,19.9584553 Z"></path>
                        <path d="M10.5878862,22.3061382 L4.71804878,22.3061382 C4.28455285,22.3061382 3.93422764,21.955813 3.93422764,21.5223171 C3.93422764,21.0888211 4.28455285,20.7397561 4.71804878,20.7397561 L10.5878862,20.7397561 C11.0213821,20.7397561 11.369187,21.0888211 11.369187,21.5223171 C11.369187,21.955813 11.0213821,22.3061382 10.5878862,22.3061382 L10.5878862,22.3061382 Z"></path>
                        <path d="M6.08658537,23.8712602 C5.65434959,23.8712602 5.30528455,23.520935 5.30528455,23.087439 L5.30528455,21.5223171 C5.30528455,21.0888211 5.65434959,20.7397561 6.08658537,20.7397561 C6.52134146,20.7397561 6.86914634,21.0888211 6.86914634,21.5223171 L6.86914634,23.087439 C6.86914634,23.5221951 6.52134146,23.8712602 6.08658537,23.8712602 L6.08658537,23.8712602 Z"></path>
                        <path d="M7.65296748,25.4376423 C6.35752033,25.4376423 5.30528455,24.3841463 5.30528455,23.0886992 C5.30528455,22.6564634 5.65434959,22.3061382 6.08658537,22.3061382 C6.52134146,22.3061382 6.86914634,22.6564634 6.86914634,23.0886992 C6.86914634,23.520935 7.22199187,23.8725203 7.65296748,23.8725203 C8.08394309,23.8725203 8.43426829,23.520935 8.43426829,23.0886992 L8.43426829,21.7441057 C8.43426829,21.3106098 8.78585366,20.9602846 9.21808943,20.9602846 C9.65158537,20.9602846 10.0006504,21.3106098 10.0006504,21.7441057 L10.0006504,23.0886992 C10.0019106,24.3841463 8.94841463,25.4376423 7.65296748,25.4376423 L7.65296748,25.4376423 Z"></path>
                        <path d="M7.65296748,12.1555285 C6.35752033,12.1555285 5.30528455,11.1007724 5.30528455,9.80784553 C5.30528455,9.37434959 5.65434959,9.02276423 6.08658537,9.02276423 C6.52134146,9.02276423 6.86914634,9.37434959 6.86914634,9.80784553 C6.86914634,10.2363008 7.22199187,10.5891463 7.65296748,10.5891463 C8.08394309,10.5891463 8.43426829,10.2363008 8.43426829,9.80784553 C8.43426829,9.37434959 8.78585366,9.02276423 9.21808943,9.02276423 C9.65158537,9.02276423 10.0006504,9.37434959 10.0006504,9.80784553 C10.0019106,11.0995122 8.94841463,12.1555285 7.65296748,12.1555285 L7.65296748,12.1555285 Z"></path>
                    </g>
                </g>
            </g>
        </g>
    </g>
</svg>